<svg width="526mm" height="243mm" viewBox="0 0 526 243" xmlns="http://www.w3.org/2000/svg" version="1.1" preserveAspectRatio="xMidYMid meet"><g id="svgGroup" stroke-linecap="round" fill-rule="evenodd" font-size="9pt" stroke="#000" stroke-width="0.25mm" fill="none" style="stroke:#000;stroke-width:0.25mm;fill:none"><path d="M 0 193 L 0 210.5 L 5 210.5 L 5 225.5 L 0 225.5 L 0 240.5 L 0 243 L 17.5 243 L 17.5 238 L 32.5 238 L 32.5 243 L 47.5 243 L 47.5 238 L 62.5 238 L 62.5 243 L 77.5 243 L 77.5 238 L 92.5 238 L 92.5 243 L 107.5 243 L 107.5 238 L 122.5 238 L 122.5 243 L 137.5 243 L 137.5 238 L 152.5 238 L 152.5 243 L 167.5 243 L 167.5 238 L 182.5 238 L 182.5 243 L 200 243 L 200 225.5 L 195 225.5 L 195 210.5 L 200 210.5 L 200 195.5 L 200 193 L 182.5 193 L 182.5 198 L 167.5 198 L 167.5 193 L 152.5 193 L 152.5 198 L 137.5 198 L 137.5 193 L 122.5 193 L 122.5 198 L 107.5 198 L 107.5 193 L 92.5 193 L 92.5 198 L 77.5 198 L 77.5 193 L 62.5 193 L 62.5 198 L 47.5 198 L 47.5 193 L 32.5 193 L 32.5 198 L 17.5 198 L 17.5 193 L 0 193 Z" id="front_outsideCutPath" stroke="#FF0000" stroke-width="0.1" style="stroke:#FF0000;stroke-width:0.1" vector-effect="non-scaling-stroke"/><path d="M 107.288 221.777 L 106.477 221.777 L 106.477 218.315 A 2.291 2.291 0 0 0 106.451 217.956 Q 106.389 217.565 106.179 217.338 A 0.914 0.914 0 0 0 105.804 217.099 Q 105.569 217.016 105.247 217.016 A 2.453 2.453 0 0 0 104.788 217.056 Q 104.291 217.151 104.016 217.47 Q 103.659 217.885 103.628 218.793 A 5.193 5.193 0 0 0 103.625 218.969 L 103.625 221.777 L 102.815 221.777 L 102.815 216.425 L 103.474 216.425 L 103.606 217.158 L 103.645 217.158 A 1.641 1.641 0 0 1 104.288 216.573 A 1.974 1.974 0 0 1 104.343 216.545 A 2.195 2.195 0 0 1 105.124 216.336 A 2.654 2.654 0 0 1 105.344 216.328 A 3.2 3.2 0 0 1 105.889 216.371 Q 106.46 216.47 106.799 216.794 A 1.405 1.405 0 0 1 107.142 217.331 Q 107.224 217.553 107.26 217.827 A 3.537 3.537 0 0 1 107.288 218.286 L 107.288 221.777 Z M 91.716 216.425 L 91.716 217.055 L 90.354 217.055 L 90.354 221.777 L 89.543 221.777 L 89.543 217.055 L 88.586 217.055 L 88.586 216.689 L 89.543 216.396 L 89.543 216.098 A 3.285 3.285 0 0 1 89.62 215.354 Q 89.907 214.125 91.267 214.125 A 2.61 2.61 0 0 1 91.636 214.154 Q 91.816 214.179 92.016 214.229 A 5.247 5.247 0 0 1 92.263 214.296 L 92.053 214.946 Q 91.72 214.838 91.456 214.807 A 1.743 1.743 0 0 0 91.252 214.794 A 1.093 1.093 0 0 0 90.989 214.824 A 0.702 0.702 0 0 0 90.574 215.1 Q 90.354 215.405 90.354 216.079 L 90.354 216.425 L 91.716 216.425 Z M 111.414 221.108 L 111.414 221.728 A 0.797 0.797 0 0 1 111.319 221.765 Q 111.218 221.799 111.074 221.825 A 3.033 3.033 0 0 1 111.025 221.833 Q 110.769 221.874 110.564 221.874 A 2.117 2.117 0 0 1 109.94 221.79 Q 109.011 221.504 109.011 220.239 L 109.011 217.055 L 108.245 217.055 L 108.245 216.664 L 109.011 216.328 L 109.353 215.185 L 109.822 215.185 L 109.822 216.425 L 111.375 216.425 L 111.375 217.055 L 109.822 217.055 L 109.822 220.204 A 1.632 1.632 0 0 0 109.845 220.491 Q 109.873 220.648 109.935 220.773 A 0.786 0.786 0 0 0 110.051 220.947 Q 110.281 221.205 110.681 221.205 A 2.662 2.662 0 0 0 111.071 221.178 A 2.453 2.453 0 0 0 111.096 221.174 Q 111.296 221.142 111.414 221.108 Z M 95.774 216.386 L 95.662 217.138 Q 95.385 217.077 95.163 217.067 A 1.901 1.901 0 0 0 95.076 217.065 Q 94.426 217.065 93.965 217.592 A 1.851 1.851 0 0 0 93.518 218.631 A 2.46 2.46 0 0 0 93.503 218.906 L 93.503 221.777 L 92.693 221.777 L 92.693 216.425 L 93.362 216.425 L 93.455 217.416 L 93.494 217.416 A 2.737 2.737 0 0 1 93.8 216.979 A 2.091 2.091 0 0 1 94.211 216.611 Q 94.631 216.328 95.134 216.328 A 3.721 3.721 0 0 1 95.467 216.342 A 2.716 2.716 0 0 1 95.774 216.386 Z M 101.32 219.911 A 4.187 4.187 0 0 0 101.394 219.096 Q 101.394 218.576 101.284 218.144 A 2.524 2.524 0 0 0 100.732 217.075 A 2.122 2.122 0 0 0 99.747 216.439 A 2.724 2.724 0 0 0 98.948 216.328 A 3.148 3.148 0 0 0 98.382 216.376 A 2.144 2.144 0 0 0 97.131 217.058 A 2.239 2.239 0 0 0 96.856 217.439 Q 96.477 218.1 96.477 219.096 A 4.055 4.055 0 0 0 96.528 219.753 A 2.998 2.998 0 0 0 96.78 220.571 A 2.664 2.664 0 0 0 96.839 220.686 A 2.194 2.194 0 0 0 97.639 221.537 Q 98.196 221.874 98.914 221.874 A 3.147 3.147 0 0 0 99.463 221.828 A 2.161 2.161 0 0 0 100.735 221.14 A 2.261 2.261 0 0 0 101.004 220.77 Q 101.224 220.394 101.32 219.911 Z M 97.317 219.096 Q 97.317 220.121 97.727 220.659 A 1.328 1.328 0 0 0 98.592 221.168 A 2.013 2.013 0 0 0 98.933 221.196 A 1.883 1.883 0 0 0 99.43 221.134 A 1.31 1.31 0 0 0 100.142 220.661 A 1.74 1.74 0 0 0 100.413 220.133 Q 100.492 219.889 100.527 219.592 A 4.27 4.27 0 0 0 100.554 219.096 A 4.044 4.044 0 0 0 100.516 218.52 Q 100.474 218.226 100.384 217.989 A 1.669 1.669 0 0 0 100.142 217.546 A 1.333 1.333 0 0 0 99.313 217.051 A 2.044 2.044 0 0 0 98.923 217.016 A 1.929 1.929 0 0 0 98.443 217.072 A 1.291 1.291 0 0 0 97.722 217.538 Q 97.317 218.061 97.317 219.096 Z" id="front_labelLayer" stroke="#777777" fill="#777777" style="stroke:#777777;fill:#777777" vector-effect="non-scaling-stroke"/><path d="M 208 193 L 208 210.5 L 203 210.5 L 203 225.5 L 208 225.5 L 208 240.5 L 208 243 L 225.5 243 L 225.5 238 L 240.5 238 L 240.5 243 L 255.5 243 L 255.5 238 L 270.5 238 L 270.5 243 L 285.5 243 L 285.5 238 L 300.5 238 L 300.5 243 L 315.5 243 L 318 243 L 318 225.5 L 323 225.5 L 323 210.5 L 318 210.5 L 318 195.5 L 318 193 L 300.5 193 L 300.5 198 L 285.5 198 L 285.5 193 L 270.5 193 L 270.5 198 L 255.5 198 L 255.5 193 L 240.5 193 L 240.5 198 L 225.5 198 L 225.5 193 L 210.5 193 L 208 193 Z" id="left_outsideCutPath" stroke="#FF0000" stroke-width="0.1" style="stroke:#FF0000;stroke-width:0.1" vector-effect="non-scaling-stroke"/><path d="M 266.557 216.425 L 266.557 217.055 L 265.195 217.055 L 265.195 221.777 L 264.384 221.777 L 264.384 217.055 L 263.427 217.055 L 263.427 216.689 L 264.384 216.396 L 264.384 216.098 A 3.285 3.285 0 0 1 264.461 215.354 Q 264.748 214.125 266.108 214.125 A 2.61 2.61 0 0 1 266.477 214.154 Q 266.657 214.179 266.857 214.229 A 5.247 5.247 0 0 1 267.104 214.296 L 266.894 214.946 Q 266.561 214.838 266.297 214.807 A 1.743 1.743 0 0 0 266.093 214.794 A 1.093 1.093 0 0 0 265.83 214.824 A 0.702 0.702 0 0 0 265.415 215.1 Q 265.195 215.405 265.195 216.079 L 265.195 216.425 L 266.557 216.425 Z M 262.763 218.735 L 262.763 219.247 L 259.077 219.247 Q 259.093 219.891 259.309 220.323 A 1.522 1.522 0 0 0 259.553 220.678 A 1.473 1.473 0 0 0 260.326 221.114 A 2.232 2.232 0 0 0 260.825 221.166 A 4.281 4.281 0 0 0 262.428 220.849 A 4.905 4.905 0 0 0 262.534 220.805 L 262.534 221.528 A 4.866 4.866 0 0 1 262.09 221.695 A 3.721 3.721 0 0 1 261.721 221.794 Q 261.337 221.874 260.795 221.874 A 3.15 3.15 0 0 1 260.007 221.781 A 2.23 2.23 0 0 1 258.923 221.152 Q 258.276 220.471 258.239 219.291 A 4.63 4.63 0 0 1 258.237 219.145 A 4.256 4.256 0 0 1 258.316 218.301 Q 258.419 217.788 258.66 217.389 A 2.4 2.4 0 0 1 258.874 217.089 A 2.077 2.077 0 0 1 260.388 216.334 A 2.865 2.865 0 0 1 260.585 216.328 A 2.469 2.469 0 0 1 261.281 216.421 A 1.879 1.879 0 0 1 262.177 216.989 A 2.266 2.266 0 0 1 262.691 218.025 A 3.299 3.299 0 0 1 262.763 218.735 Z M 269.995 221.108 L 269.995 221.728 A 0.797 0.797 0 0 1 269.9 221.765 Q 269.799 221.799 269.655 221.825 A 3.033 3.033 0 0 1 269.606 221.833 Q 269.35 221.874 269.145 221.874 A 2.117 2.117 0 0 1 268.521 221.79 Q 267.592 221.504 267.592 220.239 L 267.592 217.055 L 266.826 217.055 L 266.826 216.664 L 267.592 216.328 L 267.934 215.185 L 268.403 215.185 L 268.403 216.425 L 269.956 216.425 L 269.956 217.055 L 268.403 217.055 L 268.403 220.204 A 1.632 1.632 0 0 0 268.426 220.491 Q 268.454 220.648 268.516 220.773 A 0.786 0.786 0 0 0 268.632 220.947 Q 268.862 221.205 269.262 221.205 A 2.662 2.662 0 0 0 269.652 221.178 A 2.453 2.453 0 0 0 269.677 221.174 Q 269.877 221.142 269.995 221.108 Z M 256.816 214.179 L 256.816 221.777 L 256.005 221.777 L 256.005 214.179 L 256.816 214.179 Z M 259.096 218.588 L 261.894 218.588 Q 261.894 218.07 261.738 217.715 A 1.254 1.254 0 0 0 261.552 217.414 A 1.11 1.11 0 0 0 260.884 217.033 A 1.666 1.666 0 0 0 260.576 217.006 Q 259.931 217.006 259.548 217.426 A 1.601 1.601 0 0 0 259.229 217.963 Q 259.128 218.24 259.096 218.588 Z" id="left_labelLayer" stroke="#777777" fill="#777777" style="stroke:#777777;fill:#777777" vector-effect="non-scaling-stroke"/><path d="M 331 128 L 331 145.5 L 326 145.5 L 326 160.5 L 331 160.5 L 331 175.5 L 326 175.5 L 326 190.5 L 331 190.5 L 331 205.5 L 326 205.5 L 326 220.5 L 331 220.5 L 331 235.5 L 331 238 L 343.5 238 L 343.5 243 L 358.5 243 L 358.5 238 L 373.5 238 L 373.5 243 L 388.5 243 L 388.5 238 L 403.5 238 L 403.5 243 L 418.5 243 L 418.5 238 L 433.5 238 L 433.5 243 L 448.5 243 L 448.5 238 L 463.5 238 L 463.5 243 L 478.5 243 L 478.5 238 L 493.5 238 L 493.5 243 L 508.5 243 L 508.5 238 L 521 238 L 521 220.5 L 526 220.5 L 526 205.5 L 521 205.5 L 521 190.5 L 526 190.5 L 526 175.5 L 521 175.5 L 521 160.5 L 526 160.5 L 526 145.5 L 521 145.5 L 521 130.5 L 521 128 L 508.5 128 L 508.5 123 L 493.5 123 L 493.5 128 L 478.5 128 L 478.5 123 L 463.5 123 L 463.5 128 L 448.5 128 L 448.5 123 L 433.5 123 L 433.5 128 L 418.5 128 L 418.5 123 L 403.5 123 L 403.5 128 L 388.5 128 L 388.5 123 L 373.5 123 L 373.5 128 L 358.5 128 L 358.5 123 L 343.5 123 L 343.5 128 L 331 128 Z" id="top_outsideCutPath" stroke="#FF0000" stroke-width="0.1" style="stroke:#FF0000;stroke-width:0.1" vector-effect="non-scaling-stroke"/><path d="M 434.625 186.375 L 434.484 186.375 Q 434.625 187.5 434.625 188.508 L 434.625 193.793 L 432.68 193.793 L 432.68 175.184 L 434.262 175.184 L 434.531 176.941 L 434.625 176.941 A 5.236 5.236 0 0 1 435.382 176.081 A 4.049 4.049 0 0 1 436.371 175.418 A 4.872 4.872 0 0 1 437.767 175.01 A 6.305 6.305 0 0 1 438.656 174.949 A 5.963 5.963 0 0 1 440.341 175.174 A 4.407 4.407 0 0 1 442.6 176.695 Q 443.735 178.123 443.942 180.489 A 12.667 12.667 0 0 1 443.988 181.594 A 11.406 11.406 0 0 1 443.837 183.513 Q 443.526 185.331 442.576 186.51 A 4.605 4.605 0 0 1 439.303 188.231 A 6.598 6.598 0 0 1 438.656 188.262 A 5.901 5.901 0 0 1 437.173 188.081 A 5.134 5.134 0 0 1 436.365 187.799 A 4.309 4.309 0 0 1 434.625 186.375 Z M 415.617 186.422 L 415.617 187.91 Q 415.331 188.048 414.802 188.142 A 7.276 7.276 0 0 1 414.685 188.162 Q 414.111 188.255 413.644 188.261 A 4.987 4.987 0 0 1 413.578 188.262 A 5.081 5.081 0 0 1 412.081 188.06 Q 410.435 187.552 410.004 185.764 A 6.115 6.115 0 0 1 409.851 184.336 L 409.851 176.695 L 408.012 176.695 L 408.012 175.758 L 409.851 174.949 L 410.672 172.207 L 411.797 172.207 L 411.797 175.184 L 415.523 175.184 L 415.523 176.695 L 411.797 176.695 L 411.797 184.254 Q 411.797 185.069 412.069 185.618 A 1.887 1.887 0 0 0 412.348 186.035 A 1.807 1.807 0 0 0 413.458 186.627 A 2.6 2.6 0 0 0 413.859 186.656 A 6.389 6.389 0 0 0 414.795 186.589 A 5.888 5.888 0 0 0 414.855 186.58 Q 415.314 186.507 415.591 186.429 A 2.926 2.926 0 0 0 415.617 186.422 Z M 427.687 186.498 A 5.427 5.427 0 0 0 428.334 185.61 Q 429.269 184.009 429.269 181.594 Q 429.269 178.535 427.682 176.742 Q 426.094 174.949 423.398 174.949 A 7.555 7.555 0 0 0 422.041 175.066 A 5.145 5.145 0 0 0 419.039 176.701 Q 417.996 177.865 417.646 179.64 A 10.101 10.101 0 0 0 417.469 181.594 A 9.732 9.732 0 0 0 417.591 183.17 A 7.196 7.196 0 0 0 418.195 185.133 A 6.394 6.394 0 0 0 418.337 185.41 A 5.266 5.266 0 0 0 420.258 187.453 A 5.417 5.417 0 0 0 421.501 188.006 A 6.247 6.247 0 0 0 423.316 188.262 A 7.554 7.554 0 0 0 424.635 188.151 A 5.186 5.186 0 0 0 427.687 186.498 Z M 419.484 181.594 A 9.851 9.851 0 0 0 419.578 183.001 Q 419.681 183.715 419.899 184.294 A 4.081 4.081 0 0 0 420.469 185.344 A 3.188 3.188 0 0 0 422.545 186.567 A 4.831 4.831 0 0 0 423.363 186.633 A 4.518 4.518 0 0 0 424.555 186.485 A 3.145 3.145 0 0 0 426.264 185.35 Q 427 184.395 427.189 182.783 A 10.247 10.247 0 0 0 427.254 181.594 A 9.706 9.706 0 0 0 427.162 180.211 Q 427.06 179.507 426.846 178.936 A 4.005 4.005 0 0 0 426.264 177.873 A 3.2 3.2 0 0 0 424.274 176.686 A 4.906 4.906 0 0 0 423.34 176.602 A 4.63 4.63 0 0 0 422.187 176.737 A 3.098 3.098 0 0 0 420.457 177.855 Q 419.757 178.758 419.561 180.298 A 10.28 10.28 0 0 0 419.484 181.594 Z M 434.625 181.16 L 434.625 181.594 A 12.862 12.862 0 0 0 434.689 182.923 Q 434.828 184.264 435.276 185.081 A 2.934 2.934 0 0 0 435.527 185.467 A 2.822 2.822 0 0 0 436.959 186.433 Q 437.597 186.633 438.422 186.633 Q 440.086 186.633 441.029 185.285 Q 441.774 184.222 441.931 182.524 A 10.364 10.364 0 0 0 441.973 181.57 A 9.817 9.817 0 0 0 441.88 180.178 Q 441.678 178.767 441.029 177.885 A 3.026 3.026 0 0 0 438.816 176.624 A 4.185 4.185 0 0 0 438.375 176.602 Q 437.111 176.602 436.297 177.05 A 2.571 2.571 0 0 0 435.527 177.691 Q 434.704 178.712 434.631 180.862 A 12.38 12.38 0 0 0 434.625 181.16 Z" id="top_labelLayer" stroke="#777777" fill="#777777" style="stroke:#777777;fill:#777777" vector-effect="non-scaling-stroke"/><path d="M 0 140 L 0 157.5 L 5 157.5 L 5 172.5 L 0 172.5 L 0 187.5 L 0 190 L 17.5 190 L 17.5 185 L 32.5 185 L 32.5 190 L 47.5 190 L 47.5 185 L 62.5 185 L 62.5 190 L 77.5 190 L 77.5 185 L 92.5 185 L 92.5 190 L 107.5 190 L 107.5 185 L 122.5 185 L 122.5 190 L 137.5 190 L 137.5 185 L 152.5 185 L 152.5 190 L 167.5 190 L 167.5 185 L 182.5 185 L 182.5 190 L 200 190 L 200 172.5 L 195 172.5 L 195 157.5 L 200 157.5 L 200 142.5 L 200 140 L 182.5 140 L 182.5 145 L 167.5 145 L 167.5 140 L 152.5 140 L 152.5 145 L 137.5 145 L 137.5 140 L 122.5 140 L 122.5 145 L 107.5 145 L 107.5 140 L 92.5 140 L 92.5 145 L 77.5 145 L 77.5 140 L 62.5 140 L 62.5 145 L 47.5 145 L 47.5 140 L 32.5 140 L 32.5 145 L 17.5 145 L 17.5 140 L 0 140 Z" id="back_outsideCutPath" stroke="#FF0000" stroke-width="0.1" style="stroke:#FF0000;stroke-width:0.1" vector-effect="non-scaling-stroke"/><path d="M 106.846 166.011 L 106.885 166.011 A 4.798 4.798 0 0 1 107.003 165.85 Q 107.14 165.673 107.335 165.446 A 17.416 17.416 0 0 1 107.524 165.229 L 109.253 163.398 L 110.215 163.398 L 108.047 165.679 L 110.366 168.75 L 109.385 168.75 L 107.495 166.221 L 106.885 166.748 L 106.885 168.75 L 106.084 168.75 L 106.084 161.152 L 106.885 161.152 L 106.885 165.181 A 5.402 5.402 0 0 1 106.882 165.333 Q 106.875 165.583 106.847 165.99 A 33.76 33.76 0 0 1 106.846 166.011 Z M 90.444 168.061 L 90.386 168.061 L 90.215 168.75 L 89.634 168.75 L 89.634 161.152 L 90.444 161.152 L 90.444 162.998 Q 90.444 163.598 90.408 164.079 A 10.075 10.075 0 0 1 90.405 164.111 L 90.444 164.111 A 1.843 1.843 0 0 1 91.789 163.33 A 2.768 2.768 0 0 1 92.124 163.31 A 2.477 2.477 0 0 1 92.821 163.404 A 1.854 1.854 0 0 1 93.762 164.031 Q 94.229 164.607 94.323 165.568 A 5.203 5.203 0 0 1 94.346 166.069 A 4.752 4.752 0 0 1 94.283 166.869 Q 94.21 167.295 94.053 167.637 A 2.278 2.278 0 0 1 93.757 168.118 A 1.919 1.919 0 0 1 92.394 168.835 A 2.749 2.749 0 0 1 92.124 168.848 Q 91.602 168.848 91.169 168.655 A 1.795 1.795 0 0 1 90.444 168.061 Z M 99.653 168.75 L 99.053 168.75 L 98.892 167.988 L 98.853 167.988 A 3.36 3.36 0 0 1 98.581 168.293 Q 98.317 168.552 98.054 168.669 A 1.869 1.869 0 0 1 97.668 168.791 Q 97.396 168.848 97.061 168.848 A 2.487 2.487 0 0 1 96.554 168.799 Q 96.245 168.735 96.007 168.585 A 1.396 1.396 0 0 1 95.813 168.437 A 1.332 1.332 0 0 1 95.411 167.735 A 2.039 2.039 0 0 1 95.361 167.27 A 1.403 1.403 0 0 1 96.159 165.947 Q 96.8 165.606 97.954 165.571 L 98.862 165.542 L 98.862 165.21 A 2.328 2.328 0 0 0 98.84 164.873 Q 98.814 164.701 98.761 164.563 A 0.905 0.905 0 0 0 98.591 164.28 Q 98.375 164.04 97.952 163.992 A 2.003 2.003 0 0 0 97.725 163.979 A 2.639 2.639 0 0 0 97.117 164.055 Q 96.839 164.121 96.535 164.245 A 5.428 5.428 0 0 0 96.211 164.39 L 95.962 163.769 A 3.737 3.737 0 0 1 96.683 163.473 A 4.254 4.254 0 0 1 96.829 163.433 A 3.754 3.754 0 0 1 97.773 163.31 A 3.423 3.423 0 0 1 98.295 163.347 Q 98.867 163.436 99.192 163.735 A 1.284 1.284 0 0 1 99.523 164.246 Q 99.6 164.456 99.632 164.717 A 3.189 3.189 0 0 1 99.653 165.098 L 99.653 168.75 Z M 104.893 163.579 L 104.644 164.268 A 3.606 3.606 0 0 0 104.252 164.137 A 4.306 4.306 0 0 0 104.058 164.089 Q 103.786 164.029 103.568 164.02 A 1.797 1.797 0 0 0 103.496 164.018 A 1.798 1.798 0 0 0 102.766 164.156 Q 101.865 164.553 101.865 166.099 A 3.925 3.925 0 0 0 101.904 166.67 Q 101.947 166.96 102.037 167.195 A 1.681 1.681 0 0 0 102.263 167.612 A 1.287 1.287 0 0 0 103.097 168.111 A 1.961 1.961 0 0 0 103.442 168.14 A 3.393 3.393 0 0 0 104.378 168.003 A 4.189 4.189 0 0 0 104.814 167.852 L 104.814 168.569 A 2.306 2.306 0 0 1 104.25 168.769 Q 103.99 168.827 103.687 168.842 A 4.445 4.445 0 0 1 103.462 168.848 A 3.029 3.029 0 0 1 102.725 168.763 A 2.054 2.054 0 0 1 101.663 168.132 A 2.345 2.345 0 0 1 101.175 167.237 Q 101.067 166.881 101.037 166.454 A 4.901 4.901 0 0 1 101.025 166.108 A 4.472 4.472 0 0 1 101.095 165.295 Q 101.179 164.841 101.365 164.484 A 2.235 2.235 0 0 1 101.672 164.033 A 2.099 2.099 0 0 1 102.822 163.372 A 3.182 3.182 0 0 1 103.516 163.301 Q 103.901 163.301 104.287 163.384 A 4.046 4.046 0 0 1 104.512 163.438 Q 104.742 163.502 104.893 163.579 Z M 91.124 164.19 A 1.078 1.078 0 0 0 90.811 164.465 Q 90.444 164.941 90.444 166.069 A 5.359 5.359 0 0 0 90.471 166.623 Q 90.529 167.182 90.716 167.522 A 1.222 1.222 0 0 0 90.82 167.683 A 1.176 1.176 0 0 0 91.417 168.086 Q 91.616 168.148 91.859 168.164 A 2.606 2.606 0 0 0 92.026 168.169 A 1.616 1.616 0 0 0 92.485 168.107 A 1.166 1.166 0 0 0 93.14 167.624 Q 93.506 167.08 93.506 166.06 A 4.789 4.789 0 0 0 93.477 165.514 Q 93.403 164.87 93.14 164.502 Q 92.773 163.989 92.007 163.989 Q 91.467 163.989 91.124 164.19 Z M 98.843 166.602 L 98.843 166.118 L 98.032 166.152 Q 97.065 166.186 96.638 166.453 A 0.865 0.865 0 0 0 96.226 167.08 A 1.28 1.28 0 0 0 96.211 167.28 A 1.158 1.158 0 0 0 96.24 167.546 Q 96.288 167.75 96.417 167.891 A 0.722 0.722 0 0 0 96.477 167.949 A 0.882 0.882 0 0 0 96.808 168.125 Q 96.938 168.163 97.095 168.174 A 1.823 1.823 0 0 0 97.222 168.179 A 2.232 2.232 0 0 0 97.704 168.13 Q 98.039 168.055 98.287 167.869 A 1.353 1.353 0 0 0 98.411 167.764 Q 98.843 167.349 98.843 166.602 Z" id="back_labelLayer" stroke="#777777" fill="#777777" style="stroke:#777777;fill:#777777" vector-effect="non-scaling-stroke"/><path d="M 208 140 L 208 157.5 L 203 157.5 L 203 172.5 L 208 172.5 L 208 187.5 L 208 190 L 225.5 190 L 225.5 185 L 240.5 185 L 240.5 190 L 255.5 190 L 255.5 185 L 270.5 185 L 270.5 190 L 285.5 190 L 285.5 185 L 300.5 185 L 300.5 190 L 315.5 190 L 318 190 L 318 172.5 L 323 172.5 L 323 157.5 L 318 157.5 L 318 142.5 L 318 140 L 300.5 140 L 300.5 145 L 285.5 145 L 285.5 140 L 270.5 140 L 270.5 145 L 255.5 145 L 255.5 140 L 240.5 140 L 240.5 145 L 225.5 145 L 225.5 140 L 210.5 140 L 208 140 Z" id="right_outsideCutPath" stroke="#FF0000" stroke-width="0.1" style="stroke:#FF0000;stroke-width:0.1" vector-effect="non-scaling-stroke"/><path d="M 269.218 167.598 L 268.408 167.598 L 268.408 164.136 A 2.291 2.291 0 0 0 268.381 163.776 Q 268.319 163.386 268.11 163.159 A 0.914 0.914 0 0 0 267.735 162.92 Q 267.5 162.837 267.177 162.837 A 2.453 2.453 0 0 0 266.719 162.877 Q 266.464 162.925 266.269 163.033 A 1.135 1.135 0 0 0 265.944 163.296 A 1.349 1.349 0 0 0 265.715 163.701 Q 265.577 164.073 265.559 164.625 A 5.231 5.231 0 0 0 265.556 164.8 L 265.556 167.598 L 264.746 167.598 L 264.746 160 L 265.556 160 L 265.556 162.3 A 7.291 7.291 0 0 1 265.551 162.58 Q 265.546 162.711 265.536 162.824 A 3.171 3.171 0 0 1 265.517 162.988 L 265.566 162.988 A 1.619 1.619 0 0 1 266.133 162.442 A 1.978 1.978 0 0 1 266.247 162.38 A 2.081 2.081 0 0 1 266.93 162.178 A 2.631 2.631 0 0 1 267.255 162.158 A 3.288 3.288 0 0 1 267.808 162.201 Q 268.102 162.252 268.334 162.36 A 1.461 1.461 0 0 1 268.728 162.624 A 1.411 1.411 0 0 1 269.076 163.171 Q 269.218 163.559 269.218 164.106 L 269.218 167.598 Z M 261.796 162.246 L 263.647 162.246 L 263.647 162.759 L 262.656 162.876 Q 262.792 163.047 262.9 163.323 Q 263.007 163.599 263.007 163.945 A 1.858 1.858 0 0 1 262.922 164.521 A 1.503 1.503 0 0 1 262.47 165.2 Q 261.986 165.622 261.178 165.664 A 3.521 3.521 0 0 1 260.996 165.669 A 2.605 2.605 0 0 1 260.694 165.652 A 2.2 2.2 0 0 1 260.546 165.63 A 1.442 1.442 0 0 0 260.314 165.78 Q 260.194 165.877 260.124 165.988 A 0.61 0.61 0 0 0 260.029 166.318 Q 260.029 166.538 260.209 166.643 Q 260.39 166.748 260.83 166.748 L 261.777 166.748 A 3.318 3.318 0 0 1 262.281 166.784 Q 262.544 166.824 262.757 166.911 A 1.465 1.465 0 0 1 263.112 167.114 A 1.186 1.186 0 0 1 263.553 167.87 A 1.781 1.781 0 0 1 263.579 168.179 Q 263.579 169.067 262.866 169.534 Q 262.369 169.859 261.553 169.957 A 6.424 6.424 0 0 1 260.786 170 A 4.541 4.541 0 0 1 260.176 169.962 Q 259.558 169.878 259.167 169.609 A 1.292 1.292 0 0 1 258.751 169.157 Q 258.617 168.91 258.601 168.597 A 1.711 1.711 0 0 1 258.598 168.506 A 1.239 1.239 0 0 1 258.911 167.661 Q 259.223 167.305 259.79 167.178 A 0.841 0.841 0 0 1 259.463 166.914 A 0.999 0.999 0 0 1 259.445 166.89 A 0.751 0.751 0 0 1 259.307 166.483 A 0.931 0.931 0 0 1 259.306 166.436 A 0.927 0.927 0 0 1 259.353 166.137 A 0.821 0.821 0 0 1 259.462 165.923 A 1.16 1.16 0 0 1 259.616 165.75 Q 259.697 165.674 259.802 165.599 A 2.546 2.546 0 0 1 259.956 165.498 A 1.421 1.421 0 0 1 259.338 165.004 A 1.761 1.761 0 0 1 259.279 164.917 A 1.676 1.676 0 0 1 259.022 164.109 A 2.045 2.045 0 0 1 259.018 163.979 Q 259.018 163.101 259.545 162.624 A 1.721 1.721 0 0 1 260.206 162.26 Q 260.469 162.18 260.784 162.157 A 3.58 3.58 0 0 1 261.04 162.148 A 3.107 3.107 0 0 1 261.451 162.174 A 2.366 2.366 0 0 1 261.796 162.246 Z M 273.344 166.929 L 273.344 167.549 A 0.797 0.797 0 0 1 273.25 167.586 Q 273.149 167.62 273.004 167.646 A 3.033 3.033 0 0 1 272.956 167.654 Q 272.7 167.695 272.495 167.695 A 2.117 2.117 0 0 1 271.871 167.611 Q 270.942 167.325 270.942 166.06 L 270.942 162.876 L 270.175 162.876 L 270.175 162.485 L 270.942 162.148 L 271.284 161.006 L 271.752 161.006 L 271.752 162.246 L 273.305 162.246 L 273.305 162.876 L 271.752 162.876 L 271.752 166.025 A 1.632 1.632 0 0 0 271.776 166.312 Q 271.804 166.469 271.866 166.594 A 0.786 0.786 0 0 0 271.982 166.768 Q 272.211 167.026 272.612 167.026 A 2.662 2.662 0 0 0 273.002 166.998 A 2.453 2.453 0 0 0 273.027 166.995 Q 273.227 166.963 273.344 166.929 Z M 255.737 162.207 L 255.625 162.959 Q 255.348 162.898 255.126 162.888 A 1.901 1.901 0 0 0 255.039 162.886 Q 254.389 162.886 253.928 163.413 A 1.851 1.851 0 0 0 253.481 164.452 A 2.46 2.46 0 0 0 253.466 164.727 L 253.466 167.598 L 252.656 167.598 L 252.656 162.246 L 253.325 162.246 L 253.417 163.237 L 253.457 163.237 A 2.737 2.737 0 0 1 253.763 162.8 A 2.091 2.091 0 0 1 254.174 162.432 Q 254.594 162.148 255.097 162.148 A 3.721 3.721 0 0 1 255.43 162.163 A 2.716 2.716 0 0 1 255.737 162.207 Z M 257.548 162.246 L 257.548 167.598 L 256.738 167.598 L 256.738 162.246 L 257.548 162.246 Z M 261.518 167.476 L 260.546 167.476 A 1.863 1.863 0 0 0 260.211 167.504 Q 259.894 167.562 259.687 167.739 Q 259.379 168.003 259.379 168.496 A 0.814 0.814 0 0 0 259.433 168.798 Q 259.52 169.017 259.746 169.155 Q 260.112 169.38 260.795 169.38 A 5.449 5.449 0 0 0 261.328 169.356 Q 261.861 169.303 262.196 169.136 A 1.346 1.346 0 0 0 262.307 169.075 Q 262.797 168.77 262.797 168.247 A 1.097 1.097 0 0 0 262.777 168.029 Q 262.724 167.766 262.529 167.644 A 0.769 0.769 0 0 0 262.347 167.564 Q 262.057 167.476 261.518 167.476 Z M 259.819 163.96 A 1.582 1.582 0 0 0 259.851 164.292 Q 259.921 164.614 260.136 164.81 Q 260.454 165.098 261.02 165.098 Q 261.957 165.098 262.154 164.379 A 1.642 1.642 0 0 0 262.207 163.945 Q 262.207 162.988 261.45 162.791 A 1.763 1.763 0 0 0 261.005 162.739 Q 260.568 162.739 260.285 162.92 A 0.933 0.933 0 0 0 260.126 163.047 Q 259.865 163.308 259.826 163.783 A 2.132 2.132 0 0 0 259.819 163.96 Z M 256.806 160.388 A 0.379 0.379 0 0 0 256.722 160.507 Q 256.669 160.623 256.669 160.796 Q 256.669 160.934 256.704 161.036 A 0.418 0.418 0 0 0 256.806 161.204 Q 256.943 161.338 257.148 161.338 A 0.473 0.473 0 0 0 257.485 161.204 A 0.396 0.396 0 0 0 257.562 161.101 Q 257.597 161.035 257.613 160.95 A 0.839 0.839 0 0 0 257.626 160.796 A 0.927 0.927 0 0 0 257.622 160.708 Q 257.603 160.5 257.485 160.391 A 0.478 0.478 0 0 0 257.148 160.259 A 0.619 0.619 0 0 0 257.107 160.26 A 0.469 0.469 0 0 0 256.806 160.388 Z" id="right_labelLayer" stroke="#777777" fill="#777777" style="stroke:#777777;fill:#777777" vector-effect="non-scaling-stroke"/><path d="M 331 5 L 331 22.5 L 326 22.5 L 326 37.5 L 331 37.5 L 331 52.5 L 326 52.5 L 326 67.5 L 331 67.5 L 331 82.5 L 326 82.5 L 326 97.5 L 331 97.5 L 331 112.5 L 331 115 L 343.5 115 L 343.5 120 L 358.5 120 L 358.5 115 L 373.5 115 L 373.5 120 L 388.5 120 L 388.5 115 L 403.5 115 L 403.5 120 L 418.5 120 L 418.5 115 L 433.5 115 L 433.5 120 L 448.5 120 L 448.5 115 L 463.5 115 L 463.5 120 L 478.5 120 L 478.5 115 L 493.5 115 L 493.5 120 L 508.5 120 L 508.5 115 L 521 115 L 521 97.5 L 526 97.5 L 526 82.5 L 521 82.5 L 521 67.5 L 526 67.5 L 526 52.5 L 521 52.5 L 521 37.5 L 526 37.5 L 526 22.5 L 521 22.5 L 521 7.5 L 521 5 L 508.5 5 L 508.5 0 L 493.5 0 L 493.5 5 L 478.5 5 L 478.5 0 L 463.5 0 L 463.5 5 L 448.5 5 L 448.5 0 L 433.5 0 L 433.5 5 L 418.5 5 L 418.5 0 L 403.5 0 L 403.5 5 L 388.5 5 L 388.5 0 L 373.5 0 L 373.5 5 L 358.5 5 L 358.5 0 L 343.5 0 L 343.5 5 L 331 5 Z" id="bottom_outsideCutPath" stroke="#FF0000" stroke-width="0.1" style="stroke:#FF0000;stroke-width:0.1" vector-effect="non-scaling-stroke"/><path d="M 465.48 69 L 463.535 69 L 463.535 60.644 Q 463.535 59.109 462.879 58.341 A 2.047 2.047 0 0 0 461.927 57.726 Q 461.588 57.617 461.175 57.586 A 4.516 4.516 0 0 0 460.84 57.574 Q 459.566 57.574 458.759 58.087 A 2.576 2.576 0 0 0 458.156 58.617 Q 457.293 59.655 457.289 61.808 A 10.827 10.827 0 0 0 457.289 61.828 L 457.289 69 L 455.344 69 L 455.344 60.644 Q 455.344 59.109 454.687 58.341 A 2.041 2.041 0 0 0 453.749 57.732 Q 453.269 57.574 452.637 57.574 A 4.832 4.832 0 0 0 451.637 57.67 Q 450.556 57.899 449.959 58.67 A 3.262 3.262 0 0 0 449.475 59.588 Q 449.162 60.476 449.117 61.806 A 13.544 13.544 0 0 0 449.109 62.261 L 449.109 69 L 447.164 69 L 447.164 56.156 L 448.746 56.156 L 449.062 57.914 L 449.156 57.914 Q 449.707 56.976 450.709 56.449 A 4.618 4.618 0 0 1 452.533 55.937 A 5.578 5.578 0 0 1 452.953 55.922 A 6.369 6.369 0 0 1 454.387 56.071 Q 455.268 56.275 455.883 56.758 A 3.321 3.321 0 0 1 456.891 58.101 L 456.984 58.101 A 4.062 4.062 0 0 1 458.514 56.582 A 4.88 4.88 0 0 1 458.648 56.508 A 4.924 4.924 0 0 1 460.455 55.958 A 6.139 6.139 0 0 1 461.133 55.922 A 6.762 6.762 0 0 1 462.359 56.025 Q 463.041 56.151 463.573 56.43 A 3.206 3.206 0 0 1 464.396 57.041 Q 465.48 58.16 465.48 60.621 L 465.48 69 Z M 388.465 67.347 L 388.324 67.347 L 387.914 69 L 386.519 69 L 386.519 50.765 L 388.465 50.765 L 388.465 55.195 A 40.558 40.558 0 0 1 388.443 56.565 Q 388.421 57.213 388.377 57.79 A 24.315 24.315 0 0 1 388.371 57.867 L 388.465 57.867 A 4.423 4.423 0 0 1 391.693 55.992 A 6.644 6.644 0 0 1 392.496 55.945 A 5.946 5.946 0 0 1 394.169 56.168 A 4.451 4.451 0 0 1 396.428 57.674 Q 397.549 59.058 397.772 61.362 A 12.486 12.486 0 0 1 397.828 62.566 A 11.406 11.406 0 0 1 397.677 64.485 Q 397.366 66.303 396.416 67.482 A 4.605 4.605 0 0 1 393.143 69.203 A 6.598 6.598 0 0 1 392.496 69.234 A 5.901 5.901 0 0 1 391.013 69.053 A 5.134 5.134 0 0 1 390.205 68.771 A 4.309 4.309 0 0 1 388.465 67.347 Z M 421.629 67.394 L 421.629 68.883 Q 421.343 69.02 420.813 69.115 A 7.276 7.276 0 0 1 420.697 69.134 Q 420.123 69.227 419.656 69.234 A 4.987 4.987 0 0 1 419.59 69.234 A 5.081 5.081 0 0 1 418.092 69.033 Q 416.447 68.525 416.016 66.737 A 6.115 6.115 0 0 1 415.863 65.308 L 415.863 57.668 L 414.023 57.668 L 414.023 56.73 L 415.863 55.922 L 416.684 53.179 L 417.809 53.179 L 417.809 56.156 L 421.535 56.156 L 421.535 57.668 L 417.809 57.668 L 417.809 65.226 Q 417.809 66.041 418.08 66.59 A 1.887 1.887 0 0 0 418.359 67.008 A 1.807 1.807 0 0 0 419.47 67.599 A 2.6 2.6 0 0 0 419.871 67.629 A 6.389 6.389 0 0 0 420.807 67.562 A 5.888 5.888 0 0 0 420.867 67.552 Q 421.326 67.48 421.603 67.402 A 2.926 2.926 0 0 0 421.629 67.394 Z M 430.102 67.394 L 430.102 68.883 Q 429.816 69.02 429.286 69.115 A 7.276 7.276 0 0 1 429.17 69.134 Q 428.595 69.227 428.128 69.234 A 4.987 4.987 0 0 1 428.062 69.234 A 5.081 5.081 0 0 1 426.565 69.033 Q 424.919 68.525 424.489 66.737 A 6.115 6.115 0 0 1 424.336 65.308 L 424.336 57.668 L 422.496 57.668 L 422.496 56.73 L 424.336 55.922 L 425.156 53.179 L 426.281 53.179 L 426.281 56.156 L 430.008 56.156 L 430.008 57.668 L 426.281 57.668 L 426.281 65.226 Q 426.281 66.041 426.553 66.59 A 1.887 1.887 0 0 0 426.832 67.008 A 1.807 1.807 0 0 0 427.943 67.599 A 2.6 2.6 0 0 0 428.344 67.629 A 6.389 6.389 0 0 0 429.28 67.562 A 5.888 5.888 0 0 0 429.34 67.552 Q 429.798 67.48 430.075 67.402 A 2.926 2.926 0 0 0 430.102 67.394 Z M 410.73 67.47 A 5.427 5.427 0 0 0 411.377 66.583 Q 412.312 64.982 412.312 62.566 Q 412.312 59.508 410.725 57.715 Q 409.137 55.922 406.441 55.922 A 7.555 7.555 0 0 0 405.084 56.038 A 5.145 5.145 0 0 0 402.082 57.674 Q 401.039 58.837 400.689 60.613 A 10.101 10.101 0 0 0 400.512 62.566 A 9.732 9.732 0 0 0 400.634 64.142 A 7.196 7.196 0 0 0 401.238 66.105 A 6.394 6.394 0 0 0 401.38 66.382 A 5.266 5.266 0 0 0 403.301 68.425 A 5.417 5.417 0 0 0 404.544 68.978 A 6.247 6.247 0 0 0 406.359 69.234 A 7.554 7.554 0 0 0 407.678 69.124 A 5.186 5.186 0 0 0 410.73 67.47 Z M 442.172 67.47 A 5.427 5.427 0 0 0 442.818 66.583 Q 443.754 64.982 443.754 62.566 Q 443.754 59.508 442.166 57.715 Q 440.578 55.922 437.883 55.922 A 7.555 7.555 0 0 0 436.526 56.038 A 5.145 5.145 0 0 0 433.523 57.674 Q 432.481 58.837 432.13 60.613 A 10.101 10.101 0 0 0 431.953 62.566 A 9.732 9.732 0 0 0 432.075 64.142 A 7.196 7.196 0 0 0 432.68 66.105 A 6.394 6.394 0 0 0 432.821 66.382 A 5.266 5.266 0 0 0 434.742 68.425 A 5.417 5.417 0 0 0 435.985 68.978 A 6.247 6.247 0 0 0 437.801 69.234 A 7.554 7.554 0 0 0 439.12 69.124 A 5.186 5.186 0 0 0 442.172 67.47 Z M 402.527 62.566 A 9.851 9.851 0 0 0 402.621 63.973 Q 402.724 64.688 402.942 65.266 A 4.081 4.081 0 0 0 403.512 66.316 A 3.188 3.188 0 0 0 405.588 67.539 A 4.831 4.831 0 0 0 406.406 67.605 A 4.518 4.518 0 0 0 407.598 67.457 A 3.145 3.145 0 0 0 409.307 66.322 Q 410.043 65.368 410.232 63.756 A 10.247 10.247 0 0 0 410.297 62.566 A 9.706 9.706 0 0 0 410.205 61.183 Q 410.103 60.479 409.889 59.908 A 4.005 4.005 0 0 0 409.307 58.845 A 3.2 3.2 0 0 0 407.317 57.658 A 4.906 4.906 0 0 0 406.383 57.574 A 4.63 4.63 0 0 0 405.23 57.709 A 3.098 3.098 0 0 0 403.5 58.828 Q 402.8 59.73 402.604 61.271 A 10.28 10.28 0 0 0 402.527 62.566 Z M 433.969 62.566 A 9.851 9.851 0 0 0 434.062 63.973 Q 434.166 64.688 434.383 65.266 A 4.081 4.081 0 0 0 434.953 66.316 A 3.188 3.188 0 0 0 437.03 67.539 A 4.831 4.831 0 0 0 437.848 67.605 A 4.518 4.518 0 0 0 439.04 67.457 A 3.145 3.145 0 0 0 440.748 66.322 Q 441.484 65.368 441.673 63.756 A 10.247 10.247 0 0 0 441.738 62.566 A 9.706 9.706 0 0 0 441.646 61.183 Q 441.545 60.479 441.331 59.908 A 4.005 4.005 0 0 0 440.748 58.845 A 3.2 3.2 0 0 0 438.758 57.658 A 4.906 4.906 0 0 0 437.824 57.574 A 4.63 4.63 0 0 0 436.672 57.709 A 3.098 3.098 0 0 0 434.941 58.828 Q 434.241 59.73 434.045 61.271 A 10.28 10.28 0 0 0 433.969 62.566 Z M 390.095 58.057 A 2.587 2.587 0 0 0 389.344 58.716 Q 388.465 59.859 388.465 62.566 A 12.862 12.862 0 0 0 388.528 63.895 Q 388.668 65.237 389.116 66.053 A 2.934 2.934 0 0 0 389.367 66.439 A 2.822 2.822 0 0 0 390.799 67.405 Q 391.437 67.605 392.262 67.605 A 3.878 3.878 0 0 0 393.363 67.458 A 2.798 2.798 0 0 0 394.934 66.299 A 4.466 4.466 0 0 0 395.486 65.103 Q 395.659 64.536 395.741 63.849 A 11.147 11.147 0 0 0 395.812 62.543 A 11.493 11.493 0 0 0 395.743 61.233 Q 395.565 59.689 394.934 58.804 A 2.837 2.837 0 0 0 393.127 57.661 A 4.499 4.499 0 0 0 392.215 57.574 Q 390.92 57.574 390.095 58.057 Z" id="bottom_labelLayer" stroke="#777777" fill="#777777" style="stroke:#777777;fill:#777777" vector-effect="non-scaling-stroke"/></g></svg>