0
SECTION
2
HEADER
9
$INSUNITS
70
4
0
ENDSEC
0
SECTION
2
TABLES
0
TABLE
2
LTYPE
0
LTYPE
72
65
70
64
2
CONTINUOUS
3
______
73
0
40
0
0
ENDTAB
0
TABLE
2
LAYER
0
ENDTAB
0
ENDSEC
0
SECTION
2
ENTITIES
0
LINE
8
front_outsideCutPath
10
0
20
53
11
0
21
35.5
0
LINE
8
front_outsideCutPath
10
0
20
35.5
11
5
21
35.5
0
LINE
8
front_outsideCutPath
10
5
20
35.5
11
5
21
20.5
0
LINE
8
front_outsideCutPath
10
5
20
20.5
11
0
21
20.5
0
LINE
8
front_outsideCutPath
10
0
20
20.5
11
0
21
5.5
0
LINE
8
front_outsideCutPath
10
0
20
5.5
11
0
21
3
0
LINE
8
front_outsideCutPath
10
0
20
3
11
17.5
21
3
0
LINE
8
front_outsideCutPath
10
17.5
20
3
11
17.5
21
8
0
LINE
8
front_outsideCutPath
10
17.5
20
8
11
32.5
21
8
0
LINE
8
front_outsideCutPath
10
32.5
20
8
11
32.5
21
3
0
LINE
8
front_outsideCutPath
10
32.5
20
3
11
47.5
21
3
0
LINE
8
front_outsideCutPath
10
47.5
20
3
11
47.5
21
8
0
LINE
8
front_outsideCutPath
10
47.5
20
8
11
62.5
21
8
0
LINE
8
front_outsideCutPath
10
62.5
20
8
11
62.5
21
3
0
LINE
8
front_outsideCutPath
10
62.5
20
3
11
77.5
21
3
0
LINE
8
front_outsideCutPath
10
77.5
20
3
11
77.5
21
8
0
LINE
8
front_outsideCutPath
10
77.5
20
8
11
92.5
21
8
0
LINE
8
front_outsideCutPath
10
92.5
20
8
11
92.5
21
3
0
LINE
8
front_outsideCutPath
10
92.5
20
3
11
107.5
21
3
0
LINE
8
front_outsideCutPath
10
107.5
20
3
11
107.5
21
8
0
LINE
8
front_outsideCutPath
10
107.5
20
8
11
122.5
21
8
0
LINE
8
front_outsideCutPath
10
122.5
20
8
11
122.5
21
3
0
LINE
8
front_outsideCutPath
10
122.5
20
3
11
137.5
21
3
0
LINE
8
front_outsideCutPath
10
137.5
20
3
11
137.5
21
8
0
LINE
8
front_outsideCutPath
10
137.5
20
8
11
152.5
21
8
0
LINE
8
front_outsideCutPath
10
152.5
20
8
11
152.5
21
3
0
LINE
8
front_outsideCutPath
10
152.5
20
3
11
167.5
21
3
0
LINE
8
front_outsideCutPath
10
167.5
20
3
11
167.5
21
8
0
LINE
8
front_outsideCutPath
10
167.5
20
8
11
182.5
21
8
0
LINE
8
front_outsideCutPath
10
182.5
20
8
11
182.5
21
3
0
LINE
8
front_outsideCutPath
10
182.5
20
3
11
200
21
3
0
LINE
8
front_outsideCutPath
10
200
20
3
11
200
21
20.5
0
LINE
8
front_outsideCutPath
10
200
20
20.5
11
195
21
20.5
0
LINE
8
front_outsideCutPath
10
195
20
20.5
11
195
21
35.5
0
LINE
8
front_outsideCutPath
10
195
20
35.5
11
200
21
35.5
0
LINE
8
front_outsideCutPath
10
200
20
35.5
11
200
21
50.5
0
LINE
8
front_outsideCutPath
10
200
20
50.5
11
200
21
53
0
LINE
8
front_outsideCutPath
10
200
20
53
11
182.5
21
53
0
LINE
8
front_outsideCutPath
10
182.5
20
53
11
182.5
21
48
0
LINE
8
front_outsideCutPath
10
182.5
20
48
11
167.5
21
48
0
LINE
8
front_outsideCutPath
10
167.5
20
48
11
167.5
21
53
0
LINE
8
front_outsideCutPath
10
167.5
20
53
11
152.5
21
53
0
LINE
8
front_outsideCutPath
10
152.5
20
53
11
152.5
21
48
0
LINE
8
front_outsideCutPath
10
152.5
20
48
11
137.5
21
48
0
LINE
8
front_outsideCutPath
10
137.5
20
48
11
137.5
21
53
0
LINE
8
front_outsideCutPath
10
137.5
20
53
11
122.5
21
53
0
LINE
8
front_outsideCutPath
10
122.5
20
53
11
122.5
21
48
0
LINE
8
front_outsideCutPath
10
122.5
20
48
11
107.5
21
48
0
LINE
8
front_outsideCutPath
10
107.5
20
48
11
107.5
21
53
0
LINE
8
front_outsideCutPath
10
107.5
20
53
11
92.5
21
53
0
LINE
8
front_outsideCutPath
10
92.5
20
53
11
92.5
21
48
0
LINE
8
front_outsideCutPath
10
92.5
20
48
11
77.5
21
48
0
LINE
8
front_outsideCutPath
10
77.5
20
48
11
77.5
21
53
0
LINE
8
front_outsideCutPath
10
77.5
20
53
11
62.5
21
53
0
LINE
8
front_outsideCutPath
10
62.5
20
53
11
62.5
21
48
0
LINE
8
front_outsideCutPath
10
62.5
20
48
11
47.5
21
48
0
LINE
8
front_outsideCutPath
10
47.5
20
48
11
47.5
21
53
0
LINE
8
front_outsideCutPath
10
47.5
20
53
11
32.5
21
53
0
LINE
8
front_outsideCutPath
10
32.5
20
53
11
32.5
21
48
0
LINE
8
front_outsideCutPath
10
32.5
20
48
11
17.5
21
48
0
LINE
8
front_outsideCutPath
10
17.5
20
48
11
17.5
21
53
0
LINE
8
front_outsideCutPath
10
17.5
20
53
11
0
21
53
0
LINE
8
front_labelLayer
10
91.7163086
20
29.5748129
11
91.7163086
21
28.9449301
0
LINE
8
front_labelLayer
10
91.7163086
20
28.9449301
11
90.3540039
21
28.9449301
0
LINE
8
front_labelLayer
10
90.3540039
20
28.9449301
11
90.3540039
21
24.2232504
0
LINE
8
front_labelLayer
10
90.3540039
20
24.2232504
11
89.543457
21
24.2232504
0
LINE
8
front_labelLayer
10
89.543457
20
24.2232504
11
89.543457
21
28.9449301
0
LINE
8
front_labelLayer
10
89.543457
20
28.9449301
11
88.5864258
21
28.9449301
0
LINE
8
front_labelLayer
10
88.5864258
20
28.9449301
11
88.5864258
21
29.311141
0
LINE
8
front_labelLayer
10
88.5864258
20
29.311141
11
89.543457
21
29.6041098
0
LINE
8
front_labelLayer
10
89.543457
20
29.6041098
11
89.543457
21
29.9019614
0
LINE
8
front_labelLayer
10
92.2631836
20
31.7037192
11
92.0532226
21
31.0543051
0
LINE
8
front_labelLayer
10
90.3540039
20
29.9214926
11
90.3540039
21
29.5748129
0
LINE
8
front_labelLayer
10
90.3540039
20
29.5748129
11
91.7163086
21
29.5748129
0
ARC
8
front_labelLayer
10
92.828322
20
29.939725
40
3.285082
50
167.5775892
51
180.6586577
0
ARC
8
front_labelLayer
10
91.2835691
20
30.2998718
40
1.6991319
50
141.7433917
51
168.232189
0
ARC
8
front_labelLayer
10
91.0320503
20
30.4311461
40
1.4213206
50
98.255136
51
139.6203348
0
ARC
8
front_labelLayer
10
91.2528857
20
29.4109783
40
2.4636802
50
89.6696635
51
99.9314504
0
ARC
8
front_labelLayer
10
91.2535027
20
29.264495
40
2.610158
50
81.5641231
51
89.701747
0
ARC
8
front_labelLayer
10
91.0699983
20
27.9842919
40
3.9034356
50
75.9739991
51
81.6564478
0
ARC
8
front_labelLayer
10
90.7551103
20
26.6781916
40
5.2469243
50
73.2964152
51
76.0946585
0
ARC
8
front_labelLayer
10
90.8344284
20
27.3118484
40
3.9359169
50
71.961285
51
76.5918679
0
ARC
8
front_labelLayer
10
91.1397745
20
28.6071788
40
2.6050899
50
76.5182849
51
83.0217313
0
ARC
8
front_labelLayer
10
91.2461323
20
29.4625096
40
1.7431743
50
83.0760752
51
89.7926296
0
ARC
8
front_labelLayer
10
91.2426335
20
30.1126096
40
1.0931067
50
89.4859089
51
103.4197839
0
ARC
8
front_labelLayer
10
91.1440821
20
30.4912314
40
0.7019962
50
102.7677549
51
144.3380548
0
ARC
8
front_labelLayer
10
91.3426298
20
30.3634847
40
0.9378635
50
145.0689248
51
162.1800984
0
ARC
8
front_labelLayer
10
92.0233462
20
30.1344587
40
1.6560377
50
161.8437649
51
171.7847361
0
ARC
8
front_labelLayer
10
93.1335895
20
29.9677
40
2.7787239
50
171.6527324
51
178.4384106
0
ARC
8
front_labelLayer
10
94.180987
20
29.9230402
40
3.8269834
50
178.1973669
51
180.0231697
0
LINE
8
front_labelLayer
10
95.7739258
20
29.6138754
11
95.6616211
21
28.8619223
0
LINE
8
front_labelLayer
10
93.503418
20
27.0943442
11
93.503418
21
24.2232504
0
LINE
8
front_labelLayer
10
93.503418
20
24.2232504
11
92.6928711
21
24.2232504
0
LINE
8
front_labelLayer
10
92.6928711
20
24.2232504
11
92.6928711
21
29.5748129
0
LINE
8
front_labelLayer
10
92.6928711
20
29.5748129
11
93.3618164
21
29.5748129
0
LINE
8
front_labelLayer
10
93.3618164
20
29.5748129
11
93.4545898
21
28.583602
0
LINE
8
front_labelLayer
10
93.4545898
20
28.583602
11
93.4936523
21
28.583602
0
ARC
8
front_labelLayer
10
95.1425948
20
25.9513219
40
3.7211565
50
84.9923433
51
90.1280672
0
ARC
8
front_labelLayer
10
95.2319563
20
26.9525797
40
2.7159207
50
78.4891938
51
85.0265557
0
ARC
8
front_labelLayer
10
94.885096
20
25.3749623
40
3.5723775
50
77.4454351
51
81.6359953
0
ARC
8
front_labelLayer
10
95.0407473
20
26.447817
40
2.4882934
50
81.5884875
51
87.1916305
0
ARC
8
front_labelLayer
10
95.0745548
20
27.033981
40
1.9011837
50
87.3437419
51
89.965981
0
ARC
8
front_labelLayer
10
95.0667008
20
27.5307558
40
1.4044375
50
89.633532
51
137.0880858
0
ARC
8
front_labelLayer
10
95.4115111
20
27.143033
40
1.9215969
50
135.6210457
51
138.8375526
0
ARC
8
front_labelLayer
10
95.3608699
20
27.1924573
40
1.850945
50
138.957565
51
174.5422151
0
ARC
8
front_labelLayer
10
95.9636682
20
27.0981348
40
2.4602532
50
173.6907228
51
180.0882791
0
ARC
8
front_labelLayer
10
95.8784497
20
27.240019
40
2.7372383
50
139.4139286
51
150.6033063
0
ARC
8
front_labelLayer
10
95.3876584
20
27.6605776
40
2.0909058
50
124.2321186
51
139.4161439
0
ARC
8
front_labelLayer
10
95.1252435
20
28.0566943
40
1.6158002
50
89.6796607
51
124.4405755
0
ARC
8
front_labelLayer
10
97.2073402
20
26.875689
40
4.1867979
50
349.1761703
51
0.3862653
0
ARC
8
front_labelLayer
10
98.6169327
20
26.5946818
40
2.7495362
50
330.2507007
51
349.4116588
0
ARC
8
front_labelLayer
10
99.0507347
20
26.3692073
40
2.2611094
50
318.1439898
51
329.7566466
0
ARC
8
front_labelLayer
10
99.1290293
20
26.3064622
40
2.1609332
50
278.8959126
51
317.9979246
0
ARC
8
front_labelLayer
10
98.9272927
20
27.27299
40
3.1474257
50
269.7502681
51
279.8033505
0
ARC
8
front_labelLayer
10
98.8945732
20
26.7284154
40
2.6028906
50
253.5436891
51
270.4182599
0
ARC
8
front_labelLayer
10
98.8079263
20
26.3932481
40
2.2569384
50
238.8115406
51
253.2428565
0
ARC
8
front_labelLayer
10
98.7799656
20
26.3370192
40
2.1943629
50
207.7947077
51
238.6757957
0
ARC
8
front_labelLayer
10
99.1812792
20
26.5827956
40
2.6641534
50
205.6559998
51
208.4460407
0
ARC
8
front_labelLayer
10
99.490288
20
26.7115453
40
2.998494
50
188.9102447
51
205.3171267
0
ARC
8
front_labelLayer
10
100.5318599
20
26.8879548
40
4.0548407
50
179.7744861
51
189.0932968
0
ARC
8
front_labelLayer
10
100.6855052
20
26.9324197
40
4.2085509
50
169.244298
51
180.388077
0
ARC
8
front_labelLayer
10
99.2563151
20
27.2149185
40
2.7517699
50
150.7111548
51
169.4695403
0
ARC
8
front_labelLayer
10
98.8000686
20
27.4492179
40
2.2393051
50
138.1759271
51
150.2287439
0
ARC
8
front_labelLayer
10
98.724179
20
27.5074548
40
2.1439295
50
99.1759269
51
137.9832757
0
ARC
8
front_labelLayer
10
98.9330648
20
26.5244078
40
3.1480957
50
89.7326552
51
100.075957
0
ARC
8
front_labelLayer
10
98.9748118
20
26.9489552
40
2.7236484
50
73.5222921
51
90.5692101
0
ARC
8
front_labelLayer
10
99.1345376
20
27.5292855
40
2.121878
50
41.1445648
51
73.213376
0
ARC
8
front_labelLayer
10
98.8296335
20
27.2672252
40
2.5239143
50
13.5014371
51
41.0703286
0
ARC
8
front_labelLayer
10
97.6516558
20
26.9589628
40
3.7413892
50
1.1277007
51
13.8800198
0
ARC
8
front_labelLayer
10
96.637546
20
26.9045942
40
4.756497
50
359.9918119
51
1.5420744
0
ARC
8
front_labelLayer
10
101.4214349
20
26.8828501
40
4.1045945
50
179.7059623
51
187.9160759
0
ARC
8
front_labelLayer
10
99.9159878
20
26.6665932
40
2.5837186
50
187.7639004
51
200.0977067
0
ARC
8
front_labelLayer
10
99.0866532
20
26.3627221
40
1.700467
50
200.0845636
51
216.9131841
0
ARC
8
front_labelLayer
10
98.7838126
20
26.1464798
40
1.3284862
50
217.3009787
51
261.7098938
0
ARC
8
front_labelLayer
10
98.9244044
20
26.8173734
40
2.0130872
50
260.5033228
51
270.2476468
0
ARC
8
front_labelLayer
10
98.9512374
20
26.6869096
40
1.8826918
50
269.4481854
51
284.725594
0
ARC
8
front_labelLayer
10
99.1002797
20
26.1341633
40
1.310221
50
284.5662271
51
322.6333666
0
ARC
8
front_labelLayer
10
98.75181
20
26.3859157
40
1.7400027
50
323.0089514
51
342.639042
0
ARC
8
front_labelLayer
10
97.7551269
20
26.7116603
40
2.7885127
50
342.3615691
51
353.7537767
0
ARC
8
front_labelLayer
10
96.2846887
20
26.8889052
40
4.269537
50
353.5362835
51
0.2014196
0
ARC
8
front_labelLayer
10
96.509957
20
26.9245563
40
4.0442949
50
359.7075649
51
7.8972524
0
ARC
8
front_labelLayer
10
97.9910919
20
27.1368888
40
2.5480422
50
7.7440038
51
20.069008
0
ARC
8
front_labelLayer
10
98.8164407
20
27.4397601
40
1.6688782
50
20.0257107
51
37.4350558
0
ARC
8
front_labelLayer
10
99.0902839
20
27.6340759
40
1.3333734
50
37.9577466
51
80.400635
0
ARC
8
front_labelLayer
10
98.9346664
20
26.939721
40
2.0443029
50
79.345373
51
90.3174511
0
ARC
8
front_labelLayer
10
98.905853
20
27.0550614
40
1.9290105
50
89.4805959
51
103.8804818
0
ARC
8
front_labelLayer
10
98.7437666
20
27.6722893
40
1.2909559
50
103.4685247
51
142.3118945
0
ARC
8
front_labelLayer
10
99.0588749
20
27.4506825
40
1.6758882
50
142.902573
51
162.374969
0
ARC
8
front_labelLayer
10
100.0517729
20
27.1198003
40
2.7224045
50
162.0652912
51
173.1675107
0
ARC
8
front_labelLayer
10
101.6000169
20
26.9223314
40
4.283162
50
173.0086384
51
180.2463635
0
LINE
8
front_labelLayer
10
107.2875976
20
24.2232504
11
106.4770508
21
24.2232504
0
LINE
8
front_labelLayer
10
106.4770508
20
24.2232504
11
106.4770508
21
27.6851645
0
LINE
8
front_labelLayer
10
103.6254883
20
27.0308676
11
103.6254883
21
24.2232504
0
LINE
8
front_labelLayer
10
103.6254883
20
24.2232504
11
102.8149414
21
24.2232504
0
LINE
8
front_labelLayer
10
102.8149414
20
24.2232504
11
102.8149414
21
29.5748129
0
LINE
8
front_labelLayer
10
102.8149414
20
29.5748129
11
103.4741211
21
29.5748129
0
LINE
8
front_labelLayer
10
103.4741211
20
29.5748129
11
103.605957
21
28.842391
0
LINE
8
front_labelLayer
10
103.605957
20
28.842391
11
103.6450195
21
28.842391
0
LINE
8
front_labelLayer
10
107.2875976
20
27.7144614
11
107.2875976
21
24.2232504
0
ARC
8
front_labelLayer
10
104.1858881
20
27.6983044
40
2.2912003
50
359.6714086
51
8.6877673
0
ARC
8
front_labelLayer
10
105.0350604
20
27.8329793
40
1.4314371
50
8.4931437
51
22.6579514
0
ARC
8
front_labelLayer
10
105.4665068
20
28.0122731
40
0.9642203
50
22.7024886
51
42.3419129
0
ARC
8
front_labelLayer
10
105.5150083
20
28.0340922
40
0.9138243
50
43.3790738
51
71.5386345
0
ARC
8
front_labelLayer
10
105.3336549
20
27.5273436
40
1.4519687
50
71.0828229
51
84.3691283
0
ARC
8
front_labelLayer
10
105.2522474
20
26.8351803
40
2.1488197
50
84.0198256
51
90.1510621
0
ARC
8
front_labelLayer
10
105.2291705
20
26.5308938
40
2.4531606
50
89.5933355
51
100.3717785
0
ARC
8
front_labelLayer
10
105.0558073
20
27.440476
40
1.5272445
50
100.1176387
51
118.1602405
0
ARC
8
front_labelLayer
10
104.8811003
20
27.783062
40
1.1427844
50
118.5439234
51
139.1927042
0
ARC
8
front_labelLayer
10
105.0334349
20
27.6808429
40
1.3250759
50
140.1519078
51
160.3146426
0
ARC
8
front_labelLayer
10
105.9533115
20
27.3362948
40
2.3073003
50
159.9534071
51
171.380153
0
ARC
8
front_labelLayer
10
107.4559917
20
27.0947419
40
3.8292346
50
171.1765697
51
178.3217353
0
ARC
8
front_labelLayer
10
108.8180472
20
27.0330173
40
5.1925592
50
178.0811052
51
180.0237197
0
ARC
8
front_labelLayer
10
105.0315834
20
27.9642341
40
1.6412553
50
116.944286
51
147.6525618
0
ARC
8
front_labelLayer
10
105.2026086
20
27.6781262
40
1.9739331
50
115.8074113
51
117.6066126
0
ARC
8
front_labelLayer
10
105.289752
20
27.4748696
40
2.1948779
50
94.3226558
51
115.5454447
0
ARC
8
front_labelLayer
10
105.3422849
20
27.0184579
40
2.6540119
50
89.9578303
51
94.7108686
0
ARC
8
front_labelLayer
10
105.3640007
20
26.4723607
40
3.2001695
50
80.5585147
51
90.3538292
0
ARC
8
front_labelLayer
10
105.5639928
20
27.6307798
40
2.0246491
50
65.1094227
51
80.7638395
0
ARC
8
front_labelLayer
10
105.7977724
20
28.1485949
40
1.4565492
50
46.5584459
51
64.8782446
0
ARC
8
front_labelLayer
10
105.8164812
20
28.2025329
40
1.4047183
50
19.3848961
51
45.5996984
0
ARC
8
front_labelLayer
10
105.0038103
20
27.8976041
40
2.2725993
50
6.9633804
51
19.83636
0
ARC
8
front_labelLayer
10
103.7503937
20
27.7290835
40
3.537234
50
359.7631516
51
7.211528
0
LINE
8
front_labelLayer
10
111.4135742
20
24.8921957
11
111.4135742
21
24.2720785
0
LINE
8
front_labelLayer
10
109.0112305
20
25.7613364
11
109.0112305
21
28.9449301
0
LINE
8
front_labelLayer
10
109.0112305
20
28.9449301
11
108.2446289
21
28.9449301
0
LINE
8
front_labelLayer
10
108.2446289
20
28.9449301
11
108.2446289
21
29.3355551
0
LINE
8
front_labelLayer
10
108.2446289
20
29.3355551
11
109.0112305
21
29.6724692
0
LINE
8
front_labelLayer
10
109.0112305
20
29.6724692
11
109.3530273
21
30.8150473
0
LINE
8
front_labelLayer
10
109.3530273
20
30.8150473
11
109.8217773
21
30.8150473
0
LINE
8
front_labelLayer
10
109.8217773
20
30.8150473
11
109.8217773
21
29.5748129
0
LINE
8
front_labelLayer
10
109.8217773
20
29.5748129
11
111.3745117
21
29.5748129
0
LINE
8
front_labelLayer
10
111.3745117
20
29.5748129
11
111.3745117
21
28.9449301
0
LINE
8
front_labelLayer
10
111.3745117
20
28.9449301
11
109.8217773
21
28.9449301
0
LINE
8
front_labelLayer
10
109.8217773
20
28.9449301
11
109.8217773
21
25.795516
0
ARC
8
front_labelLayer
10
110.6867097
20
27.456497
40
2.6619633
50
269.8803835
51
278.3028088
0
ARC
8
front_labelLayer
10
110.7121046
20
27.2491691
40
2.4531461
50
278.4151604
51
279.0078082
0
ARC
8
front_labelLayer
10
110.4133448
20
29.1576634
40
4.3848809
50
278.9589926
51
280.5103845
0
ARC
8
front_labelLayer
10
110.698027
20
27.6301557
40
2.8310723
50
280.4847341
51
282.6268196
0
ARC
8
front_labelLayer
10
110.9476286
20
26.5212287
40
1.6944027
50
282.5878181
51
285.5794248
0
ARC
8
front_labelLayer
10
111.0731544
20
26.0596279
40
1.2160524
50
285.723602
51
286.256529
0
ARC
8
front_labelLayer
10
111.0727887
20
24.992861
40
0.7972842
50
287.9889939
51
295.3047539
0
ARC
8
front_labelLayer
10
110.8804943
20
25.5746567
40
1.41003
50
283.3069857
51
288.1196685
0
ARC
8
front_labelLayer
10
110.6773638
20
26.4219845
40
2.2813636
50
280.0070297
51
283.3735028
0
ARC
8
front_labelLayer
10
110.5411715
20
27.1611895
40
3.0329939
50
279.1866132
51
280.1141291
0
ARC
8
front_labelLayer
10
110.4580056
20
27.6342363
40
3.5132568
50
275.5261107
51
279.2938742
0
ARC
8
front_labelLayer
10
110.5520369
20
26.652159
40
2.5266888
50
270.893275
51
275.5483136
0
ARC
8
front_labelLayer
10
110.5638354
20
26.2058131
40
2.080219
50
270.0035655
51
270.760006
0
ARC
8
front_labelLayer
10
110.5312563
20
26.2423721
40
2.1170306
50
253.7848147
51
270.8852671
0
ARC
8
front_labelLayer
10
110.2804449
20
25.3870076
40
1.2256562
50
190.3817547
51
253.8772429
0
ARC
8
front_labelLayer
10
111.5588228
20
25.7326593
40
2.5477537
50
179.355076
51
192.8477713
0
ARC
8
front_labelLayer
10
111.4539125
20
25.7853069
40
1.6321671
50
179.6416142
51
189.7505826
0
ARC
8
front_labelLayer
10
110.8777221
20
25.6825356
40
1.0469013
50
189.5478993
51
205.7874295
0
ARC
8
front_labelLayer
10
110.6409389
20
25.5733464
40
0.7862115
50
206.1294529
51
221.4084401
0
ARC
8
front_labelLayer
10
110.6143906
20
25.553202
40
0.75298
50
221.5949468
51
262.3504817
0
ARC
8
front_labelLayer
10
110.6775337
20
25.8779055
40
1.083372
50
261.3266007
51
270.1913759
0
LINE
8
left_outsideCutPath
10
208
20
53
11
208
21
35.5
0
LINE
8
left_outsideCutPath
10
208
20
35.5
11
203
21
35.5
0
LINE
8
left_outsideCutPath
10
203
20
35.5
11
203
21
20.5
0
LINE
8
left_outsideCutPath
10
203
20
20.5
11
208
21
20.5
0
LINE
8
left_outsideCutPath
10
208
20
20.5
11
208
21
5.5
0
LINE
8
left_outsideCutPath
10
208
20
5.5
11
208
21
3
0
LINE
8
left_outsideCutPath
10
208
20
3
11
225.5
21
3
0
LINE
8
left_outsideCutPath
10
225.5
20
3
11
225.5
21
8
0
LINE
8
left_outsideCutPath
10
225.5
20
8
11
240.5
21
8
0
LINE
8
left_outsideCutPath
10
240.5
20
8
11
240.5
21
3
0
LINE
8
left_outsideCutPath
10
240.5
20
3
11
255.5
21
3
0
LINE
8
left_outsideCutPath
10
255.5
20
3
11
255.5
21
8
0
LINE
8
left_outsideCutPath
10
255.5
20
8
11
270.5
21
8
0
LINE
8
left_outsideCutPath
10
270.5
20
8
11
270.5
21
3
0
LINE
8
left_outsideCutPath
10
270.5
20
3
11
285.5
21
3
0
LINE
8
left_outsideCutPath
10
285.5
20
3
11
285.5
21
8
0
LINE
8
left_outsideCutPath
10
285.5
20
8
11
300.5
21
8
0
LINE
8
left_outsideCutPath
10
300.5
20
8
11
300.5
21
3
0
LINE
8
left_outsideCutPath
10
300.5
20
3
11
315.5
21
3
0
LINE
8
left_outsideCutPath
10
315.5
20
3
11
318
21
3
0
LINE
8
left_outsideCutPath
10
318
20
3
11
318
21
20.5
0
LINE
8
left_outsideCutPath
10
318
20
20.5
11
323
21
20.5
0
LINE
8
left_outsideCutPath
10
323
20
20.5
11
323
21
35.5
0
LINE
8
left_outsideCutPath
10
323
20
35.5
11
318
21
35.5
0
LINE
8
left_outsideCutPath
10
318
20
35.5
11
318
21
50.5
0
LINE
8
left_outsideCutPath
10
318
20
50.5
11
318
21
53
0
LINE
8
left_outsideCutPath
10
318
20
53
11
300.5
21
53
0
LINE
8
left_outsideCutPath
10
300.5
20
53
11
300.5
21
48
0
LINE
8
left_outsideCutPath
10
300.5
20
48
11
285.5
21
48
0
LINE
8
left_outsideCutPath
10
285.5
20
48
11
285.5
21
53
0
LINE
8
left_outsideCutPath
10
285.5
20
53
11
270.5
21
53
0
LINE
8
left_outsideCutPath
10
270.5
20
53
11
270.5
21
48
0
LINE
8
left_outsideCutPath
10
270.5
20
48
11
255.5
21
48
0
LINE
8
left_outsideCutPath
10
255.5
20
48
11
255.5
21
53
0
LINE
8
left_outsideCutPath
10
255.5
20
53
11
240.5
21
53
0
LINE
8
left_outsideCutPath
10
240.5
20
53
11
240.5
21
48
0
LINE
8
left_outsideCutPath
10
240.5
20
48
11
225.5
21
48
0
LINE
8
left_outsideCutPath
10
225.5
20
48
11
225.5
21
53
0
LINE
8
left_outsideCutPath
10
225.5
20
53
11
210.5
21
53
0
LINE
8
left_outsideCutPath
10
210.5
20
53
11
208
21
53
0
LINE
8
left_labelLayer
10
256.815918
20
31.8209067
11
256.815918
21
24.2232504
0
LINE
8
left_labelLayer
10
256.815918
20
24.2232504
11
256.0053711
21
24.2232504
0
LINE
8
left_labelLayer
10
256.0053711
20
24.2232504
11
256.0053711
21
31.8209067
0
LINE
8
left_labelLayer
10
256.0053711
20
31.8209067
11
256.815918
21
31.8209067
0
LINE
8
left_labelLayer
10
262.7631836
20
27.2652426
11
262.7631836
21
26.7525473
0
LINE
8
left_labelLayer
10
262.7631836
20
26.7525473
11
259.0766601
21
26.7525473
0
LINE
8
left_labelLayer
10
262.5336914
20
25.1949301
11
262.5336914
21
24.4722739
0
LINE
8
left_labelLayer
10
259.0961914
20
27.411727
11
261.894043
21
27.411727
0
ARC
8
left_labelLayer
10
260.7687579
20
27.2752199
40
3.1497385
50
256.0087652
51
270.4848281
0
ARC
8
left_labelLayer
10
260.5393946
20
26.384792
40
2.2302852
50
223.5465791
51
256.195708
0
ARC
8
left_labelLayer
10
260.665924
20
26.4767555
40
2.3854413
50
194.0877272
51
223.0538182
0
ARC
8
left_labelLayer
10
261.8252762
20
26.7937951
40
3.587184
50
181.3574437
51
194.4919859
0
ARC
8
left_labelLayer
10
262.8664692
20
26.8541744
40
4.629653
50
179.9887134
51
181.7992254
0
ARC
8
left_labelLayer
10
262.4928822
20
26.8836378
40
4.2561616
50
168.9539344
51
180.3843577
0
ARC
8
left_labelLayer
10
261.1028429
20
27.166673
40
2.8376689
50
149.4071114
51
169.1853767
0
ARC
8
left_labelLayer
10
260.7155708
20
27.3712855
40
2.4002601
50
140.1056357
51
148.9066666
0
ARC
8
left_labelLayer
10
260.4776142
20
27.590667
40
2.0770468
50
92.4762714
51
140.5386308
0
ARC
8
left_labelLayer
10
260.5836369
20
26.8071289
40
2.8653406
50
89.96376
51
93.9175528
0
ARC
8
left_labelLayer
10
260.6089379
20
27.2031546
40
2.4694263
50
74.2125798
51
90.5449944
0
ARC
8
left_labelLayer
10
260.763607
20
27.7730189
40
1.8789883
50
41.2064633
51
74.0232864
0
ARC
8
left_labelLayer
10
260.4706965
20
27.5195259
40
2.2663524
50
11.599414
51
41.1496103
0
ARC
8
left_labelLayer
10
259.4642621
20
27.2874218
40
3.2989962
50
359.6147974
51
12.0336487
0
ARC
8
left_labelLayer
10
262.3292509
20
26.8175393
40
3.25324
50
181.1447089
51
190.800699
0
ARC
8
left_labelLayer
10
261.1815414
20
26.5911797
40
2.0834566
50
190.6005912
51
206.0275389
0
ARC
8
left_labelLayer
10
260.6737625
20
26.3511252
40
1.5218552
50
206.2950727
51
222.5557632
0
ARC
8
left_labelLayer
10
260.628762
20
26.3275627
40
1.4728295
50
223.0645106
51
258.1401451
0
ARC
8
left_labelLayer
10
260.807884
20
27.0651203
40
2.2315817
50
257.5312118
51
270.4319336
0
ARC
8
left_labelLayer
10
260.8098834
20
29.1145199
40
4.2809436
50
270.1983989
51
292.2090463
0
ARC
8
left_labelLayer
10
260.6045334
20
29.7043609
40
4.9047545
50
291.8254524
51
293.1614913
0
ARC
8
left_labelLayer
10
260.5944649
20
28.9351319
40
4.8659738
50
287.9023001
51
293.4861849
0
ARC
8
left_labelLayer
10
260.9474516
20
27.8460377
40
3.7211051
50
281.99355
51
287.8851486
0
ARC
8
left_labelLayer
10
261.0329959
20
27.5385679
40
3.4026284
50
275.9054221
51
281.6604084
0
ARC
8
left_labelLayer
10
260.8617346
20
29.137127
40
5.0103281
50
271.9119672
51
275.972686
0
ARC
8
left_labelLayer
10
260.7992173
20
30.7295538
40
6.6039607
50
269.966969
51
271.9931119
0
ARC
8
left_labelLayer
10
260.5601303
20
27.3960511
40
1.5977828
50
89.4422579
51
106.2089208
0
ARC
8
left_labelLayer
10
260.4640053
20
27.7465408
40
1.2344049
50
106.4656857
51
137.9176636
0
ARC
8
left_labelLayer
10
260.739596
20
27.5045248
40
1.6011503
50
138.0994559
51
160.5866126
0
ARC
8
left_labelLayer
10
261.4479867
20
27.2439186
40
2.3559085
50
160.3353019
51
172.531556
0
ARC
8
left_labelLayer
10
262.1455742
20
27.1321487
40
3.0621723
50
172.1545454
51
174.7615643
0
ARC
8
left_labelLayer
10
259.1320443
20
27.4274185
40
2.7620433
50
359.674493
51
8.9224697
0
ARC
8
left_labelLayer
10
260.1189732
20
27.5882237
40
1.762126
50
8.7342472
51
23.2771776
0
ARC
8
left_labelLayer
10
260.5875172
20
27.7849059
40
1.2540029
50
23.4821471
51
39.7071776
0
ARC
8
left_labelLayer
10
260.7026094
20
27.8710316
40
1.1104613
50
40.0822914
51
80.6243083
0
ARC
8
left_labelLayer
10
260.5841432
20
27.3279835
40
1.6657964
50
79.6468421
51
90.2909746
0
LINE
8
left_labelLayer
10
266.5571289
20
29.5748129
11
266.5571289
21
28.9449301
0
LINE
8
left_labelLayer
10
266.5571289
20
28.9449301
11
265.1948242
21
28.9449301
0
LINE
8
left_labelLayer
10
265.1948242
20
28.9449301
11
265.1948242
21
24.2232504
0
LINE
8
left_labelLayer
10
265.1948242
20
24.2232504
11
264.3842773
21
24.2232504
0
LINE
8
left_labelLayer
10
264.3842773
20
24.2232504
11
264.3842773
21
28.9449301
0
LINE
8
left_labelLayer
10
264.3842773
20
28.9449301
11
263.4272461
21
28.9449301
0
LINE
8
left_labelLayer
10
263.4272461
20
28.9449301
11
263.4272461
21
29.311141
0
LINE
8
left_labelLayer
10
263.4272461
20
29.311141
11
264.3842773
21
29.6041098
0
LINE
8
left_labelLayer
10
264.3842773
20
29.6041098
11
264.3842773
21
29.9019614
0
LINE
8
left_labelLayer
10
267.1040039
20
31.7037192
11
266.894043
21
31.0543051
0
LINE
8
left_labelLayer
10
265.1948242
20
29.9214926
11
265.1948242
21
29.5748129
0
LINE
8
left_labelLayer
10
265.1948242
20
29.5748129
11
266.5571289
21
29.5748129
0
ARC
8
left_labelLayer
10
267.6691423
20
29.939725
40
3.285082
50
167.5775892
51
180.6586577
0
ARC
8
left_labelLayer
10
266.1243895
20
30.2998718
40
1.6991319
50
141.7433917
51
168.232189
0
ARC
8
left_labelLayer
10
265.8728706
20
30.4311461
40
1.4213206
50
98.255136
51
139.6203348
0
ARC
8
left_labelLayer
10
266.093706
20
29.4109783
40
2.4636802
50
89.6696635
51
99.9314504
0
ARC
8
left_labelLayer
10
266.094323
20
29.264495
40
2.610158
50
81.5641231
51
89.701747
0
ARC
8
left_labelLayer
10
265.9108186
20
27.9842919
40
3.9034356
50
75.9739991
51
81.6564478
0
ARC
8
left_labelLayer
10
265.5959306
20
26.6781916
40
5.2469243
50
73.2964152
51
76.0946585
0
ARC
8
left_labelLayer
10
265.6752487
20
27.3118484
40
3.9359169
50
71.961285
51
76.5918679
0
ARC
8
left_labelLayer
10
265.9805948
20
28.6071788
40
2.6050899
50
76.5182849
51
83.0217313
0
ARC
8
left_labelLayer
10
266.0869527
20
29.4625096
40
1.7431743
50
83.0760752
51
89.7926296
0
ARC
8
left_labelLayer
10
266.0834539
20
30.1126096
40
1.0931067
50
89.4859089
51
103.4197839
0
ARC
8
left_labelLayer
10
265.9849024
20
30.4912314
40
0.7019962
50
102.7677549
51
144.3380548
0
ARC
8
left_labelLayer
10
266.1834501
20
30.3634847
40
0.9378635
50
145.0689248
51
162.1800984
0
ARC
8
left_labelLayer
10
266.8641665
20
30.1344587
40
1.6560377
50
161.8437649
51
171.7847361
0
ARC
8
left_labelLayer
10
267.9744098
20
29.9677
40
2.7787239
50
171.6527324
51
178.4384106
0
ARC
8
left_labelLayer
10
269.0218073
20
29.9230402
40
3.8269834
50
178.1973669
51
180.0231697
0
LINE
8
left_labelLayer
10
269.9946289
20
24.8921957
11
269.9946289
21
24.2720785
0
LINE
8
left_labelLayer
10
267.5922851
20
25.7613364
11
267.5922851
21
28.9449301
0
LINE
8
left_labelLayer
10
267.5922851
20
28.9449301
11
266.8256836
21
28.9449301
0
LINE
8
left_labelLayer
10
266.8256836
20
28.9449301
11
266.8256836
21
29.3355551
0
LINE
8
left_labelLayer
10
266.8256836
20
29.3355551
11
267.5922851
21
29.6724692
0
LINE
8
left_labelLayer
10
267.5922851
20
29.6724692
11
267.934082
21
30.8150473
0
LINE
8
left_labelLayer
10
267.934082
20
30.8150473
11
268.402832
21
30.8150473
0
LINE
8
left_labelLayer
10
268.402832
20
30.8150473
11
268.402832
21
29.5748129
0
LINE
8
left_labelLayer
10
268.402832
20
29.5748129
11
269.9555664
21
29.5748129
0
LINE
8
left_labelLayer
10
269.9555664
20
29.5748129
11
269.9555664
21
28.9449301
0
LINE
8
left_labelLayer
10
269.9555664
20
28.9449301
11
268.402832
21
28.9449301
0
LINE
8
left_labelLayer
10
268.402832
20
28.9449301
11
268.402832
21
25.795516
0
ARC
8
left_labelLayer
10
269.2677644
20
27.456497
40
2.6619633
50
269.8803835
51
278.3028088
0
ARC
8
left_labelLayer
10
269.2931593
20
27.2491691
40
2.4531461
50
278.4151604
51
279.0078082
0
ARC
8
left_labelLayer
10
268.9943994
20
29.1576634
40
4.3848809
50
278.9589926
51
280.5103845
0
ARC
8
left_labelLayer
10
269.2790817
20
27.6301557
40
2.8310723
50
280.4847341
51
282.6268196
0
ARC
8
left_labelLayer
10
269.5286833
20
26.5212287
40
1.6944027
50
282.5878181
51
285.5794248
0
ARC
8
left_labelLayer
10
269.6542091
20
26.0596279
40
1.2160524
50
285.723602
51
286.256529
0
ARC
8
left_labelLayer
10
269.6538434
20
24.992861
40
0.7972842
50
287.9889939
51
295.3047539
0
ARC
8
left_labelLayer
10
269.461549
20
25.5746567
40
1.41003
50
283.3069857
51
288.1196685
0
ARC
8
left_labelLayer
10
269.2584184
20
26.4219845
40
2.2813636
50
280.0070297
51
283.3735028
0
ARC
8
left_labelLayer
10
269.1222262
20
27.1611895
40
3.0329939
50
279.1866132
51
280.1141291
0
ARC
8
left_labelLayer
10
269.0390603
20
27.6342363
40
3.5132568
50
275.5261107
51
279.2938742
0
ARC
8
left_labelLayer
10
269.1330916
20
26.652159
40
2.5266888
50
270.893275
51
275.5483136
0
ARC
8
left_labelLayer
10
269.1448901
20
26.2058131
40
2.080219
50
270.0035655
51
270.760006
0
ARC
8
left_labelLayer
10
269.112311
20
26.2423721
40
2.1170306
50
253.7848147
51
270.8852671
0
ARC
8
left_labelLayer
10
268.8614996
20
25.3870076
40
1.2256562
50
190.3817547
51
253.8772429
0
ARC
8
left_labelLayer
10
270.1398775
20
25.7326593
40
2.5477537
50
179.355076
51
192.8477713
0
ARC
8
left_labelLayer
10
270.0349672
20
25.7853069
40
1.6321671
50
179.6416142
51
189.7505826
0
ARC
8
left_labelLayer
10
269.4587768
20
25.6825356
40
1.0469013
50
189.5478993
51
205.7874295
0
ARC
8
left_labelLayer
10
269.2219936
20
25.5733464
40
0.7862115
50
206.1294529
51
221.4084401
0
ARC
8
left_labelLayer
10
269.1954453
20
25.553202
40
0.75298
50
221.5949468
51
262.3504817
0
ARC
8
left_labelLayer
10
269.2585884
20
25.8779055
40
1.083372
50
261.3266007
51
270.1913759
0
LINE
8
top_outsideCutPath
10
331
20
118
11
331
21
100.5
0
LINE
8
top_outsideCutPath
10
331
20
100.5
11
326
21
100.5
0
LINE
8
top_outsideCutPath
10
326
20
100.5
11
326
21
85.5
0
LINE
8
top_outsideCutPath
10
326
20
85.5
11
331
21
85.5
0
LINE
8
top_outsideCutPath
10
331
20
85.5
11
331
21
70.5
0
LINE
8
top_outsideCutPath
10
331
20
70.5
11
326
21
70.5
0
LINE
8
top_outsideCutPath
10
326
20
70.5
11
326
21
55.5
0
LINE
8
top_outsideCutPath
10
326
20
55.5
11
331
21
55.5
0
LINE
8
top_outsideCutPath
10
331
20
55.5
11
331
21
40.5
0
LINE
8
top_outsideCutPath
10
331
20
40.5
11
326
21
40.5
0
LINE
8
top_outsideCutPath
10
326
20
40.5
11
326
21
25.5
0
LINE
8
top_outsideCutPath
10
326
20
25.5
11
331
21
25.5
0
LINE
8
top_outsideCutPath
10
331
20
25.5
11
331
21
10.5
0
LINE
8
top_outsideCutPath
10
331
20
10.5
11
331
21
8
0
LINE
8
top_outsideCutPath
10
331
20
8
11
343.5
21
8
0
LINE
8
top_outsideCutPath
10
343.5
20
8
11
343.5
21
3
0
LINE
8
top_outsideCutPath
10
343.5
20
3
11
358.5
21
3
0
LINE
8
top_outsideCutPath
10
358.5
20
3
11
358.5
21
8
0
LINE
8
top_outsideCutPath
10
358.5
20
8
11
373.5
21
8
0
LINE
8
top_outsideCutPath
10
373.5
20
8
11
373.5
21
3
0
LINE
8
top_outsideCutPath
10
373.5
20
3
11
388.5
21
3
0
LINE
8
top_outsideCutPath
10
388.5
20
3
11
388.5
21
8
0
LINE
8
top_outsideCutPath
10
388.5
20
8
11
403.5
21
8
0
LINE
8
top_outsideCutPath
10
403.5
20
8
11
403.5
21
3
0
LINE
8
top_outsideCutPath
10
403.5
20
3
11
418.5
21
3
0
LINE
8
top_outsideCutPath
10
418.5
20
3
11
418.5
21
8
0
LINE
8
top_outsideCutPath
10
418.5
20
8
11
433.5
21
8
0
LINE
8
top_outsideCutPath
10
433.5
20
8
11
433.5
21
3
0
LINE
8
top_outsideCutPath
10
433.5
20
3
11
448.5
21
3
0
LINE
8
top_outsideCutPath
10
448.5
20
3
11
448.5
21
8
0
LINE
8
top_outsideCutPath
10
448.5
20
8
11
463.5
21
8
0
LINE
8
top_outsideCutPath
10
463.5
20
8
11
463.5
21
3
0
LINE
8
top_outsideCutPath
10
463.5
20
3
11
478.5
21
3
0
LINE
8
top_outsideCutPath
10
478.5
20
3
11
478.5
21
8
0
LINE
8
top_outsideCutPath
10
478.5
20
8
11
493.5
21
8
0
LINE
8
top_outsideCutPath
10
493.5
20
8
11
493.5
21
3
0
LINE
8
top_outsideCutPath
10
493.5
20
3
11
508.5
21
3
0
LINE
8
top_outsideCutPath
10
508.5
20
3
11
508.5
21
8
0
LINE
8
top_outsideCutPath
10
508.5
20
8
11
521
21
8
0
LINE
8
top_outsideCutPath
10
521
20
8
11
521
21
25.5
0
LINE
8
top_outsideCutPath
10
521
20
25.5
11
526
21
25.5
0
LINE
8
top_outsideCutPath
10
526
20
25.5
11
526
21
40.5
0
LINE
8
top_outsideCutPath
10
526
20
40.5
11
521
21
40.5
0
LINE
8
top_outsideCutPath
10
521
20
40.5
11
521
21
55.5
0
LINE
8
top_outsideCutPath
10
521
20
55.5
11
526
21
55.5
0
LINE
8
top_outsideCutPath
10
526
20
55.5
11
526
21
70.5
0
LINE
8
top_outsideCutPath
10
526
20
70.5
11
521
21
70.5
0
LINE
8
top_outsideCutPath
10
521
20
70.5
11
521
21
85.5
0
LINE
8
top_outsideCutPath
10
521
20
85.5
11
526
21
85.5
0
LINE
8
top_outsideCutPath
10
526
20
85.5
11
526
21
100.5
0
LINE
8
top_outsideCutPath
10
526
20
100.5
11
521
21
100.5
0
LINE
8
top_outsideCutPath
10
521
20
100.5
11
521
21
115.5
0
LINE
8
top_outsideCutPath
10
521
20
115.5
11
521
21
118
0
LINE
8
top_outsideCutPath
10
521
20
118
11
508.5
21
118
0
LINE
8
top_outsideCutPath
10
508.5
20
118
11
508.5
21
123
0
LINE
8
top_outsideCutPath
10
508.5
20
123
11
493.5
21
123
0
LINE
8
top_outsideCutPath
10
493.5
20
123
11
493.5
21
118
0
LINE
8
top_outsideCutPath
10
493.5
20
118
11
478.5
21
118
0
LINE
8
top_outsideCutPath
10
478.5
20
118
11
478.5
21
123
0
LINE
8
top_outsideCutPath
10
478.5
20
123
11
463.5
21
123
0
LINE
8
top_outsideCutPath
10
463.5
20
123
11
463.5
21
118
0
LINE
8
top_outsideCutPath
10
463.5
20
118
11
448.5
21
118
0
LINE
8
top_outsideCutPath
10
448.5
20
118
11
448.5
21
123
0
LINE
8
top_outsideCutPath
10
448.5
20
123
11
433.5
21
123
0
LINE
8
top_outsideCutPath
10
433.5
20
123
11
433.5
21
118
0
LINE
8
top_outsideCutPath
10
433.5
20
118
11
418.5
21
118
0
LINE
8
top_outsideCutPath
10
418.5
20
118
11
418.5
21
123
0
LINE
8
top_outsideCutPath
10
418.5
20
123
11
403.5
21
123
0
LINE
8
top_outsideCutPath
10
403.5
20
123
11
403.5
21
118
0
LINE
8
top_outsideCutPath
10
403.5
20
118
11
388.5
21
118
0
LINE
8
top_outsideCutPath
10
388.5
20
118
11
388.5
21
123
0
LINE
8
top_outsideCutPath
10
388.5
20
123
11
373.5
21
123
0
LINE
8
top_outsideCutPath
10
373.5
20
123
11
373.5
21
118
0
LINE
8
top_outsideCutPath
10
373.5
20
118
11
358.5
21
118
0
LINE
8
top_outsideCutPath
10
358.5
20
118
11
358.5
21
123
0
LINE
8
top_outsideCutPath
10
358.5
20
123
11
343.5
21
123
0
LINE
8
top_outsideCutPath
10
343.5
20
123
11
343.5
21
118
0
LINE
8
top_outsideCutPath
10
343.5
20
118
11
331
21
118
0
LINE
8
top_labelLayer
10
415.6170883
20
59.578125
11
415.6170883
21
58.0898438
0
LINE
8
top_labelLayer
10
409.8514633
20
61.6640625
11
409.8514633
21
69.3046875
0
LINE
8
top_labelLayer
10
409.8514633
20
69.3046875
11
408.0116195
21
69.3046875
0
LINE
8
top_labelLayer
10
408.0116195
20
69.3046875
11
408.0116195
21
70.2421875
0
LINE
8
top_labelLayer
10
408.0116195
20
70.2421875
11
409.8514633
21
71.0507813
0
LINE
8
top_labelLayer
10
409.8514633
20
71.0507813
11
410.6717758
21
73.7929688
0
LINE
8
top_labelLayer
10
410.6717758
20
73.7929688
11
411.7967758
21
73.7929688
0
LINE
8
top_labelLayer
10
411.7967758
20
73.7929688
11
411.7967758
21
70.8164063
0
LINE
8
top_labelLayer
10
411.7967758
20
70.8164063
11
415.5233383
21
70.8164063
0
LINE
8
top_labelLayer
10
415.5233383
20
70.8164063
11
415.5233383
21
69.3046875
0
LINE
8
top_labelLayer
10
415.5233383
20
69.3046875
11
411.7967758
21
69.3046875
0
LINE
8
top_labelLayer
10
411.7967758
20
69.3046875
11
411.7967758
21
61.7460938
0
ARC
8
top_labelLayer
10
413.8726164
20
65.732409
40
6.3886729
50
269.8803567
51
278.3028336
0
ARC
8
top_labelLayer
10
413.9334977
20
65.2350239
40
5.8877209
50
278.4155406
51
279.0081712
0
ARC
8
top_labelLayer
10
413.2165263
20
69.8152979
40
10.5237659
50
278.9590101
51
280.5103943
0
ARC
8
top_labelLayer
10
413.8997138
20
66.1495231
40
6.7948739
50
280.4847891
51
282.6267799
0
ARC
8
top_labelLayer
10
414.4988832
20
63.487567
40
4.0663209
50
282.58766
51
285.5794473
0
ARC
8
top_labelLayer
10
414.7979794
20
62.3872563
40
2.9261164
50
285.7245036
51
286.256048
0
ARC
8
top_labelLayer
10
414.7992329
20
59.8196528
40
1.9134071
50
287.9887831
51
295.3048298
0
ARC
8
top_labelLayer
10
414.3377518
20
61.2158266
40
3.3838602
50
283.3068705
51
288.1198548
0
ARC
8
top_labelLayer
10
413.850175
20
63.249663
40
5.4753182
50
280.0070318
51
283.3734769
0
ARC
8
top_labelLayer
10
413.523853
20
65.0206747
40
7.2761039
50
279.186299
51
280.1142077
0
ARC
8
top_labelLayer
10
413.3237631
20
66.1587165
40
8.431508
50
275.5260434
51
279.2939448
0
ARC
8
top_labelLayer
10
413.5494051
20
63.8019185
40
6.0639347
50
270.8932317
51
275.5483613
0
ARC
8
top_labelLayer
10
413.5777517
20
62.7253054
40
4.9870241
50
270.0031482
51
270.7604232
0
ARC
8
top_labelLayer
10
413.499527
20
62.8185506
40
5.0808757
50
253.7848016
51
270.8852459
0
ARC
8
top_labelLayer
10
412.8975781
20
60.7656738
40
2.9415753
50
190.3817606
51
253.8772428
0
ARC
8
top_labelLayer
10
415.9656961
20
61.5952388
40
6.11462
50
179.3550883
51
192.8477587
0
ARC
8
top_labelLayer
10
415.7139265
20
61.7215955
40
3.9172273
50
179.6416712
51
189.7505711
0
ARC
8
top_labelLayer
10
414.3310575
20
61.4749449
40
2.5125779
50
189.5479422
51
205.7873769
0
ARC
8
top_labelLayer
10
413.7627688
20
61.2128886
40
1.886913
50
206.1294343
51
221.408378
0
ARC
8
top_labelLayer
10
413.6990465
20
61.164538
40
1.8071497
50
221.5949186
51
262.3505072
0
ARC
8
top_labelLayer
10
413.8505928
20
61.9438468
40
2.6001111
50
261.3266248
51
270.1913377
0
ARC
8
top_labelLayer
10
419.2213353
20
64.3385081
40
10.048325
50
349.1761848
51
0.3862689
0
ARC
8
top_labelLayer
10
422.6043593
20
63.6640951
40
6.5988955
50
330.2507088
51
349.4116414
0
ARC
8
top_labelLayer
10
423.6454845
20
63.1229605
40
5.4266731
50
318.1439818
51
329.7566157
0
ARC
8
top_labelLayer
10
423.8333988
20
62.9723659
40
5.186241
50
278.8959142
51
317.9979157
0
ARC
8
top_labelLayer
10
423.349229
20
65.292057
40
7.5538476
50
269.7502864
51
279.8033342
0
ARC
8
top_labelLayer
10
423.2707056
20
63.9850577
40
6.2469429
50
253.5436952
51
270.4182511
0
ARC
8
top_labelLayer
10
423.0627571
20
63.1806616
40
5.4166642
50
238.8115546
51
253.2428384
0
ARC
8
top_labelLayer
10
422.9956456
20
63.0457003
40
5.2664697
50
207.7947012
51
238.6757963
0
ARC
8
top_labelLayer
10
423.9586558
20
63.6355011
40
6.3938119
50
205.6560415
51
208.4461506
0
ARC
8
top_labelLayer
10
424.7004149
20
63.9445642
40
7.1963807
50
188.9102519
51
205.3171454
0
ARC
8
top_labelLayer
10
427.2001781
20
64.367943
40
9.7316027
50
179.774463
51
189.0932878
0
ARC
8
top_labelLayer
10
427.5689407
20
64.4746626
40
10.1005216
50
169.2442975
51
180.3880772
0
ARC
8
top_labelLayer
10
424.1388825
20
65.1526607
40
6.604245
50
150.7111509
51
169.4695445
0
ARC
8
top_labelLayer
10
423.043889
20
65.7149821
40
5.3743262
50
138.1759262
51
150.2287565
0
ARC
8
top_labelLayer
10
422.8617598
20
65.8547453
40
5.1454329
50
99.1759396
51
137.9832734
0
ARC
8
top_labelLayer
10
423.3630808
20
63.4954659
40
7.5553974
50
89.7326269
51
100.0759727
0
ARC
8
top_labelLayer
10
423.4632793
20
64.5143644
40
6.5367395
50
73.5222687
51
90.5692303
0
ARC
8
top_labelLayer
10
423.84662
20
65.9071406
40
5.0925067
50
41.1445685
51
73.2133837
0
ARC
8
top_labelLayer
10
423.1148534
20
65.278197
40
6.0573904
50
13.5014349
51
41.0703455
0
ARC
8
top_labelLayer
10
420.2876838
20
64.5383638
40
8.9793531
50
1.1277128
51
13.8800049
0
ARC
8
top_labelLayer
10
417.8518888
20
64.4078567
40
11.4175433
50
359.9919372
51
1.5419349
0
ARC
8
top_labelLayer
10
429.3351822
20
64.3556969
40
9.8510362
50
179.705971
51
187.9160766
0
ARC
8
top_labelLayer
10
425.7221259
20
63.8366857
40
6.2009516
50
187.7639294
51
200.0976817
0
ARC
8
top_labelLayer
10
423.7317069
20
63.1073936
40
4.0811324
50
200.0845823
51
216.9131551
0
ARC
8
top_labelLayer
10
423.0048777
20
62.588404
40
3.1883642
50
217.3009547
51
261.7099106
0
ARC
8
top_labelLayer
10
423.3422958
20
64.1985283
40
4.8313858
50
260.5033213
51
270.2476922
0
ARC
8
top_labelLayer
10
423.4067009
20
63.8854391
40
4.5184611
50
269.4481552
51
284.7255622
0
ARC
8
top_labelLayer
10
423.7644
20
62.5588463
40
3.1445297
50
284.5662336
51
322.6333806
0
ARC
8
top_labelLayer
10
422.928079
20
63.1630507
40
4.1760003
50
323.0089257
51
342.6390464
0
ARC
8
top_labelLayer
10
420.5360297
20
63.9448417
40
6.6924346
50
342.3615655
51
353.7537662
0
ARC
8
top_labelLayer
10
417.0069403
20
64.3702264
40
10.2469298
50
353.5363176
51
0.2014268
0
ARC
8
top_labelLayer
10
417.5476592
20
64.4557903
40
9.7062742
50
359.7075639
51
7.8972796
0
ARC
8
top_labelLayer
10
421.1023594
20
64.9653916
40
6.1152909
50
7.7439865
51
20.0690117
0
ARC
8
top_labelLayer
10
423.0831926
20
65.692283
40
4.0053009
50
20.0256933
51
37.4350686
0
ARC
8
top_labelLayer
10
423.7404092
20
66.1586354
40
3.2000982
50
37.9577645
51
80.400624
0
ARC
8
top_labelLayer
10
423.3669306
20
64.4922039
40
4.9063088
50
79.345361
51
90.3174798
0
ARC
8
top_labelLayer
10
423.2977762
20
64.7690122
40
4.6296155
50
89.4805969
51
103.8805122
0
ARC
8
top_labelLayer
10
422.908768
20
66.2503502
40
3.0982933
50
103.4685158
51
142.3118982
0
ARC
8
top_labelLayer
10
423.6650315
20
65.7184918
40
4.022135
50
142.90258
51
162.3749602
0
ARC
8
top_labelLayer
10
426.0480154
20
64.9243692
40
6.5338029
50
162.0653208
51
173.1674858
0
ARC
8
top_labelLayer
10
429.7636976
20
64.4504556
40
10.2795168
50
173.0086176
51
180.2463933
0
LINE
8
top_labelLayer
10
434.6249008
20
59.625
11
434.4842758
21
59.625
0
LINE
8
top_labelLayer
10
434.6249008
20
57.4921875
11
434.6249008
21
52.2070313
0
LINE
8
top_labelLayer
10
434.6249008
20
52.2070313
11
432.6795883
21
52.2070313
0
LINE
8
top_labelLayer
10
432.6795883
20
52.2070313
11
432.6795883
21
70.8164063
0
LINE
8
top_labelLayer
10
432.6795883
20
70.8164063
11
434.2616195
21
70.8164063
0
LINE
8
top_labelLayer
10
434.2616195
20
70.8164063
11
434.5311508
21
69.0585938
0
LINE
8
top_labelLayer
10
434.5311508
20
69.0585938
11
434.6249008
21
69.0585938
0
LINE
8
top_labelLayer
10
434.6249008
20
64.8398438
11
434.6249008
21
64.40625
0
ARC
8
top_labelLayer
10
438.6233464
20
63.638751
40
5.900561
50
255.7755484
51
270.3185388
0
ARC
8
top_labelLayer
10
438.454958
20
62.8906226
40
5.1340345
50
245.9801715
51
255.5455942
0
ARC
8
top_labelLayer
10
438.1288144
20
62.13217
40
4.3085161
50
215.5850158
51
245.8361621
0
ARC
8
top_labelLayer
10
416.2198356
20
57.3169828
40
18.4096909
50
2.9503074
51
7.2021053
0
ARC
8
top_labelLayer
10
419.1984657
20
57.483623
40
15.4264374
50
0.0318095
51
2.9016159
0
ARC
8
top_labelLayer
10
438.9100313
20
66.0491418
40
5.2363294
50
132.3564929
51
144.9195893
0
ARC
8
top_labelLayer
10
438.1078753
20
66.9242706
40
4.0491934
50
115.4006182
51
132.3118309
0
ARC
8
top_labelLayer
10
438.4207712
20
66.1625606
40
4.8716841
50
97.7066308
51
114.8821495
0
ARC
8
top_labelLayer
10
438.639295
20
64.7453421
40
6.3054616
50
89.8468369
51
97.9474272
0
ARC
8
top_labelLayer
10
438.7163575
20
65.0882027
40
5.9628825
50
74.1923548
51
90.5785203
0
ARC
8
top_labelLayer
10
439.1289554
20
66.5880836
40
4.4073446
50
38.0523412
51
74.041731
0
ARC
8
top_labelLayer
10
437.9909431
20
65.7158442
40
5.8411203
50
16.3355881
51
37.9090698
0
ARC
8
top_labelLayer
10
435.0013181
20
64.7950218
40
8.9691516
50
4.5766666
51
16.6088659
0
ARC
8
top_labelLayer
10
431.3207439
20
64.4282814
40
12.6674574
50
359.9003506
51
4.9018187
0
ARC
8
top_labelLayer
10
432.5825524
20
64.3389595
40
11.4058281
50
350.6562831
51
0.3380273
0
ARC
8
top_labelLayer
10
436.5588187
20
63.6626406
40
7.3725456
50
335.8305891
51
350.8254844
0
ARC
8
top_labelLayer
10
438.3078994
20
62.9077116
40
5.4677649
50
321.3161458
51
335.5436187
0
ARC
8
top_labelLayer
10
438.976585
20
62.3628342
40
4.6052297
50
274.0640024
51
321.4081028
0
ARC
8
top_labelLayer
10
438.6650645
20
64.3361474
40
6.5978721
50
269.9225933
51
275.5481475
0
ARC
8
top_labelLayer
10
438.334832
20
63.7933908
40
5.6051899
50
89.5904174
51
100.3501875
0
ARC
8
top_labelLayer
10
437.9351403
20
65.8931254
40
3.4678486
50
100.0868041
51
118.1917835
0
ARC
8
top_labelLayer
10
437.5256902
20
66.6916895
40
2.570635
50
118.556953
51
141.0243388
0
ARC
8
top_labelLayer
10
438.1496108
20
66.2515854
40
3.3328799
50
141.8890344
51
160.597319
0
ARC
8
top_labelLayer
10
440.3423173
20
65.447016
40
5.6684203
50
160.2895638
51
171.2453201
0
ARC
8
top_labelLayer
10
443.9475999
20
64.8657282
40
9.3202081
50
171.0868596
51
178.3247378
0
ARC
8
top_labelLayer
10
447.0046562
20
64.7204424
40
12.3803312
50
178.0662572
51
179.4474056
0
ARC
8
top_labelLayer
10
447.4870458
20
64.3560252
40
12.8622431
50
179.7762696
51
185.7075296
0
ARC
8
top_labelLayer
10
442.415898
20
63.8335145
40
7.7642873
50
185.5924686
51
194.2050835
0
ARC
8
top_labelLayer
10
439.1674054
20
62.9904143
40
4.4082768
50
193.9430235
51
208.0218478
0
ARC
8
top_labelLayer
10
437.8530419
20
62.3217601
40
2.9339851
50
208.5536475
51
217.5605739
0
ARC
8
top_labelLayer
10
437.7459704
20
62.2772279
40
2.822121
50
218.1690414
51
253.8047132
0
ARC
8
top_labelLayer
10
438.2694207
20
63.8910822
40
4.5182343
50
253.1382536
51
266.8482973
0
ARC
8
top_labelLayer
10
438.4162025
20
65.62211
40
6.254925
50
266.3775715
51
270.0510514
0
ARC
8
top_labelLayer
10
438.4660706
20
62.6446678
40
3.2777796
50
269.2257004
51
292.0430301
0
ARC
8
top_labelLayer
10
438.510297
20
62.3811014
40
3.0174371
50
293.142965
51
324.1353931
0
ARC
8
top_labelLayer
10
437.8535005
20
62.9372196
40
3.8760813
50
323.1614909
51
325.0153921
0
ARC
8
top_labelLayer
10
437.1495995
20
63.37371
40
4.7032809
50
325.575374
51
344.1504678
0
ARC
8
top_labelLayer
10
434.7157569
20
64.0931781
40
7.2411414
50
343.9336325
51
355.1137538
0
ARC
8
top_labelLayer
10
431.6088575
20
64.40844
40
10.3637212
50
354.8402167
51
0.1174667
0
ARC
8
top_labelLayer
10
432.1560704
20
64.4792313
40
9.8166116
50
359.7108304
51
7.8610532
0
ARC
8
top_labelLayer
10
435.7253809
20
64.9880295
40
6.2112744
50
7.714957
51
19.8859694
0
ARC
8
top_labelLayer
10
437.6884146
20
65.6970865
40
4.1241085
50
19.8991327
51
35.8980216
0
ARC
8
top_labelLayer
10
438.5640145
20
66.3601994
40
3.0260991
50
35.4481598
51
85.2266536
0
ARC
8
top_labelLayer
10
438.3810982
20
65.2131438
40
4.1852983
50
84.0378795
51
90.084842
0
LINE
8
back_outsideCutPath
10
0
20
106
11
0
21
88.5
0
LINE
8
back_outsideCutPath
10
0
20
88.5
11
5
21
88.5
0
LINE
8
back_outsideCutPath
10
5
20
88.5
11
5
21
73.5
0
LINE
8
back_outsideCutPath
10
5
20
73.5
11
0
21
73.5
0
LINE
8
back_outsideCutPath
10
0
20
73.5
11
0
21
58.5
0
LINE
8
back_outsideCutPath
10
0
20
58.5
11
0
21
56
0
LINE
8
back_outsideCutPath
10
0
20
56
11
17.5
21
56
0
LINE
8
back_outsideCutPath
10
17.5
20
56
11
17.5
21
61
0
LINE
8
back_outsideCutPath
10
17.5
20
61
11
32.5
21
61
0
LINE
8
back_outsideCutPath
10
32.5
20
61
11
32.5
21
56
0
LINE
8
back_outsideCutPath
10
32.5
20
56
11
47.5
21
56
0
LINE
8
back_outsideCutPath
10
47.5
20
56
11
47.5
21
61
0
LINE
8
back_outsideCutPath
10
47.5
20
61
11
62.5
21
61
0
LINE
8
back_outsideCutPath
10
62.5
20
61
11
62.5
21
56
0
LINE
8
back_outsideCutPath
10
62.5
20
56
11
77.5
21
56
0
LINE
8
back_outsideCutPath
10
77.5
20
56
11
77.5
21
61
0
LINE
8
back_outsideCutPath
10
77.5
20
61
11
92.5
21
61
0
LINE
8
back_outsideCutPath
10
92.5
20
61
11
92.5
21
56
0
LINE
8
back_outsideCutPath
10
92.5
20
56
11
107.5
21
56
0
LINE
8
back_outsideCutPath
10
107.5
20
56
11
107.5
21
61
0
LINE
8
back_outsideCutPath
10
107.5
20
61
11
122.5
21
61
0
LINE
8
back_outsideCutPath
10
122.5
20
61
11
122.5
21
56
0
LINE
8
back_outsideCutPath
10
122.5
20
56
11
137.5
21
56
0
LINE
8
back_outsideCutPath
10
137.5
20
56
11
137.5
21
61
0
LINE
8
back_outsideCutPath
10
137.5
20
61
11
152.5
21
61
0
LINE
8
back_outsideCutPath
10
152.5
20
61
11
152.5
21
56
0
LINE
8
back_outsideCutPath
10
152.5
20
56
11
167.5
21
56
0
LINE
8
back_outsideCutPath
10
167.5
20
56
11
167.5
21
61
0
LINE
8
back_outsideCutPath
10
167.5
20
61
11
182.5
21
61
0
LINE
8
back_outsideCutPath
10
182.5
20
61
11
182.5
21
56
0
LINE
8
back_outsideCutPath
10
182.5
20
56
11
200
21
56
0
LINE
8
back_outsideCutPath
10
200
20
56
11
200
21
73.5
0
LINE
8
back_outsideCutPath
10
200
20
73.5
11
195
21
73.5
0
LINE
8
back_outsideCutPath
10
195
20
73.5
11
195
21
88.5
0
LINE
8
back_outsideCutPath
10
195
20
88.5
11
200
21
88.5
0
LINE
8
back_outsideCutPath
10
200
20
88.5
11
200
21
103.5
0
LINE
8
back_outsideCutPath
10
200
20
103.5
11
200
21
106
0
LINE
8
back_outsideCutPath
10
200
20
106
11
182.5
21
106
0
LINE
8
back_outsideCutPath
10
182.5
20
106
11
182.5
21
101
0
LINE
8
back_outsideCutPath
10
182.5
20
101
11
167.5
21
101
0
LINE
8
back_outsideCutPath
10
167.5
20
101
11
167.5
21
106
0
LINE
8
back_outsideCutPath
10
167.5
20
106
11
152.5
21
106
0
LINE
8
back_outsideCutPath
10
152.5
20
106
11
152.5
21
101
0
LINE
8
back_outsideCutPath
10
152.5
20
101
11
137.5
21
101
0
LINE
8
back_outsideCutPath
10
137.5
20
101
11
137.5
21
106
0
LINE
8
back_outsideCutPath
10
137.5
20
106
11
122.5
21
106
0
LINE
8
back_outsideCutPath
10
122.5
20
106
11
122.5
21
101
0
LINE
8
back_outsideCutPath
10
122.5
20
101
11
107.5
21
101
0
LINE
8
back_outsideCutPath
10
107.5
20
101
11
107.5
21
106
0
LINE
8
back_outsideCutPath
10
107.5
20
106
11
92.5
21
106
0
LINE
8
back_outsideCutPath
10
92.5
20
106
11
92.5
21
101
0
LINE
8
back_outsideCutPath
10
92.5
20
101
11
77.5
21
101
0
LINE
8
back_outsideCutPath
10
77.5
20
101
11
77.5
21
106
0
LINE
8
back_outsideCutPath
10
77.5
20
106
11
62.5
21
106
0
LINE
8
back_outsideCutPath
10
62.5
20
106
11
62.5
21
101
0
LINE
8
back_outsideCutPath
10
62.5
20
101
11
47.5
21
101
0
LINE
8
back_outsideCutPath
10
47.5
20
101
11
47.5
21
106
0
LINE
8
back_outsideCutPath
10
47.5
20
106
11
32.5
21
106
0
LINE
8
back_outsideCutPath
10
32.5
20
106
11
32.5
21
101
0
LINE
8
back_outsideCutPath
10
32.5
20
101
11
17.5
21
101
0
LINE
8
back_outsideCutPath
10
17.5
20
101
11
17.5
21
106
0
LINE
8
back_outsideCutPath
10
17.5
20
106
11
0
21
106
0
LINE
8
back_labelLayer
10
90.4443359
20
77.9385317
11
90.3857422
21
77.9385317
0
LINE
8
back_labelLayer
10
90.3857422
20
77.9385317
11
90.2148438
21
77.2500552
0
LINE
8
back_labelLayer
10
90.2148438
20
77.2500552
11
89.6337891
21
77.2500552
0
LINE
8
back_labelLayer
10
89.6337891
20
77.2500552
11
89.6337891
21
84.8477114
0
LINE
8
back_labelLayer
10
89.6337891
20
84.8477114
11
90.4443359
21
84.8477114
0
LINE
8
back_labelLayer
10
90.4443359
20
84.8477114
11
90.4443359
21
83.0020083
0
LINE
8
back_labelLayer
10
90.4052734
20
81.888727
11
90.4443359
21
81.888727
0
ARC
8
back_labelLayer
10
92.1483387
20
80.212314
40
2.4773136
50
74.2393369
51
90.5623769
0
ARC
8
back_labelLayer
10
92.3121481
20
80.8132544
40
1.8544803
50
38.5631099
51
74.0670539
0
ARC
8
back_labelLayer
10
91.8905935
20
80.4854707
40
2.3884445
50
16.4709351
51
38.4075227
0
ARC
8
back_labelLayer
10
90.6761757
20
80.104664
40
3.6610562
50
5.1338261
51
16.7973539
0
ARC
8
back_labelLayer
10
89.1430841
20
79.9418058
40
5.2026308
50
359.8779055
51
5.4093721
0
ARC
8
back_labelLayer
10
89.5933701
20
79.9026811
40
4.7524157
50
350.6562637
51
0.3380338
0
ARC
8
back_labelLayer
10
91.2501362
20
79.6208819
40
3.0718929
50
335.8305818
51
350.8254823
0
ARC
8
back_labelLayer
10
91.9789143
20
79.3063304
40
2.2782403
50
321.3161731
51
335.5436156
0
ARC
8
back_labelLayer
10
92.2575376
20
79.0792964
40
1.9188461
50
274.0640057
51
321.4080958
0
ARC
8
back_labelLayer
10
92.1277402
20
79.9014645
40
2.749068
50
269.9225351
51
275.5481821
0
ARC
8
back_labelLayer
10
92.1103539
20
79.6109211
40
2.4585602
50
255.7755328
51
270.3185644
0
ARC
8
back_labelLayer
10
92.0401941
20
79.2992093
40
2.1391827
50
245.9801635
51
255.5455786
0
ARC
8
back_labelLayer
10
91.9043002
20
78.9831861
40
1.7952153
50
215.5850173
51
245.8361589
0
ARC
8
back_labelLayer
10
73.5450452
20
82.9877217
40
16.8992968
50
358.1123237
51
0.0484375
0
ARC
8
back_labelLayer
10
78.2480518
20
82.8298379
40
12.193642
50
355.7238931
51
358.1258568
0
ARC
8
back_labelLayer
10
80.3613915
20
82.6843065
40
10.0753416
50
355.4710374
51
355.6530914
0
ARC
8
back_labelLayer
10
91.9559704
20
80.834624
40
1.8428706
50
95.1835114
51
145.1109093
0
ARC
8
back_labelLayer
10
92.1179518
20
79.9212095
40
2.7683056
50
89.8743348
51
96.8145689
0
ARC
8
back_labelLayer
10
91.9898658
20
79.7331653
40
2.2776953
50
89.5731104
51
100.7324481
0
ARC
8
back_labelLayer
10
91.8212528
20
80.5850511
40
1.409329
50
100.4469364
51
119.6700776
0
ARC
8
back_labelLayer
10
91.6648987
20
80.8773742
40
1.0779725
50
120.1403067
51
142.4248671
0
ARC
8
back_labelLayer
10
91.9235789
20
80.7062504
40
1.3875184
50
143.3382683
51
161.2559699
0
ARC
8
back_labelLayer
10
93.005331
20
80.3221943
40
2.5353622
50
160.8926676
51
171.2333994
0
ARC
8
back_labelLayer
10
94.8111893
20
80.0308693
40
4.3645426
50
171.0667954
51
177.8456541
0
ARC
8
back_labelLayer
10
96.6893737
20
79.9353507
40
6.2450395
50
177.6176903
51
180.0424917
0
ARC
8
back_labelLayer
10
95.8035741
20
79.9097941
40
5.359279
50
179.7762894
51
185.707537
0
ARC
8
back_labelLayer
10
93.6906032
20
79.6920817
40
3.2351383
50
185.5924778
51
194.2050433
0
ARC
8
back_labelLayer
10
92.337048
20
79.3407883
40
1.8367838
50
193.9430285
51
208.0218386
0
ARC
8
back_labelLayer
10
91.7893872
20
79.0621772
40
1.222485
50
208.5536292
51
217.5606204
0
ARC
8
back_labelLayer
10
91.7447809
20
79.043626
40
1.1758828
50
218.1690397
51
253.8047404
0
ARC
8
back_labelLayer
10
91.962886
20
79.7160648
40
1.8825966
50
253.1382412
51
266.848293
0
ARC
8
back_labelLayer
10
92.024048
20
80.4373254
40
2.6062167
50
266.3775019
51
270.0509848
0
ARC
8
back_labelLayer
10
92.0436574
20
79.446832
40
1.6158147
50
269.3868884
51
285.8630892
0
ARC
8
back_labelLayer
10
92.1637031
20
79.0129744
40
1.1656704
50
286.0162669
51
326.8497557
0
ARC
8
back_labelLayer
10
91.5843075
20
79.3968044
40
1.860661
50
326.7104772
51
343.6661994
0
ARC
8
back_labelLayer
10
90.4997146
20
79.7282227
40
2.9947132
50
343.417116
51
353.6369418
0
ARC
8
back_labelLayer
10
88.8615481
20
79.922606
40
4.6443457
50
353.4934558
51
0.2205656
0
ARC
8
back_labelLayer
10
88.7170759
20
79.9598669
40
4.7888227
50
359.7681031
51
6.3094901
0
ARC
8
back_labelLayer
10
90.5209548
20
80.1668709
40
2.9731302
50
6.1648447
51
16.039627
0
ARC
8
back_labelLayer
10
91.6829547
20
80.5093113
40
1.7617672
50
15.7779417
51
32.0151137
0
ARC
8
back_labelLayer
10
92.0453942
20
80.7168756
40
1.3445099
50
32.7033248
51
35.52437
0
ARC
8
back_labelLayer
10
92.1778364
20
80.8110128
40
1.1820211
50
35.5408567
51
79.8010998
0
ARC
8
back_labelLayer
10
92.019103
20
80.1362019
40
1.8746357
50
78.6781387
51
90.374928
0
LINE
8
back_labelLayer
10
99.6533203
20
77.2500552
11
99.0527344
21
77.2500552
0
LINE
8
back_labelLayer
10
99.0527344
20
77.2500552
11
98.8916016
21
78.0117739
0
LINE
8
back_labelLayer
10
98.8916016
20
78.0117739
11
98.8525391
21
78.0117739
0
LINE
8
back_labelLayer
10
97.9541016
20
80.4287661
11
98.8623047
21
80.458063
0
LINE
8
back_labelLayer
10
98.8623047
20
80.458063
11
98.8623047
21
80.7900942
0
LINE
8
back_labelLayer
10
96.2109375
20
81.6104067
11
95.9619141
21
82.2305239
0
LINE
8
back_labelLayer
10
99.6533203
20
80.9023989
11
99.6533203
21
77.2500552
0
LINE
8
back_labelLayer
10
98.8427734
20
79.3984927
11
98.8427734
21
79.8818911
0
LINE
8
back_labelLayer
10
98.8427734
20
79.8818911
11
98.0322266
21
79.8477114
0
ARC
8
back_labelLayer
10
96.2153592
20
80.0939545
40
3.3600883
50
314.7444692
51
321.7072073
0
ARC
8
back_labelLayer
10
97.0408544
20
79.2551869
40
2.1832506
50
304.8485905
51
314.8530259
0
ARC
8
back_labelLayer
10
97.4374319
20
78.6907019
40
1.4933923
50
294.3932757
51
304.7371361
0
ARC
8
back_labelLayer
10
97.3019463
20
79.0417557
40
1.8691882
50
281.2979935
51
293.7313664
0
ARC
8
back_labelLayer
10
97.1228441
20
79.9097913
40
2.7554963
50
272.9335334
51
281.4138765
0
ARC
8
back_labelLayer
10
97.0634774
20
80.8001416
40
3.6477439
50
269.9539691
51
273.1490833
0
ARC
8
back_labelLayer
10
97.0429754
20
79.6398007
40
2.4874639
50
258.6719934
51
270.4047425
0
ARC
8
back_labelLayer
10
96.8701932
20
78.8132754
40
1.6431166
50
238.3273112
51
258.91837
0
ARC
8
back_labelLayer
10
96.7511248
20
78.5960477
40
1.3957816
50
227.7688999
51
237.8049792
0
ARC
8
back_labelLayer
10
96.7138817
20
78.5440582
40
1.3322752
50
192.0827591
51
227.4520731
0
ARC
8
back_labelLayer
10
97.4007458
20
78.7133766
40
2.0394816
50
179.5457054
51
192.694923
0
ARC
8
back_labelLayer
10
96.7626546
20
78.7872223
40
1.4025129
50
115.4904586
51
182.3568144
0
ARC
8
back_labelLayer
10
97.4650506
20
77.4988814
40
2.8688302
50
101.3568336
51
117.0798447
0
ARC
8
back_labelLayer
10
98.0291382
20
74.8628407
40
5.5644398
50
92.4696437
51
101.7064814
0
ARC
8
back_labelLayer
10
98.1912467
20
72.5151376
40
7.9171809
50
91.7164503
51
92.9096168
0
ARC
8
back_labelLayer
10
96.5342509
20
80.8025537
40
2.3280871
50
359.6933623
51
8.003599
0
ARC
8
back_labelLayer
10
97.4149281
20
80.9308511
40
1.4381317
50
7.8272536
51
20.604216
0
ARC
8
back_labelLayer
10
97.9132754
20
81.121495
40
0.9045776
50
20.4094154
51
41.4479086
0
ARC
8
back_labelLayer
10
97.9869085
20
81.1619676
40
0.8228008
50
42.7295818
51
71.0379845
0
ARC
8
back_labelLayer
10
97.8135567
20
80.6906243
40
1.3249392
50
70.5715573
51
83.9929016
0
ARC
8
back_labelLayer
10
97.7307353
20
80.0178796
40
2.0026929
50
83.6506517
51
90.1752588
0
ARC
8
back_labelLayer
10
97.7452654
20
79.3816777
40
2.6389661
50
90.4484775
51
103.7665549
0
ARC
8
back_labelLayer
10
98.0555914
20
78.0730166
40
3.9838937
50
103.6226473
51
112.4320058
0
ARC
8
back_labelLayer
10
98.5875048
20
76.7299707
40
5.4283263
50
112.2122142
51
115.9641361
0
ARC
8
back_labelLayer
10
97.7356736
20
78.9411091
40
3.7371745
50
106.3568649
51
118.334991
0
ARC
8
back_labelLayer
10
97.8949029
20
78.4492264
40
4.2540146
50
104.5162698
51
106.5489433
0
ARC
8
back_labelLayer
10
97.7781183
20
78.9357769
40
3.7537344
50
90.0714455
51
104.6521131
0
ARC
8
back_labelLayer
10
97.7928509
20
79.2662701
40
3.4232932
50
81.5679687
51
90.3249253
0
ARC
8
back_labelLayer
10
97.9907819
20
80.5557261
40
2.1187623
50
68.2273295
51
81.7494406
0
ARC
8
back_labelLayer
10
98.2664677
20
81.2416525
40
1.3795102
50
47.8682816
51
68.293447
0
ARC
8
back_labelLayer
10
98.3112075
20
81.3309873
40
1.2835248
50
19.2331228
51
46.6740973
0
ARC
8
back_labelLayer
10
97.5658434
20
81.0537108
40
2.0786891
50
6.3379147
51
19.6815393
0
ARC
8
back_labelLayer
10
96.4639964
20
80.913381
40
3.1893429
50
359.8027088
51
6.6583528
0
ARC
8
back_labelLayer
10
97.2380705
20
80.0529495
40
2.2316655
50
269.5791782
51
282.0413657
0
ARC
8
back_labelLayer
10
97.4008545
20
79.330909
40
1.4915767
50
281.7120981
51
306.4594203
0
ARC
8
back_labelLayer
10
97.4730223
20
79.2122211
40
1.3532905
50
306.9881321
51
313.8558413
0
ARC
8
back_labelLayer
10
97.46445
20
79.2097445
40
1.3574668
50
314.1891717
51
347.4270019
0
ARC
8
back_labelLayer
10
96.7844634
20
79.380147
40
2.058322
50
346.9177471
51
0.2824852
0
ARC
8
back_labelLayer
10
96.300419
20
79.3984257
40
2.5423544
50
359.8167644
51
0.0015087
0
ARC
8
back_labelLayer
10
98.2250241
20
73.8994197
40
5.9514154
50
91.8564352
51
96.4478741
0
ARC
8
back_labelLayer
10
97.9566416
20
76.2217928
40
3.6135982
50
96.3545788
51
102.9953028
0
ARC
8
back_labelLayer
10
97.5923096
20
77.7697369
40
2.0233834
50
102.7995495
51
113.2432676
0
ARC
8
back_labelLayer
10
97.2919634
20
78.4880537
40
1.2448621
50
113.5886592
51
121.68053
0
ARC
8
back_labelLayer
10
97.0832956
20
78.805848
40
0.8648997
50
120.9733979
51
172.4179742
0
ARC
8
back_labelLayer
10
97.4911557
20
78.7243817
40
1.2802263
50
171.2122595
51
180.2058707
0
ARC
8
back_labelLayer
10
97.3692547
20
78.71021
40
1.1583568
50
179.5265503
51
192.7787762
0
ARC
8
back_labelLayer
10
96.9774081
20
78.6152237
40
0.7552295
50
192.326445
51
222.0579919
0
ARC
8
back_labelLayer
10
96.948234
20
78.5977661
40
0.7219041
50
222.5803633
51
229.254904
0
ARC
8
back_labelLayer
10
97.0467552
20
78.7246019
40
0.8823396
50
229.7837096
51
254.2723959
0
ARC
8
back_labelLayer
10
97.1779342
20
79.1617453
40
1.3386973
50
253.9396744
51
266.4533722
0
ARC
8
back_labelLayer
10
97.2198048
20
79.6443775
40
1.8230343
50
266.0782862
51
270.0589254
0
LINE
8
back_labelLayer
10
104.8925781
20
82.4209536
11
104.6435547
21
81.732477
0
LINE
8
back_labelLayer
10
104.8144531
20
78.1484927
11
104.8144531
21
77.4307192
0
ARC
8
back_labelLayer
10
103.4360601
20
80.181618
40
3.0293294
50
256.4243478
51
270.4889993
0
ARC
8
back_labelLayer
10
103.1939883
20
79.2368384
40
2.0541696
50
221.7976346
51
256.8020516
0
ARC
8
back_labelLayer
10
103.4284088
20
79.410042
40
2.3445282
50
196.0166623
51
221.1349134
0
ARC
8
back_labelLayer
10
104.6065661
20
79.7701496
40
3.5763731
50
183.5913484
51
196.3539821
0
ARC
8
back_labelLayer
10
105.9263095
20
79.8864234
40
4.9009217
50
179.9388181
51
183.9815557
0
ARC
8
back_labelLayer
10
105.4975882
20
79.9204497
40
4.4722903
50
169.8978523
51
180.3688773
0
ARC
8
back_labelLayer
10
103.9406781
20
80.2084534
40
2.8890196
50
153.0875198
51
170.1051203
0
ARC
8
back_labelLayer
10
103.3499465
20
80.4907227
40
2.2345568
50
138.6549922
51
152.6853911
0
ARC
8
back_labelLayer
10
103.239701
20
80.5710613
40
2.0987566
50
101.4912998
51
138.3133758
0
ARC
8
back_labelLayer
10
103.4928122
20
79.5176393
40
3.1817164
50
89.5891871
51
102.1787778
0
ARC
8
back_labelLayer
10
103.5122749
20
79.0414994
40
3.657776
50
77.770258
51
89.9475229
0
ARC
8
back_labelLayer
10
103.4430825
20
78.6597306
40
4.0455599
50
74.6796032
51
77.9578957
0
ARC
8
back_labelLayer
10
103.8170059
20
80.0143621
40
2.6402722
50
70.0946306
51
74.73862
0
ARC
8
back_labelLayer
10
104.1727441
20
80.989266
40
1.6024973
50
63.5034062
51
70.1862266
0
ARC
8
back_labelLayer
10
104.3430462
20
81.345768
40
1.2074806
50
62.9282302
51
63.1884379
0
ARC
8
back_labelLayer
10
103.3120438
20
78.381529
40
3.6057973
50
68.3294284
51
74.8831657
0
ARC
8
back_labelLayer
10
103.1218383
20
77.7071156
40
4.3064836
50
74.7801279
51
77.4497748
0
ARC
8
back_labelLayer
10
103.3215139
20
78.6443718
40
3.3482452
50
77.2999253
51
81.7344623
0
ARC
8
back_labelLayer
10
103.4672002
20
79.6594866
40
2.3227315
50
81.6910236
51
87.5079183
0
ARC
8
back_labelLayer
10
103.4952996
20
80.184549
40
1.7969516
50
87.6750731
51
89.9746785
0
ARC
8
back_labelLayer
10
103.455913
20
80.1840359
40
1.7979136
50
88.7194161
51
112.5667584
0
ARC
8
back_labelLayer
10
103.3281585
20
80.606425
40
1.3595548
50
114.4265677
51
161.6632888
0
ARC
8
back_labelLayer
10
104.5972595
20
80.109684
40
2.7214507
50
160.1418249
51
175.1368334
0
ARC
8
back_labelLayer
10
106.3440452
20
79.9135328
40
4.4788273
50
174.5309798
51
180.1549241
0
ARC
8
back_labelLayer
10
105.7906549
20
79.8811532
40
3.9254728
50
179.704153
51
188.0743382
0
ARC
8
back_labelLayer
10
104.3767236
20
79.674281
40
2.4965092
50
187.9314992
51
200.3885623
0
ARC
8
back_labelLayer
10
103.6122254
20
79.3910728
40
1.6812404
50
200.41835
51
216.6392747
0
ARC
8
back_labelLayer
10
103.2917253
20
79.1619549
40
1.287358
50
216.969528
51
261.3102992
0
ARC
8
back_labelLayer
10
103.4331695
20
79.8214027
40
1.9610176
50
260.1359953
51
270.2691898
0
ARC
8
back_labelLayer
10
103.4266397
20
81.253418
40
3.3930478
50
270.2658435
51
286.2891391
0
ARC
8
back_labelLayer
10
103.2203828
20
82.0226276
40
4.1892698
50
286.0460442
51
292.365443
0
ARC
8
back_labelLayer
10
103.7697001
20
79.4859978
40
2.3055756
50
282.0344105
51
296.9454475
0
ARC
8
back_labelLayer
10
103.5325833
20
80.5545875
40
3.4001314
50
272.5980721
51
282.1878492
0
ARC
8
back_labelLayer
10
103.4645937
20
81.5973826
40
4.4449843
50
269.965459
51
272.8642568
0
LINE
8
back_labelLayer
10
106.8457031
20
79.989313
11
106.8847656
21
79.989313
0
LINE
8
back_labelLayer
10
107.5244141
20
80.770563
11
109.2529297
21
82.6016177
0
LINE
8
back_labelLayer
10
109.2529297
20
82.6016177
11
110.2148438
21
82.6016177
0
LINE
8
back_labelLayer
10
110.2148438
20
82.6016177
11
108.046875
21
80.3213442
0
LINE
8
back_labelLayer
10
108.046875
20
80.3213442
11
110.3662109
21
77.2500552
0
LINE
8
back_labelLayer
10
110.3662109
20
77.2500552
11
109.3847656
21
77.2500552
0
LINE
8
back_labelLayer
10
109.3847656
20
77.2500552
11
107.4951172
21
79.779352
0
LINE
8
back_labelLayer
10
107.4951172
20
79.779352
11
106.8847656
21
79.2520083
0
LINE
8
back_labelLayer
10
106.8847656
20
79.2520083
11
106.8847656
21
77.2500552
0
LINE
8
back_labelLayer
10
106.8847656
20
77.2500552
11
106.0839844
21
77.2500552
0
LINE
8
back_labelLayer
10
106.0839844
20
77.2500552
11
106.0839844
21
84.8477114
0
LINE
8
back_labelLayer
10
106.0839844
20
84.8477114
11
106.8847656
21
84.8477114
0
LINE
8
back_labelLayer
10
106.8847656
20
84.8477114
11
106.8847656
21
80.8193911
0
ARC
8
back_labelLayer
10
110.8010809
20
77.2171832
40
4.7981485
50
142.323318
51
144.7075621
0
ARC
8
back_labelLayer
10
113.3565609
20
75.2460848
40
8.0254857
50
140.4331205
51
142.3365422
0
ARC
8
back_labelLayer
10
116.6863473
20
72.5050818
40
12.3383192
50
139.2798925
51
140.470333
0
ARC
8
back_labelLayer
10
120.5361222
20
69.1945411
40
17.4157638
50
138.3417265
51
139.2877204
0
ARC
8
back_labelLayer
10
101.4828931
20
80.8295073
40
5.401882
50
358.2739962
51
359.8927009
0
ARC
8
back_labelLayer
10
97.2803974
20
80.9466361
40
9.6060036
50
357.5041884
51
358.3306779
0
ARC
8
back_labelLayer
10
90.9938413
20
81.2242941
40
15.8986878
50
356.6324712
51
357.4910779
0
ARC
8
back_labelLayer
10
80.5349181
20
81.8343052
40
26.3753842
50
356.0329322
51
356.6442148
0
ARC
8
back_labelLayer
10
73.1668156
20
82.3318723
40
33.7602586
50
356.021159
51
356.0556283
0
LINE
8
right_outsideCutPath
10
208
20
106
11
208
21
88.5
0
LINE
8
right_outsideCutPath
10
208
20
88.5
11
203
21
88.5
0
LINE
8
right_outsideCutPath
10
203
20
88.5
11
203
21
73.5
0
LINE
8
right_outsideCutPath
10
203
20
73.5
11
208
21
73.5
0
LINE
8
right_outsideCutPath
10
208
20
73.5
11
208
21
58.5
0
LINE
8
right_outsideCutPath
10
208
20
58.5
11
208
21
56
0
LINE
8
right_outsideCutPath
10
208
20
56
11
225.5
21
56
0
LINE
8
right_outsideCutPath
10
225.5
20
56
11
225.5
21
61
0
LINE
8
right_outsideCutPath
10
225.5
20
61
11
240.5
21
61
0
LINE
8
right_outsideCutPath
10
240.5
20
61
11
240.5
21
56
0
LINE
8
right_outsideCutPath
10
240.5
20
56
11
255.5
21
56
0
LINE
8
right_outsideCutPath
10
255.5
20
56
11
255.5
21
61
0
LINE
8
right_outsideCutPath
10
255.5
20
61
11
270.5
21
61
0
LINE
8
right_outsideCutPath
10
270.5
20
61
11
270.5
21
56
0
LINE
8
right_outsideCutPath
10
270.5
20
56
11
285.5
21
56
0
LINE
8
right_outsideCutPath
10
285.5
20
56
11
285.5
21
61
0
LINE
8
right_outsideCutPath
10
285.5
20
61
11
300.5
21
61
0
LINE
8
right_outsideCutPath
10
300.5
20
61
11
300.5
21
56
0
LINE
8
right_outsideCutPath
10
300.5
20
56
11
315.5
21
56
0
LINE
8
right_outsideCutPath
10
315.5
20
56
11
318
21
56
0
LINE
8
right_outsideCutPath
10
318
20
56
11
318
21
73.5
0
LINE
8
right_outsideCutPath
10
318
20
73.5
11
323
21
73.5
0
LINE
8
right_outsideCutPath
10
323
20
73.5
11
323
21
88.5
0
LINE
8
right_outsideCutPath
10
323
20
88.5
11
318
21
88.5
0
LINE
8
right_outsideCutPath
10
318
20
88.5
11
318
21
103.5
0
LINE
8
right_outsideCutPath
10
318
20
103.5
11
318
21
106
0
LINE
8
right_outsideCutPath
10
318
20
106
11
300.5
21
106
0
LINE
8
right_outsideCutPath
10
300.5
20
106
11
300.5
21
101
0
LINE
8
right_outsideCutPath
10
300.5
20
101
11
285.5
21
101
0
LINE
8
right_outsideCutPath
10
285.5
20
101
11
285.5
21
106
0
LINE
8
right_outsideCutPath
10
285.5
20
106
11
270.5
21
106
0
LINE
8
right_outsideCutPath
10
270.5
20
106
11
270.5
21
101
0
LINE
8
right_outsideCutPath
10
270.5
20
101
11
255.5
21
101
0
LINE
8
right_outsideCutPath
10
255.5
20
101
11
255.5
21
106
0
LINE
8
right_outsideCutPath
10
255.5
20
106
11
240.5
21
106
0
LINE
8
right_outsideCutPath
10
240.5
20
106
11
240.5
21
101
0
LINE
8
right_outsideCutPath
10
240.5
20
101
11
225.5
21
101
0
LINE
8
right_outsideCutPath
10
225.5
20
101
11
225.5
21
106
0
LINE
8
right_outsideCutPath
10
225.5
20
106
11
210.5
21
106
0
LINE
8
right_outsideCutPath
10
210.5
20
106
11
208
21
106
0
LINE
8
right_labelLayer
10
255.7368164
20
83.7929982
11
255.6245117
21
83.0410451
0
LINE
8
right_labelLayer
10
253.4663086
20
81.2734669
11
253.4663086
21
78.4023732
0
LINE
8
right_labelLayer
10
253.4663086
20
78.4023732
11
252.6557617
21
78.4023732
0
LINE
8
right_labelLayer
10
252.6557617
20
78.4023732
11
252.6557617
21
83.7539357
0
LINE
8
right_labelLayer
10
252.6557617
20
83.7539357
11
253.324707
21
83.7539357
0
LINE
8
right_labelLayer
10
253.324707
20
83.7539357
11
253.4174805
21
82.7627248
0
LINE
8
right_labelLayer
10
253.4174805
20
82.7627248
11
253.456543
21
82.7627248
0
ARC
8
right_labelLayer
10
255.1054855
20
80.1304447
40
3.7211565
50
84.9923433
51
90.1280672
0
ARC
8
right_labelLayer
10
255.1948469
20
81.1317025
40
2.7159207
50
78.4891938
51
85.0265557
0
ARC
8
right_labelLayer
10
254.8479866
20
79.5540851
40
3.5723775
50
77.4454351
51
81.6359953
0
ARC
8
right_labelLayer
10
255.0036379
20
80.6269397
40
2.4882934
50
81.5884875
51
87.1916305
0
ARC
8
right_labelLayer
10
255.0374454
20
81.2131038
40
1.9011837
50
87.3437419
51
89.965981
0
ARC
8
right_labelLayer
10
255.0295914
20
81.7098785
40
1.4044375
50
89.633532
51
137.0880858
0
ARC
8
right_labelLayer
10
255.3744018
20
81.3221558
40
1.9215969
50
135.6210457
51
138.8375526
0
ARC
8
right_labelLayer
10
255.3237605
20
81.3715801
40
1.850945
50
138.957565
51
174.5422151
0
ARC
8
right_labelLayer
10
255.9265588
20
81.2772576
40
2.4602532
50
173.6907228
51
180.0882791
0
ARC
8
right_labelLayer
10
255.8413403
20
81.4191418
40
2.7372383
50
139.4139286
51
150.6033063
0
ARC
8
right_labelLayer
10
255.350549
20
81.8397004
40
2.0909058
50
124.2321186
51
139.4161439
0
ARC
8
right_labelLayer
10
255.0881341
20
82.2358171
40
1.6158002
50
89.6796607
51
124.4405755
0
LINE
8
right_labelLayer
10
257.5483398
20
83.7539357
11
257.5483398
21
78.4023732
0
LINE
8
right_labelLayer
10
257.5483398
20
78.4023732
11
256.737793
21
78.4023732
0
LINE
8
right_labelLayer
10
256.737793
20
78.4023732
11
256.737793
21
83.7539357
0
LINE
8
right_labelLayer
10
256.737793
20
83.7539357
11
257.5483398
21
83.7539357
0
ARC
8
right_labelLayer
10
257.5676169
20
85.2096867
40
0.8982005
50
170.8452915
51
180.3543968
0
ARC
8
right_labelLayer
10
257.2313569
20
85.2659092
40
0.5572822
50
155.9679251
51
171.0516526
0
ARC
8
right_labelLayer
10
257.0684987
20
85.3381599
40
0.379117
50
133.7881081
51
155.9171684
0
ARC
8
right_labelLayer
10
257.1286246
20
85.2716869
40
0.4687179
50
92.6445859
51
133.47105
0
ARC
8
right_labelLayer
10
257.1476142
20
85.1225699
40
0.6186705
50
89.968971
51
93.7642314
0
ARC
8
right_labelLayer
10
257.1553498
20
85.2637341
40
0.4775636
50
46.3708039
51
90.8879225
0
ARC
8
right_labelLayer
10
257.2028783
20
85.312801
40
0.4092544
50
17.7252113
51
46.447314
0
ARC
8
right_labelLayer
10
256.9812306
20
85.2364752
40
0.6436386
50
4.9428885
51
18.190003
0
ARC
8
right_labelLayer
10
256.6992569
20
85.2059936
40
0.92721
50
359.8849053
51
5.3181458
0
ARC
8
right_labelLayer
10
256.7878581
20
85.1984361
40
0.838626
50
349.8344067
51
0.3890841
0
ARC
8
right_labelLayer
10
257.0931604
20
85.1414816
40
0.5280689
50
332.6322604
51
350.0705611
0
ARC
8
right_labelLayer
10
257.2119981
20
85.0828001
40
0.3955643
50
313.6152556
51
332.2678078
0
ARC
8
right_labelLayer
10
257.1547259
20
85.1349479
40
0.4728577
50
269.1788491
51
314.2807599
0
ARC
8
right_labelLayer
10
257.1425764
20
85.176982
40
0.5148712
50
250.4999921
51
270.5979039
0
ARC
8
right_labelLayer
10
257.1269965
20
85.1187211
40
0.4547762
50
225.1301323
51
249.9000798
0
ARC
8
right_labelLayer
10
257.1025993
20
85.0917707
40
0.4184676
50
197.793406
51
224.8942353
0
ARC
8
right_labelLayer
10
257.3309224
20
85.170016
40
0.6597962
50
184.992504
51
198.2041619
0
ARC
8
right_labelLayer
10
257.6264006
20
85.2021359
40
0.9569691
50
179.8805492
51
185.3687424
0
LINE
8
right_labelLayer
10
261.7963867
20
83.7539357
11
263.6469726
21
83.7539357
0
LINE
8
right_labelLayer
10
263.6469726
20
83.7539357
11
263.6469726
21
83.2412404
0
LINE
8
right_labelLayer
10
263.6469726
20
83.2412404
11
262.6557617
21
83.1240529
0
LINE
8
right_labelLayer
10
260.8295898
20
79.2519826
11
261.7768555
21
79.2519826
0
LINE
8
right_labelLayer
10
261.5180664
20
78.5244435
11
260.5463867
21
78.5244435
0
ARC
8
right_labelLayer
10
261.6228444
20
82.3066141
40
1.3172412
50
29.4584355
51
38.357683
0
ARC
8
right_labelLayer
10
261.084581
20
81.9993401
40
1.937031
50
23.1845571
51
29.5422536
0
ARC
8
right_labelLayer
10
260.5710634
20
81.7716087
40
2.4987444
50
21.2506606
51
23.348994
0
ARC
8
right_labelLayer
10
261.4439702
20
82.1187695
40
1.5593805
50
6.8504756
51
20.9871732
0
ARC
8
right_labelLayer
10
261.0047646
20
82.0592215
40
2.0025647
50
359.8711188
51
7.0431717
0
ARC
8
right_labelLayer
10
261.1492873
20
82.0353956
40
1.8581373
50
342.5649641
51
0.5957842
0
ARC
8
right_labelLayer
10
261.491982
20
81.9407645
40
1.5028843
50
310.6097633
51
342.0923725
0
ARC
8
right_labelLayer
10
261.2998098
20
82.164295
40
1.7976656
50
284.9315704
51
310.6222782
0
ARC
8
right_labelLayer
10
261.0593291
20
83.0069742
40
2.673898
50
272.533477
51
285.2579517
0
ARC
8
right_labelLayer
10
260.9974946
20
83.8517434
40
3.5206597
50
269.9692554
51
272.9310998
0
ARC
8
right_labelLayer
10
260.9898267
20
82.9360526
40
2.6049749
50
263.4836517
51
270.1271018
0
ARC
8
right_labelLayer
10
260.9473803
20
82.5329406
40
2.1996532
50
259.4963263
51
263.390514
0
ARC
8
right_labelLayer
10
261.2100018
20
79.0895484
40
1.4423304
50
117.3935117
51
128.4095782
0
ARC
8
right_labelLayer
10
260.838693
20
79.5501833
40
0.8507089
50
128.0882461
51
147.1400085
0
ARC
8
right_labelLayer
10
260.6386476
20
79.6844295
40
0.6098452
50
147.5369052
51
180.2592566
0
ARC
8
right_labelLayer
10
260.4488733
20
79.6764784
40
0.4200968
50
179.2919003
51
198.3580747
0
ARC
8
right_labelLayer
10
260.3702173
20
79.6558064
40
0.3389724
50
199.2291455
51
239.569174
0
ARC
8
right_labelLayer
10
260.4357522
20
79.7464476
40
0.450445
50
238.2210909
51
239.8446227
0
ARC
8
right_labelLayer
10
260.4874629
20
79.8529492
40
0.5685779
50
240.7302515
51
254.5026882
0
ARC
8
right_labelLayer
10
260.6426432
20
80.3876988
40
1.1253684
50
254.163759
51
262.2123805
0
ARC
8
right_labelLayer
10
260.7655661
20
81.2462764
40
1.9926914
50
262.0556566
51
267.2083251
0
ARC
8
right_labelLayer
10
260.8249445
20
82.335395
40
3.0834159
50
267.0919511
51
270.0863196
0
ARC
8
right_labelLayer
10
261.7945749
20
75.9341151
40
3.3179148
50
81.5744542
51
90.305991
0
ARC
8
right_labelLayer
10
261.9765667
20
77.1210468
40
2.117136
50
68.3671719
51
81.7399035
0
ARC
8
right_labelLayer
10
262.2142679
20
77.7285303
40
1.4648131
50
52.187998
51
68.2500504
0
ARC
8
right_labelLayer
10
262.3805976
20
77.9526499
40
1.1857956
50
8.6201441
51
51.8982427
0
ARC
8
right_labelLayer
10
261.7976651
20
77.8293052
40
1.7809662
50
359.7430585
51
9.7326863
0
ARC
8
right_labelLayer
10
261.8237594
20
77.799261
40
1.7549925
50
340.5269055
51
0.7201363
0
ARC
8
right_labelLayer
10
262.0816137
20
77.7350587
40
1.4907021
50
302.9903687
51
339.5494632
0
ARC
8
right_labelLayer
10
261.8111444
20
78.0787088
40
1.9266227
50
303.186871
51
304.1723557
0
ARC
8
right_labelLayer
10
261.5586727
20
78.5157857
40
2.4307644
50
286.2542499
51
302.5279861
0
ARC
8
right_labelLayer
10
261.0996034
20
80.0300159
40
4.0129985
50
276.4939799
51
286.4953491
0
ARC
8
right_labelLayer
10
260.8131723
20
82.4244118
40
6.4244412
50
269.7544952
51
276.6169638
0
ARC
8
right_labelLayer
10
260.7642542
20
80.5412804
40
4.5413013
50
262.5634905
51
270.269874
0
ARC
8
right_labelLayer
10
260.5418319
20
78.8926737
40
2.8777827
50
251.2102119
51
262.7063732
0
ARC
8
right_labelLayer
10
260.2212458
20
77.9517007
40
1.8836975
50
235.9668488
51
251.2228769
0
ARC
8
right_labelLayer
10
259.8814489
20
77.4669405
40
1.2918359
50
208.9036077
51
236.4231289
0
ARC
8
right_labelLayer
10
259.9126442
20
77.453865
40
1.3130936
50
182.2080073
51
207.7461473
0
ARC
8
right_labelLayer
10
260.309583
20
77.4935224
40
1.7114385
50
179.9783168
51
183.0227221
0
ARC
8
right_labelLayer
10
259.8373188
20
77.5159139
40
1.2393651
50
138.3916057
51
181.005266
0
ARC
8
right_labelLayer
10
259.9682008
20
77.3982889
40
1.4153332
50
113.8121851
51
138.3495872
0
ARC
8
right_labelLayer
10
260.2164604
20
76.8621887
40
2.006058
50
102.2870884
51
114.1172558
0
ARC
8
right_labelLayer
10
260.1384495
20
79.5877732
40
0.8412414
50
216.5861457
51
245.4968844
0
ARC
8
right_labelLayer
10
260.2587591
20
79.6898557
40
0.9987424
50
215.4649169
51
217.1747566
0
ARC
8
right_labelLayer
10
260.0582874
20
79.5450591
40
0.7514541
50
182.1767188
51
215.3415444
0
ARC
8
right_labelLayer
10
260.2367913
20
79.5642175
40
0.9306391
50
179.9836838
51
182.93799
0
ARC
8
right_labelLayer
10
260.2330263
20
79.5723173
40
0.9269071
50
161.7225736
51
180.4843014
0
ARC
8
right_labelLayer
10
260.131116
20
79.6001249
40
0.8214362
50
144.4963572
51
161.3350175
0
ARC
8
right_labelLayer
10
260.402767
20
79.3976683
40
1.1601805
50
132.7258382
51
144.1480415
0
ARC
8
right_labelLayer
10
260.838176
20
78.9327058
40
1.7971725
50
125.2212527
51
132.8655526
0
ARC
8
right_labelLayer
10
261.2758453
20
78.3249575
40
2.54609
50
121.2351404
51
125.3795791
0
ARC
8
right_labelLayer
10
260.49992
20
81.814534
40
1.4209547
50
215.1640878
51
247.4747802
0
ARC
8
right_labelLayer
10
260.7652124
20
82.0286275
40
1.7612738
50
212.4714007
51
215.8874468
0
ARC
8
right_labelLayer
10
260.6954129
20
81.9786952
40
1.6755858
50
183.0160742
51
212.3123286
0
ARC
8
right_labelLayer
10
261.063178
20
82.0196786
40
2.0451117
50
179.9759439
51
183.6205654
0
ARC
8
right_labelLayer
10
261.3597983
20
82.0403156
40
2.3418154
50
166.8196024
51
180.4839117
0
ARC
8
right_labelLayer
10
260.5829203
20
82.2364591
40
1.5407407
50
132.3287854
51
167.334073
0
ARC
8
right_labelLayer
10
260.686853
20
82.087064
40
1.721338
50
106.2188756
51
131.5377751
0
ARC
8
right_labelLayer
10
260.9498286
20
81.2355722
40
2.6124343
50
93.6329726
51
106.5408745
0
ARC
8
right_labelLayer
10
261.0356761
20
80.2718479
40
3.5797462
50
89.9379832
51
94.0268513
0
ARC
8
right_labelLayer
10
261.0495784
20
80.7447163
40
3.1068919
50
82.5852419
51
90.1849251
0
ARC
8
right_labelLayer
10
261.1445112
20
81.4792393
40
2.3662599
50
74.0089194
51
82.5694553
0
ARC
8
right_labelLayer
10
260.193381
20
77.4928644
40
0.8140618
50
179.2207509
51
200.9354958
0
ARC
8
right_labelLayer
10
260.096572
20
77.4704491
40
0.7157645
50
202.028696
51
236.1457382
0
ARC
8
right_labelLayer
10
260.242458
20
77.6556787
40
0.9510301
50
235.0634158
51
238.5041866
0
ARC
8
right_labelLayer
10
260.4120896
20
77.9586629
40
1.2980715
50
239.1066419
51
254.486283
0
ARC
8
right_labelLayer
10
260.6382398
20
78.7384234
40
2.1099316
50
254.2324099
51
263.4937053
0
ARC
8
right_labelLayer
10
260.7802935
20
79.9416002
40
3.321459
50
263.4108364
51
270.1457389
0
ARC
8
right_labelLayer
10
260.7955343
20
80.890536
40
4.2703894
50
269.9088677
51
269.9983343
0
ARC
8
right_labelLayer
10
260.8148357
20
82.0689851
40
5.4488731
50
269.7957363
51
275.399144
0
ARC
8
right_labelLayer
10
261.0187736
20
79.9754137
40
3.3454064
50
275.2956682
51
283.3516052
0
ARC
8
right_labelLayer
10
261.3510292
20
78.6069246
40
1.9371928
50
283.1370193
51
295.857327
0
ARC
8
right_labelLayer
10
261.5971879
20
78.0695176
40
1.3462933
50
296.4048994
51
301.8007822
0
ARC
8
right_labelLayer
10
261.6937403
20
77.9364222
40
1.1823577
50
301.2230681
51
318.6238223
0
ARC
8
right_labelLayer
10
261.9114463
20
77.7353191
40
0.8860926
50
319.0765405
51
1.1407031
0
ARC
8
right_labelLayer
10
261.7007433
20
77.7616467
40
1.0966543
50
359.5461056
51
10.9904102
0
ARC
8
right_labelLayer
10
262.1243486
20
77.8478066
40
0.6644034
50
10.6608465
51
30.9361923
0
ARC
8
right_labelLayer
10
262.2586575
20
77.9223444
40
0.510908
50
31.5094741
51
58.0778472
0
ARC
8
right_labelLayer
10
262.1327771
20
77.6969516
40
0.7688744
50
58.9972302
51
73.8586689
0
ARC
8
right_labelLayer
10
261.8783443
20
76.864018
40
1.6397575
50
73.4099835
51
81.5906975
0
ARC
8
right_labelLayer
10
261.6627656
20
75.4689091
40
3.0514079
50
81.4172901
51
86.5756718
0
ARC
8
right_labelLayer
10
261.530661
20
73.3669954
40
5.1574635
50
86.5054509
51
90.1399173
0
ARC
8
right_labelLayer
10
260.534795
20
76.6612654
40
1.8632142
50
89.6435407
51
100.02092
0
ARC
8
right_labelLayer
10
260.4176908
20
77.2983083
40
1.2155211
50
99.8103442
51
116.8229
0
ARC
8
right_labelLayer
10
260.3036075
20
77.538892
40
0.9493686
50
117.2303408
51
130.5024018
0
ARC
8
right_labelLayer
10
260.2450444
20
77.6141583
40
0.8541131
50
130.7944641
51
169.0413514
0
ARC
8
right_labelLayer
10
260.6763601
20
77.5125827
40
1.2969945
50
168.2580908
51
180.3819917
0
ARC
8
right_labelLayer
10
261.4009655
20
82.0279663
40
1.5821641
50
179.5617305
51
191.6528976
0
ARC
8
right_labelLayer
10
260.8508691
20
81.909116
40
1.0194137
50
191.3555176
51
213.3660008
0
ARC
8
right_labelLayer
10
260.718764
20
81.832839
40
0.8671778
50
213.9574379
51
227.7971109
0
ARC
8
right_labelLayer
10
260.8336969
20
81.9722361
40
1.0476806
50
228.262088
51
254.734114
0
ARC
8
right_labelLayer
10
260.9805346
20
82.4756015
40
1.571973
50
254.4016655
51
267.4348567
0
ARC
8
right_labelLayer
10
261.0188429
20
82.9893801
40
2.0870072
50
267.0154826
51
270.0323027
0
ARC
8
right_labelLayer
10
261.0438822
20
82.668035
40
1.7658231
50
269.225704
51
284.37729
0
ARC
8
right_labelLayer
10
261.2845605
20
81.8295041
40
0.8941392
50
282.7796821
51
346.4828474
0
ARC
8
right_labelLayer
10
260.564999
20
82.0333247
40
1.6416832
50
345.436225
51
0.7466245
0
ARC
8
right_labelLayer
10
260.4638538
20
82.079641
40
1.7428674
50
359.180607
51
15.0431853
0
ARC
8
right_labelLayer
10
261.2535755
20
82.3100115
40
0.9205835
50
13.953577
51
77.6673685
0
ARC
8
right_labelLayer
10
261.0269954
20
81.4980473
40
1.7628571
50
76.1094799
51
90.7028433
0
ARC
8
right_labelLayer
10
260.9930802
20
81.5600641
40
1.700752
50
89.5859338
51
101.3334363
0
ARC
8
right_labelLayer
10
260.871539
20
82.1397596
40
1.1084879
50
101.0620546
51
121.973896
0
ARC
8
right_labelLayer
10
260.7861226
20
82.2934204
40
0.9329508
50
122.5211363
51
134.9966864
0
ARC
8
right_labelLayer
10
260.8212892
20
82.2723514
40
0.972766
50
135.5839798
51
163.001602
0
ARC
8
right_labelLayer
10
261.3349901
20
82.1039788
40
1.5132865
50
162.5912121
51
175.734276
0
ARC
8
right_labelLayer
10
261.951166
20
82.0432838
40
2.1323206
50
175.3394328
51
180.0863953
0
LINE
8
right_labelLayer
10
269.2182617
20
78.4023732
11
268.4077148
21
78.4023732
0
LINE
8
right_labelLayer
10
268.4077148
20
78.4023732
11
268.4077148
21
81.8642873
0
LINE
8
right_labelLayer
10
265.5561523
20
81.2002248
11
265.5561523
21
78.4023732
0
LINE
8
right_labelLayer
10
265.5561523
20
78.4023732
11
264.7456055
21
78.4023732
0
LINE
8
right_labelLayer
10
264.7456055
20
78.4023732
11
264.7456055
21
86.0000294
0
LINE
8
right_labelLayer
10
264.7456055
20
86.0000294
11
265.5561523
21
86.0000294
0
LINE
8
right_labelLayer
10
265.5561523
20
86.0000294
11
265.5561523
21
83.7002248
0
LINE
8
right_labelLayer
10
265.5170898
20
83.0117482
11
265.565918
21
83.0117482
0
LINE
8
right_labelLayer
10
269.2182617
20
81.8935841
11
269.2182617
21
78.4023732
0
ARC
8
right_labelLayer
10
266.1165522
20
81.8774272
40
2.2912003
50
359.6714086
51
8.6877673
0
ARC
8
right_labelLayer
10
266.9657244
20
82.0121021
40
1.4314371
50
8.4931437
51
22.6579514
0
ARC
8
right_labelLayer
10
267.3971708
20
82.1913959
40
0.9642203
50
22.7024886
51
42.3419129
0
ARC
8
right_labelLayer
10
267.4456724
20
82.213215
40
0.9138243
50
43.3790738
51
71.5386345
0
ARC
8
right_labelLayer
10
267.2643189
20
81.7064663
40
1.4519687
50
71.0828229
51
84.3691283
0
ARC
8
right_labelLayer
10
267.1829115
20
81.014303
40
2.1488197
50
84.0198256
51
90.1510621
0
ARC
8
right_labelLayer
10
267.1597766
20
80.7103445
40
2.4528331
50
89.5919261
51
100.359493
0
ARC
8
right_labelLayer
10
266.9860951
20
81.6230712
40
1.5237675
50
100.1067964
51
118.0847299
0
ARC
8
right_labelLayer
10
266.8094454
20
81.9697019
40
1.1348129
50
118.4551276
51
139.6706242
0
ARC
8
right_labelLayer
10
266.9867925
20
81.848482
40
1.3486478
50
140.6208301
51
160.5048649
0
ARC
8
right_labelLayer
10
267.9216017
20
81.5024201
40
2.3453975
50
160.1567186
51
171.5312476
0
ARC
8
right_labelLayer
10
269.4341071
20
81.2627819
40
3.8767288
50
171.3202178
51
178.3406869
0
ARC
8
right_labelLayer
10
270.7874161
20
81.202327
40
5.231264
50
178.1080256
51
180.0230246
0
ARC
8
right_labelLayer
10
258.2650565
20
83.6915284
40
7.291101
50
357.867349
51
0.0683384
0
ARC
8
right_labelLayer
10
260.7417185
20
83.5970318
40
4.8126385
50
354.98283
51
357.8943347
0
ARC
8
right_labelLayer
10
262.3775293
20
83.4545862
40
3.1706382
50
351.9713413
51
354.96189
0
ARC
8
right_labelLayer
10
266.9388479
20
82.1529324
40
1.6194139
50
119.8316015
51
147.9725761
0
ARC
8
right_labelLayer
10
267.1349541
20
81.8516682
40
1.9784151
50
116.6657806
51
120.4182286
0
ARC
8
right_labelLayer
10
267.1715558
20
81.7555187
40
2.0807908
50
96.6652694
51
116.3782601
0
ARC
8
right_labelLayer
10
267.2504459
20
81.2112317
40
2.6305993
50
89.8927272
51
96.9959475
0
ARC
8
right_labelLayer
10
267.2756728
20
80.5533923
40
3.2884967
50
80.6862831
51
90.3537204
0
ARC
8
right_labelLayer
10
267.4804393
20
81.7577844
40
2.0668551
50
65.6022422
51
80.8844399
0
ARC
8
right_labelLayer
10
267.7263192
20
82.3115579
40
1.4609763
50
46.7401062
51
65.4130663
0
ARC
8
right_labelLayer
10
267.7430325
20
82.3643261
40
1.4112978
50
19.2204194
51
45.7660738
0
ARC
8
right_labelLayer
10
266.929267
20
82.062656
40
2.2790772
50
6.4733876
51
19.6468091
0
ARC
8
right_labelLayer
10
265.7133306
20
81.9061556
40
3.5049537
50
359.7944931
51
6.7744354
0
LINE
8
right_labelLayer
10
273.3442383
20
79.0713185
11
273.3442383
21
78.4512013
0
LINE
8
right_labelLayer
10
270.9418945
20
79.9404591
11
270.9418945
21
83.1240529
0
LINE
8
right_labelLayer
10
270.9418945
20
83.1240529
11
270.175293
21
83.1240529
0
LINE
8
right_labelLayer
10
270.175293
20
83.1240529
11
270.175293
21
83.5146779
0
LINE
8
right_labelLayer
10
270.175293
20
83.5146779
11
270.9418945
21
83.8515919
0
LINE
8
right_labelLayer
10
270.9418945
20
83.8515919
11
271.2836914
21
84.9941701
0
LINE
8
right_labelLayer
10
271.2836914
20
84.9941701
11
271.7524414
21
84.9941701
0
LINE
8
right_labelLayer
10
271.7524414
20
84.9941701
11
271.7524414
21
83.7539357
0
LINE
8
right_labelLayer
10
271.7524414
20
83.7539357
11
273.3051758
21
83.7539357
0
LINE
8
right_labelLayer
10
273.3051758
20
83.7539357
11
273.3051758
21
83.1240529
0
LINE
8
right_labelLayer
10
273.3051758
20
83.1240529
11
271.7524414
21
83.1240529
0
LINE
8
right_labelLayer
10
271.7524414
20
83.1240529
11
271.7524414
21
79.9746388
0
ARC
8
right_labelLayer
10
272.6173738
20
81.6356198
40
2.6619633
50
269.8803835
51
278.3028088
0
ARC
8
right_labelLayer
10
272.6427687
20
81.4282919
40
2.4531461
50
278.4151604
51
279.0078082
0
ARC
8
right_labelLayer
10
272.3440088
20
83.3367861
40
4.3848809
50
278.9589926
51
280.5103845
0
ARC
8
right_labelLayer
10
272.628691
20
81.8092785
40
2.8310723
50
280.4847341
51
282.6268196
0
ARC
8
right_labelLayer
10
272.8782926
20
80.7003515
40
1.6944027
50
282.5878181
51
285.5794248
0
ARC
8
right_labelLayer
10
273.0038185
20
80.2387507
40
1.2160524
50
285.723602
51
286.256529
0
ARC
8
right_labelLayer
10
273.0034528
20
79.1719838
40
0.7972842
50
287.9889939
51
295.3047539
0
ARC
8
right_labelLayer
10
272.8111583
20
79.7537794
40
1.41003
50
283.3069857
51
288.1196685
0
ARC
8
right_labelLayer
10
272.6080278
20
80.6011073
40
2.2813636
50
280.0070297
51
283.3735028
0
ARC
8
right_labelLayer
10
272.4718356
20
81.3403123
40
3.0329939
50
279.1866132
51
280.1141291
0
ARC
8
right_labelLayer
10
272.3886696
20
81.8133591
40
3.5132568
50
275.5261107
51
279.2938742
0
ARC
8
right_labelLayer
10
272.482701
20
80.8312818
40
2.5266888
50
270.893275
51
275.5483136
0
ARC
8
right_labelLayer
10
272.4944994
20
80.3849359
40
2.080219
50
270.0035655
51
270.760006
0
ARC
8
right_labelLayer
10
272.4619203
20
80.4214949
40
2.1170306
50
253.7848147
51
270.8852671
0
ARC
8
right_labelLayer
10
272.211109
20
79.5661304
40
1.2256562
50
190.3817547
51
253.8772429
0
ARC
8
right_labelLayer
10
273.4894869
20
79.9117821
40
2.5477537
50
179.355076
51
192.8477713
0
ARC
8
right_labelLayer
10
273.3845765
20
79.9644297
40
1.6321671
50
179.6416142
51
189.7505826
0
ARC
8
right_labelLayer
10
272.8083862
20
79.8616583
40
1.0469013
50
189.5478993
51
205.7874295
0
ARC
8
right_labelLayer
10
272.571603
20
79.7524692
40
0.7862115
50
206.1294529
51
221.4084401
0
ARC
8
right_labelLayer
10
272.5450547
20
79.7323248
40
0.75298
50
221.5949468
51
262.3504817
0
ARC
8
right_labelLayer
10
272.6081978
20
80.0570283
40
1.083372
50
261.3266007
51
270.1913759
0
LINE
8
bottom_outsideCutPath
10
331
20
241
11
331
21
223.5
0
LINE
8
bottom_outsideCutPath
10
331
20
223.5
11
326
21
223.5
0
LINE
8
bottom_outsideCutPath
10
326
20
223.5
11
326
21
208.5
0
LINE
8
bottom_outsideCutPath
10
326
20
208.5
11
331
21
208.5
0
LINE
8
bottom_outsideCutPath
10
331
20
208.5
11
331
21
193.5
0
LINE
8
bottom_outsideCutPath
10
331
20
193.5
11
326
21
193.5
0
LINE
8
bottom_outsideCutPath
10
326
20
193.5
11
326
21
178.5
0
LINE
8
bottom_outsideCutPath
10
326
20
178.5
11
331
21
178.5
0
LINE
8
bottom_outsideCutPath
10
331
20
178.5
11
331
21
163.5
0
LINE
8
bottom_outsideCutPath
10
331
20
163.5
11
326
21
163.5
0
LINE
8
bottom_outsideCutPath
10
326
20
163.5
11
326
21
148.5
0
LINE
8
bottom_outsideCutPath
10
326
20
148.5
11
331
21
148.5
0
LINE
8
bottom_outsideCutPath
10
331
20
148.5
11
331
21
133.5
0
LINE
8
bottom_outsideCutPath
10
331
20
133.5
11
331
21
131
0
LINE
8
bottom_outsideCutPath
10
331
20
131
11
343.5
21
131
0
LINE
8
bottom_outsideCutPath
10
343.5
20
131
11
343.5
21
126
0
LINE
8
bottom_outsideCutPath
10
343.5
20
126
11
358.5
21
126
0
LINE
8
bottom_outsideCutPath
10
358.5
20
126
11
358.5
21
131
0
LINE
8
bottom_outsideCutPath
10
358.5
20
131
11
373.5
21
131
0
LINE
8
bottom_outsideCutPath
10
373.5
20
131
11
373.5
21
126
0
LINE
8
bottom_outsideCutPath
10
373.5
20
126
11
388.5
21
126
0
LINE
8
bottom_outsideCutPath
10
388.5
20
126
11
388.5
21
131
0
LINE
8
bottom_outsideCutPath
10
388.5
20
131
11
403.5
21
131
0
LINE
8
bottom_outsideCutPath
10
403.5
20
131
11
403.5
21
126
0
LINE
8
bottom_outsideCutPath
10
403.5
20
126
11
418.5
21
126
0
LINE
8
bottom_outsideCutPath
10
418.5
20
126
11
418.5
21
131
0
LINE
8
bottom_outsideCutPath
10
418.5
20
131
11
433.5
21
131
0
LINE
8
bottom_outsideCutPath
10
433.5
20
131
11
433.5
21
126
0
LINE
8
bottom_outsideCutPath
10
433.5
20
126
11
448.5
21
126
0
LINE
8
bottom_outsideCutPath
10
448.5
20
126
11
448.5
21
131
0
LINE
8
bottom_outsideCutPath
10
448.5
20
131
11
463.5
21
131
0
LINE
8
bottom_outsideCutPath
10
463.5
20
131
11
463.5
21
126
0
LINE
8
bottom_outsideCutPath
10
463.5
20
126
11
478.5
21
126
0
LINE
8
bottom_outsideCutPath
10
478.5
20
126
11
478.5
21
131
0
LINE
8
bottom_outsideCutPath
10
478.5
20
131
11
493.5
21
131
0
LINE
8
bottom_outsideCutPath
10
493.5
20
131
11
493.5
21
126
0
LINE
8
bottom_outsideCutPath
10
493.5
20
126
11
508.5
21
126
0
LINE
8
bottom_outsideCutPath
10
508.5
20
126
11
508.5
21
131
0
LINE
8
bottom_outsideCutPath
10
508.5
20
131
11
521
21
131
0
LINE
8
bottom_outsideCutPath
10
521
20
131
11
521
21
148.5
0
LINE
8
bottom_outsideCutPath
10
521
20
148.5
11
526
21
148.5
0
LINE
8
bottom_outsideCutPath
10
526
20
148.5
11
526
21
163.5
0
LINE
8
bottom_outsideCutPath
10
526
20
163.5
11
521
21
163.5
0
LINE
8
bottom_outsideCutPath
10
521
20
163.5
11
521
21
178.5
0
LINE
8
bottom_outsideCutPath
10
521
20
178.5
11
526
21
178.5
0
LINE
8
bottom_outsideCutPath
10
526
20
178.5
11
526
21
193.5
0
LINE
8
bottom_outsideCutPath
10
526
20
193.5
11
521
21
193.5
0
LINE
8
bottom_outsideCutPath
10
521
20
193.5
11
521
21
208.5
0
LINE
8
bottom_outsideCutPath
10
521
20
208.5
11
526
21
208.5
0
LINE
8
bottom_outsideCutPath
10
526
20
208.5
11
526
21
223.5
0
LINE
8
bottom_outsideCutPath
10
526
20
223.5
11
521
21
223.5
0
LINE
8
bottom_outsideCutPath
10
521
20
223.5
11
521
21
238.5
0
LINE
8
bottom_outsideCutPath
10
521
20
238.5
11
521
21
241
0
LINE
8
bottom_outsideCutPath
10
521
20
241
11
508.5
21
241
0
LINE
8
bottom_outsideCutPath
10
508.5
20
241
11
508.5
21
246
0
LINE
8
bottom_outsideCutPath
10
508.5
20
246
11
493.5
21
246
0
LINE
8
bottom_outsideCutPath
10
493.5
20
246
11
493.5
21
241
0
LINE
8
bottom_outsideCutPath
10
493.5
20
241
11
478.5
21
241
0
LINE
8
bottom_outsideCutPath
10
478.5
20
241
11
478.5
21
246
0
LINE
8
bottom_outsideCutPath
10
478.5
20
246
11
463.5
21
246
0
LINE
8
bottom_outsideCutPath
10
463.5
20
246
11
463.5
21
241
0
LINE
8
bottom_outsideCutPath
10
463.5
20
241
11
448.5
21
241
0
LINE
8
bottom_outsideCutPath
10
448.5
20
241
11
448.5
21
246
0
LINE
8
bottom_outsideCutPath
10
448.5
20
246
11
433.5
21
246
0
LINE
8
bottom_outsideCutPath
10
433.5
20
246
11
433.5
21
241
0
LINE
8
bottom_outsideCutPath
10
433.5
20
241
11
418.5
21
241
0
LINE
8
bottom_outsideCutPath
10
418.5
20
241
11
418.5
21
246
0
LINE
8
bottom_outsideCutPath
10
418.5
20
246
11
403.5
21
246
0
LINE
8
bottom_outsideCutPath
10
403.5
20
246
11
403.5
21
241
0
LINE
8
bottom_outsideCutPath
10
403.5
20
241
11
388.5
21
241
0
LINE
8
bottom_outsideCutPath
10
388.5
20
241
11
388.5
21
246
0
LINE
8
bottom_outsideCutPath
10
388.5
20
246
11
373.5
21
246
0
LINE
8
bottom_outsideCutPath
10
373.5
20
246
11
373.5
21
241
0
LINE
8
bottom_outsideCutPath
10
373.5
20
241
11
358.5
21
241
0
LINE
8
bottom_outsideCutPath
10
358.5
20
241
11
358.5
21
246
0
LINE
8
bottom_outsideCutPath
10
358.5
20
246
11
343.5
21
246
0
LINE
8
bottom_outsideCutPath
10
343.5
20
246
11
343.5
21
241
0
LINE
8
bottom_outsideCutPath
10
343.5
20
241
11
331
21
241
0
LINE
8
bottom_labelLayer
10
388.4647869
20
178.652647
11
388.3241619
21
178.652647
0
LINE
8
bottom_labelLayer
10
388.3241619
20
178.652647
11
387.9140056
21
177.0003032
0
LINE
8
bottom_labelLayer
10
387.9140056
20
177.0003032
11
386.5194744
21
177.0003032
0
LINE
8
bottom_labelLayer
10
386.5194744
20
177.0003032
11
386.5194744
21
195.2346782
0
LINE
8
bottom_labelLayer
10
386.5194744
20
195.2346782
11
388.4647869
21
195.2346782
0
LINE
8
bottom_labelLayer
10
388.4647869
20
195.2346782
11
388.4647869
21
190.8049907
0
LINE
8
bottom_labelLayer
10
388.3710369
20
188.1331157
11
388.4647869
21
188.1331157
0
ARC
8
bottom_labelLayer
10
392.5543936
20
184.1097246
40
5.9455525
50
74.2393375
51
90.5623776
0
ARC
8
bottom_labelLayer
10
392.9475325
20
185.5519759
40
4.4507589
50
38.5631365
51
74.0670293
0
ARC
8
bottom_labelLayer
10
391.9358109
20
184.7653037
40
5.7322603
50
16.4709215
51
38.4075341
0
ARC
8
bottom_labelLayer
10
389.0211901
20
183.8513615
40
8.7865474
50
5.133838
51
16.7973492
0
ARC
8
bottom_labelLayer
10
385.3416894
20
183.4604976
40
12.4864073
50
359.8779389
51
5.4093642
0
ARC
8
bottom_labelLayer
10
386.4224385
20
183.3666065
40
11.4058281
50
350.6562831
51
0.3380273
0
ARC
8
bottom_labelLayer
10
390.3987049
20
182.6902875
40
7.3725456
50
335.8305891
51
350.8254844
0
ARC
8
bottom_labelLayer
10
392.1477856
20
181.9353586
40
5.4677649
50
321.3161458
51
335.5436187
0
ARC
8
bottom_labelLayer
10
392.8164712
20
181.3904812
40
4.6052297
50
274.0640024
51
321.4081028
0
ARC
8
bottom_labelLayer
10
392.5049506
20
183.3637943
40
6.5978721
50
269.9225933
51
275.5481475
0
ARC
8
bottom_labelLayer
10
392.4632326
20
182.666398
40
5.900561
50
255.7755484
51
270.3185388
0
ARC
8
bottom_labelLayer
10
392.2948442
20
181.9182696
40
5.1340345
50
245.9801715
51
255.5455942
0
ARC
8
bottom_labelLayer
10
391.9687006
20
181.159817
40
4.3085161
50
215.5850158
51
245.8361621
0
ARC
8
bottom_labelLayer
10
347.9066206
20
190.7706973
40
40.5581808
50
358.1123256
51
0.0484457
0
ARC
8
bottom_labelLayer
10
359.1943416
20
190.3917464
40
29.2641033
50
355.7238694
51
358.1258854
0
ARC
8
bottom_labelLayer
10
364.1315853
20
190.0528312
40
24.3153517
50
355.4717421
51
355.6527888
0
ARC
8
bottom_labelLayer
10
392.0927097
20
185.6032678
40
4.4228898
50
95.1835114
51
145.1109019
0
ARC
8
bottom_labelLayer
10
392.481465
20
183.4110508
40
6.6439559
50
89.8743359
51
96.8145463
0
ARC
8
bottom_labelLayer
10
392.1740599
20
182.959758
40
5.4664782
50
89.5731239
51
100.7324421
0
ARC
8
bottom_labelLayer
10
391.7693878
20
185.0042921
40
3.3823909
50
100.4469409
51
119.6700738
0
ARC
8
bottom_labelLayer
10
391.3941332
20
185.7058748
40
2.5871268
50
120.1402921
51
142.4249147
0
ARC
8
bottom_labelLayer
10
392.0149601
20
185.2951767
40
3.3300333
50
143.3382316
51
161.2559928
0
ARC
8
bottom_labelLayer
10
394.611132
20
184.3734477
40
6.0848252
50
160.89263
51
171.233437
0
ARC
8
bottom_labelLayer
10
398.9451404
20
183.6742675
40
10.4748073
50
171.0667716
51
177.8456918
0
ARC
8
bottom_labelLayer
10
403.4522447
20
183.445028
40
14.987462
50
177.6176493
51
180.0425531
0
ARC
8
bottom_labelLayer
10
401.3269319
20
183.3836722
40
12.8622431
50
179.7762696
51
185.7075296
0
ARC
8
bottom_labelLayer
10
396.2557842
20
182.8611614
40
7.7642873
50
185.5924686
51
194.2050835
0
ARC
8
bottom_labelLayer
10
393.0072915
20
182.0180613
40
4.4082768
50
193.9430235
51
208.0218478
0
ARC
8
bottom_labelLayer
10
391.6929281
20
181.349407
40
2.9339851
50
208.5536475
51
217.5605739
0
ARC
8
bottom_labelLayer
10
391.5858566
20
181.3048748
40
2.822121
50
218.1690414
51
253.8047132
0
ARC
8
bottom_labelLayer
10
392.1093069
20
182.9187292
40
4.5182343
50
253.1382536
51
266.8482973
0
ARC
8
bottom_labelLayer
10
392.2560887
20
184.649757
40
6.254925
50
266.3775715
51
270.0510514
0
ARC
8
bottom_labelLayer
10
392.3031577
20
182.2725744
40
3.8779619
50
269.3869
51
285.8630723
0
ARC
8
bottom_labelLayer
10
392.5912665
20
181.2313114
40
2.7976114
50
286.0162882
51
326.8497398
0
ARC
8
bottom_labelLayer
10
391.2007068
20
182.1525072
40
4.4655995
50
326.7104982
51
343.6661705
0
ARC
8
bottom_labelLayer
10
388.5976453
20
182.9479161
40
7.1873631
50
343.4171489
51
353.6369015
0
ARC
8
bottom_labelLayer
10
384.6660206
20
183.4144306
40
11.1465053
50
353.4934728
51
0.220537
0
ARC
8
bottom_labelLayer
10
384.3194568
20
183.5038539
40
11.4930805
50
359.768089
51
6.3095294
0
ARC
8
bottom_labelLayer
10
388.6486631
20
184.000658
40
7.1355218
50
6.1648611
51
16.0396304
0
ARC
8
bottom_labelLayer
10
391.4374763
20
184.8225196
40
4.2282367
50
15.7779367
51
32.0151266
0
ARC
8
bottom_labelLayer
10
392.3072162
20
185.3205993
40
3.2269563
50
32.7033549
51
35.5242843
0
ARC
8
bottom_labelLayer
10
392.6251898
20
185.5466038
40
2.836848
50
35.5408415
51
79.801127
0
ARC
8
bottom_labelLayer
10
392.244229
20
183.9270659
40
4.4991151
50
78.6781277
51
90.3749445
0
ARC
8
bottom_labelLayer
10
402.2643465
20
183.3661551
40
10.048325
50
349.1761848
51
0.3862689
0
ARC
8
bottom_labelLayer
10
405.6473704
20
182.691742
40
6.5988955
50
330.2507088
51
349.4116414
0
ARC
8
bottom_labelLayer
10
406.6884957
20
182.1506074
40
5.4266731
50
318.1439818
51
329.7566157
0
ARC
8
bottom_labelLayer
10
406.87641
20
182.0000129
40
5.186241
50
278.8959142
51
317.9979157
0
ARC
8
bottom_labelLayer
10
406.3922402
20
184.3197039
40
7.5538476
50
269.7502864
51
279.8033342
0
ARC
8
bottom_labelLayer
10
406.3137168
20
183.0127046
40
6.2469429
50
253.5436952
51
270.4182511
0
ARC
8
bottom_labelLayer
10
406.1057683
20
182.2083086
40
5.4166642
50
238.8115546
51
253.2428384
0
ARC
8
bottom_labelLayer
10
406.0386567
20
182.0733473
40
5.2664697
50
207.7947012
51
238.6757963
0
ARC
8
bottom_labelLayer
10
407.0016669
20
182.663148
40
6.3938119
50
205.6560415
51
208.4461506
0
ARC
8
bottom_labelLayer
10
407.743426
20
182.9722111
40
7.1963807
50
188.9102519
51
205.3171454
0
ARC
8
bottom_labelLayer
10
410.2431893
20
183.3955899
40
9.7316027
50
179.774463
51
189.0932878
0
ARC
8
bottom_labelLayer
10
410.6119518
20
183.5023095
40
10.1005216
50
169.2442975
51
180.3880772
0
ARC
8
bottom_labelLayer
10
407.1818936
20
184.1803076
40
6.604245
50
150.7111509
51
169.4695445
0
ARC
8
bottom_labelLayer
10
406.0869002
20
184.7426291
40
5.3743262
50
138.1759262
51
150.2287565
0
ARC
8
bottom_labelLayer
10
405.9047709
20
184.8823923
40
5.1454329
50
99.1759396
51
137.9832734
0
ARC
8
bottom_labelLayer
10
406.4060919
20
182.5231129
40
7.5553974
50
89.7326269
51
100.0759727
0
ARC
8
bottom_labelLayer
10
406.5062905
20
183.5420113
40
6.5367395
50
73.5222687
51
90.5692303
0
ARC
8
bottom_labelLayer
10
406.8896311
20
184.9347876
40
5.0925067
50
41.1445685
51
73.2133837
0
ARC
8
bottom_labelLayer
10
406.1578645
20
184.305844
40
6.0573904
50
13.5014349
51
41.0703455
0
ARC
8
bottom_labelLayer
10
403.3306949
20
183.5660108
40
8.9793531
50
1.1277128
51
13.8800049
0
ARC
8
bottom_labelLayer
10
400.8948999
20
183.4355037
40
11.4175433
50
359.9919372
51
1.5419349
0
ARC
8
bottom_labelLayer
10
412.3781934
20
183.3833439
40
9.8510362
50
179.705971
51
187.9160766
0
ARC
8
bottom_labelLayer
10
408.765137
20
182.8643327
40
6.2009516
50
187.7639294
51
200.0976817
0
ARC
8
bottom_labelLayer
10
406.774718
20
182.1350406
40
4.0811324
50
200.0845823
51
216.9131551
0
ARC
8
bottom_labelLayer
10
406.0478889
20
181.616051
40
3.1883642
50
217.3009547
51
261.7099106
0
ARC
8
bottom_labelLayer
10
406.3853069
20
183.2261753
40
4.8313858
50
260.5033213
51
270.2476922
0
ARC
8
bottom_labelLayer
10
406.4497121
20
182.913086
40
4.5184611
50
269.4481552
51
284.7255622
0
ARC
8
bottom_labelLayer
10
406.8074111
20
181.5864933
40
3.1445297
50
284.5662336
51
322.6333806
0
ARC
8
bottom_labelLayer
10
405.9710902
20
182.1906977
40
4.1760003
50
323.0089257
51
342.6390464
0
ARC
8
bottom_labelLayer
10
403.5790408
20
182.9724887
40
6.6924346
50
342.3615655
51
353.7537662
0
ARC
8
bottom_labelLayer
10
400.0499514
20
183.3978733
40
10.2469298
50
353.5363176
51
0.2014268
0
ARC
8
bottom_labelLayer
10
400.5906704
20
183.4834373
40
9.7062742
50
359.7075639
51
7.8972796
0
ARC
8
bottom_labelLayer
10
404.1453705
20
183.9930386
40
6.1152909
50
7.7439865
51
20.0690117
0
ARC
8
bottom_labelLayer
10
406.1262037
20
184.71993
40
4.0053009
50
20.0256933
51
37.4350686
0
ARC
8
bottom_labelLayer
10
406.7834204
20
185.1862823
40
3.2000982
50
37.9577645
51
80.400624
0
ARC
8
bottom_labelLayer
10
406.4099417
20
183.5198508
40
4.9063088
50
79.345361
51
90.3174798
0
ARC
8
bottom_labelLayer
10
406.3407874
20
183.7966592
40
4.6296155
50
89.4805969
51
103.8805122
0
ARC
8
bottom_labelLayer
10
405.9517791
20
185.2779972
40
3.0982933
50
103.4685158
51
142.3118982
0
ARC
8
bottom_labelLayer
10
406.7080426
20
184.7461387
40
4.022135
50
142.90258
51
162.3749602
0
ARC
8
bottom_labelLayer
10
409.0910265
20
183.9520162
40
6.5338029
50
162.0653208
51
173.1674858
0
ARC
8
bottom_labelLayer
10
412.8067088
20
183.4781026
40
10.2795168
50
173.0086176
51
180.2463933
0
LINE
8
bottom_labelLayer
10
421.6288494
20
178.605772
11
421.6288494
21
177.1174907
0
LINE
8
bottom_labelLayer
10
415.8632244
20
180.6917095
11
415.8632244
21
188.3323345
0
LINE
8
bottom_labelLayer
10
415.8632244
20
188.3323345
11
414.0233806
21
188.3323345
0
LINE
8
bottom_labelLayer
10
414.0233806
20
188.3323345
11
414.0233806
21
189.2698345
0
LINE
8
bottom_labelLayer
10
414.0233806
20
189.2698345
11
415.8632244
21
190.0784282
0
LINE
8
bottom_labelLayer
10
415.8632244
20
190.0784282
11
416.6835369
21
192.8206157
0
LINE
8
bottom_labelLayer
10
416.6835369
20
192.8206157
11
417.8085369
21
192.8206157
0
LINE
8
bottom_labelLayer
10
417.8085369
20
192.8206157
11
417.8085369
21
189.8440532
0
LINE
8
bottom_labelLayer
10
417.8085369
20
189.8440532
11
421.5350994
21
189.8440532
0
LINE
8
bottom_labelLayer
10
421.5350994
20
189.8440532
11
421.5350994
21
188.3323345
0
LINE
8
bottom_labelLayer
10
421.5350994
20
188.3323345
11
417.8085369
21
188.3323345
0
LINE
8
bottom_labelLayer
10
417.8085369
20
188.3323345
11
417.8085369
21
180.7737407
0
ARC
8
bottom_labelLayer
10
419.8843775
20
184.760056
40
6.3886729
50
269.8803567
51
278.3028336
0
ARC
8
bottom_labelLayer
10
419.9452588
20
184.2626708
40
5.8877209
50
278.4155406
51
279.0081712
0
ARC
8
bottom_labelLayer
10
419.2282875
20
188.8429448
40
10.5237659
50
278.9590101
51
280.5103943
0
ARC
8
bottom_labelLayer
10
419.911475
20
185.17717
40
6.7948739
50
280.4847891
51
282.6267799
0
ARC
8
bottom_labelLayer
10
420.5106443
20
182.515214
40
4.0663209
50
282.58766
51
285.5794473
0
ARC
8
bottom_labelLayer
10
420.8097406
20
181.4149032
40
2.9261164
50
285.7245036
51
286.256048
0
ARC
8
bottom_labelLayer
10
420.810994
20
178.8472997
40
1.9134071
50
287.9887831
51
295.3048298
0
ARC
8
bottom_labelLayer
10
420.3495129
20
180.2434736
40
3.3838602
50
283.3068705
51
288.1198548
0
ARC
8
bottom_labelLayer
10
419.8619362
20
182.27731
40
5.4753182
50
280.0070318
51
283.3734769
0
ARC
8
bottom_labelLayer
10
419.5356142
20
184.0483217
40
7.2761039
50
279.186299
51
280.1142077
0
ARC
8
bottom_labelLayer
10
419.3355242
20
185.1863634
40
8.431508
50
275.5260434
51
279.2939448
0
ARC
8
bottom_labelLayer
10
419.5611662
20
182.8295655
40
6.0639347
50
270.8932317
51
275.5483613
0
ARC
8
bottom_labelLayer
10
419.5895129
20
181.7529524
40
4.9870241
50
270.0031482
51
270.7604232
0
ARC
8
bottom_labelLayer
10
419.5112882
20
181.8461975
40
5.0808757
50
253.7848016
51
270.8852459
0
ARC
8
bottom_labelLayer
10
418.9093392
20
179.7933208
40
2.9415753
50
190.3817606
51
253.8772428
0
ARC
8
bottom_labelLayer
10
421.9774572
20
180.6228858
40
6.11462
50
179.3550883
51
192.8477587
0
ARC
8
bottom_labelLayer
10
421.7256876
20
180.7492425
40
3.9172273
50
179.6416712
51
189.7505711
0
ARC
8
bottom_labelLayer
10
420.3428186
20
180.5025919
40
2.5125779
50
189.5479422
51
205.7873769
0
ARC
8
bottom_labelLayer
10
419.7745299
20
180.2405356
40
1.886913
50
206.1294343
51
221.408378
0
ARC
8
bottom_labelLayer
10
419.7108077
20
180.1921849
40
1.8071497
50
221.5949186
51
262.3505072
0
ARC
8
bottom_labelLayer
10
419.8623539
20
180.9714937
40
2.6001111
50
261.3266248
51
270.1913377
0
LINE
8
bottom_labelLayer
10
430.1015056
20
178.605772
11
430.1015056
21
177.1174907
0
LINE
8
bottom_labelLayer
10
424.3358806
20
180.6917095
11
424.3358806
21
188.3323345
0
LINE
8
bottom_labelLayer
10
424.3358806
20
188.3323345
11
422.4960369
21
188.3323345
0
LINE
8
bottom_labelLayer
10
422.4960369
20
188.3323345
11
422.4960369
21
189.2698345
0
LINE
8
bottom_labelLayer
10
422.4960369
20
189.2698345
11
424.3358806
21
190.0784282
0
LINE
8
bottom_labelLayer
10
424.3358806
20
190.0784282
11
425.1561931
21
192.8206157
0
LINE
8
bottom_labelLayer
10
425.1561931
20
192.8206157
11
426.2811931
21
192.8206157
0
LINE
8
bottom_labelLayer
10
426.2811931
20
192.8206157
11
426.2811931
21
189.8440532
0
LINE
8
bottom_labelLayer
10
426.2811931
20
189.8440532
11
430.0077556
21
189.8440532
0
LINE
8
bottom_labelLayer
10
430.0077556
20
189.8440532
11
430.0077556
21
188.3323345
0
LINE
8
bottom_labelLayer
10
430.0077556
20
188.3323345
11
426.2811931
21
188.3323345
0
LINE
8
bottom_labelLayer
10
426.2811931
20
188.3323345
11
426.2811931
21
180.7737407
0
ARC
8
bottom_labelLayer
10
428.3570338
20
184.760056
40
6.3886729
50
269.8803567
51
278.3028336
0
ARC
8
bottom_labelLayer
10
428.4179151
20
184.2626708
40
5.8877209
50
278.4155406
51
279.0081712
0
ARC
8
bottom_labelLayer
10
427.7009437
20
188.8429448
40
10.5237659
50
278.9590101
51
280.5103943
0
ARC
8
bottom_labelLayer
10
428.3841312
20
185.17717
40
6.7948739
50
280.4847891
51
282.6267799
0
ARC
8
bottom_labelLayer
10
428.9833006
20
182.515214
40
4.0663209
50
282.58766
51
285.5794473
0
ARC
8
bottom_labelLayer
10
429.2823968
20
181.4149032
40
2.9261164
50
285.7245036
51
286.256048
0
ARC
8
bottom_labelLayer
10
429.2836503
20
178.8472997
40
1.9134071
50
287.9887831
51
295.3048298
0
ARC
8
bottom_labelLayer
10
428.8221692
20
180.2434736
40
3.3838602
50
283.3068705
51
288.1198548
0
ARC
8
bottom_labelLayer
10
428.3345924
20
182.27731
40
5.4753182
50
280.0070318
51
283.3734769
0
ARC
8
bottom_labelLayer
10
428.0082704
20
184.0483217
40
7.2761039
50
279.186299
51
280.1142077
0
ARC
8
bottom_labelLayer
10
427.8081805
20
185.1863634
40
8.431508
50
275.5260434
51
279.2939448
0
ARC
8
bottom_labelLayer
10
428.0338225
20
182.8295655
40
6.0639347
50
270.8932317
51
275.5483613
0
ARC
8
bottom_labelLayer
10
428.0621691
20
181.7529524
40
4.9870241
50
270.0031482
51
270.7604232
0
ARC
8
bottom_labelLayer
10
427.9839444
20
181.8461975
40
5.0808757
50
253.7848016
51
270.8852459
0
ARC
8
bottom_labelLayer
10
427.3819955
20
179.7933208
40
2.9415753
50
190.3817606
51
253.8772428
0
ARC
8
bottom_labelLayer
10
430.4501135
20
180.6228858
40
6.11462
50
179.3550883
51
192.8477587
0
ARC
8
bottom_labelLayer
10
430.1983439
20
180.7492425
40
3.9172273
50
179.6416712
51
189.7505711
0
ARC
8
bottom_labelLayer
10
428.8154749
20
180.5025919
40
2.5125779
50
189.5479422
51
205.7873769
0
ARC
8
bottom_labelLayer
10
428.2471862
20
180.2405356
40
1.886913
50
206.1294343
51
221.408378
0
ARC
8
bottom_labelLayer
10
428.1834639
20
180.1921849
40
1.8071497
50
221.5949186
51
262.3505072
0
ARC
8
bottom_labelLayer
10
428.3350102
20
180.9714937
40
2.6001111
50
261.3266248
51
270.1913377
0
ARC
8
bottom_labelLayer
10
433.7057527
20
183.3661551
40
10.048325
50
349.1761848
51
0.3862689
0
ARC
8
bottom_labelLayer
10
437.0887767
20
182.691742
40
6.5988955
50
330.2507088
51
349.4116414
0
ARC
8
bottom_labelLayer
10
438.1299019
20
182.1506074
40
5.4266731
50
318.1439818
51
329.7566157
0
ARC
8
bottom_labelLayer
10
438.3178162
20
182.0000129
40
5.186241
50
278.8959142
51
317.9979157
0
ARC
8
bottom_labelLayer
10
437.8336464
20
184.3197039
40
7.5538476
50
269.7502864
51
279.8033342
0
ARC
8
bottom_labelLayer
10
437.755123
20
183.0127046
40
6.2469429
50
253.5436952
51
270.4182511
0
ARC
8
bottom_labelLayer
10
437.5471745
20
182.2083086
40
5.4166642
50
238.8115546
51
253.2428384
0
ARC
8
bottom_labelLayer
10
437.480063
20
182.0733473
40
5.2664697
50
207.7947012
51
238.6757963
0
ARC
8
bottom_labelLayer
10
438.4430732
20
182.663148
40
6.3938119
50
205.6560415
51
208.4461506
0
ARC
8
bottom_labelLayer
10
439.1848322
20
182.9722111
40
7.1963807
50
188.9102519
51
205.3171454
0
ARC
8
bottom_labelLayer
10
441.6845955
20
183.3955899
40
9.7316027
50
179.774463
51
189.0932878
0
ARC
8
bottom_labelLayer
10
442.053358
20
183.5023095
40
10.1005216
50
169.2442975
51
180.3880772
0
ARC
8
bottom_labelLayer
10
438.6232999
20
184.1803076
40
6.604245
50
150.7111509
51
169.4695445
0
ARC
8
bottom_labelLayer
10
437.5283064
20
184.7426291
40
5.3743262
50
138.1759262
51
150.2287565
0
ARC
8
bottom_labelLayer
10
437.3461772
20
184.8823923
40
5.1454329
50
99.1759396
51
137.9832734
0
ARC
8
bottom_labelLayer
10
437.8474982
20
182.5231129
40
7.5553974
50
89.7326269
51
100.0759727
0
ARC
8
bottom_labelLayer
10
437.9476967
20
183.5420113
40
6.5367395
50
73.5222687
51
90.5692303
0
ARC
8
bottom_labelLayer
10
438.3310374
20
184.9347876
40
5.0925067
50
41.1445685
51
73.2133837
0
ARC
8
bottom_labelLayer
10
437.5992708
20
184.305844
40
6.0573904
50
13.5014349
51
41.0703455
0
ARC
8
bottom_labelLayer
10
434.7721012
20
183.5660108
40
8.9793531
50
1.1277128
51
13.8800049
0
ARC
8
bottom_labelLayer
10
432.3363062
20
183.4355037
40
11.4175433
50
359.9919372
51
1.5419349
0
ARC
8
bottom_labelLayer
10
443.8195996
20
183.3833439
40
9.8510362
50
179.705971
51
187.9160766
0
ARC
8
bottom_labelLayer
10
440.2065433
20
182.8643327
40
6.2009516
50
187.7639294
51
200.0976817
0
ARC
8
bottom_labelLayer
10
438.2161243
20
182.1350406
40
4.0811324
50
200.0845823
51
216.9131551
0
ARC
8
bottom_labelLayer
10
437.4892951
20
181.616051
40
3.1883642
50
217.3009547
51
261.7099106
0
ARC
8
bottom_labelLayer
10
437.8267132
20
183.2261753
40
4.8313858
50
260.5033213
51
270.2476922
0
ARC
8
bottom_labelLayer
10
437.8911183
20
182.913086
40
4.5184611
50
269.4481552
51
284.7255622
0
ARC
8
bottom_labelLayer
10
438.2488174
20
181.5864933
40
3.1445297
50
284.5662336
51
322.6333806
0
ARC
8
bottom_labelLayer
10
437.4124964
20
182.1906977
40
4.1760003
50
323.0089257
51
342.6390464
0
ARC
8
bottom_labelLayer
10
435.0204471
20
182.9724887
40
6.6924346
50
342.3615655
51
353.7537662
0
ARC
8
bottom_labelLayer
10
431.4913577
20
183.3978733
40
10.2469298
50
353.5363176
51
0.2014268
0
ARC
8
bottom_labelLayer
10
432.0320766
20
183.4834373
40
9.7062742
50
359.7075639
51
7.8972796
0
ARC
8
bottom_labelLayer
10
435.5867768
20
183.9930386
40
6.1152909
50
7.7439865
51
20.0690117
0
ARC
8
bottom_labelLayer
10
437.5676099
20
184.71993
40
4.0053009
50
20.0256933
51
37.4350686
0
ARC
8
bottom_labelLayer
10
438.2248266
20
185.1862823
40
3.2000982
50
37.9577645
51
80.400624
0
ARC
8
bottom_labelLayer
10
437.8513479
20
183.5198508
40
4.9063088
50
79.345361
51
90.3174798
0
ARC
8
bottom_labelLayer
10
437.7821936
20
183.7966592
40
4.6296155
50
89.4805969
51
103.8805122
0
ARC
8
bottom_labelLayer
10
437.3931853
20
185.2779972
40
3.0982933
50
103.4685158
51
142.3118982
0
ARC
8
bottom_labelLayer
10
438.1494489
20
184.7461387
40
4.022135
50
142.90258
51
162.3749602
0
ARC
8
bottom_labelLayer
10
440.5324328
20
183.9520162
40
6.5338029
50
162.0653208
51
173.1674858
0
ARC
8
bottom_labelLayer
10
444.248115
20
183.4781026
40
10.2795168
50
173.0086176
51
180.2463933
0
LINE
8
bottom_labelLayer
10
465.4804119
20
177.0003032
11
463.5350994
21
177.0003032
0
LINE
8
bottom_labelLayer
10
463.5350994
20
177.0003032
11
463.5350994
21
185.355772
0
LINE
8
bottom_labelLayer
10
457.2890056
20
184.1721782
11
457.2890056
21
177.0003032
0
LINE
8
bottom_labelLayer
10
457.2890056
20
177.0003032
11
455.3436931
21
177.0003032
0
LINE
8
bottom_labelLayer
10
455.3436931
20
177.0003032
11
455.3436931
21
185.355772
0
LINE
8
bottom_labelLayer
10
449.1093181
20
183.7385845
11
449.1093181
21
177.0003032
0
LINE
8
bottom_labelLayer
10
449.1093181
20
177.0003032
11
447.1640056
21
177.0003032
0
LINE
8
bottom_labelLayer
10
447.1640056
20
177.0003032
11
447.1640056
21
189.8440532
0
LINE
8
bottom_labelLayer
10
447.1640056
20
189.8440532
11
448.7460369
21
189.8440532
0
LINE
8
bottom_labelLayer
10
448.7460369
20
189.8440532
11
449.0624431
21
188.0862407
0
LINE
8
bottom_labelLayer
10
449.0624431
20
188.0862407
11
449.1561931
21
188.0862407
0
LINE
8
bottom_labelLayer
10
456.8905681
20
187.8987407
11
456.9843181
21
187.8987407
0
LINE
8
bottom_labelLayer
10
465.4804119
20
185.3792095
11
465.4804119
21
177.0003032
0
ARC
8
bottom_labelLayer
10
457.7963538
20
185.386338
40
5.738827
50
359.6948306
51
8.1471464
0
ARC
8
bottom_labelLayer
10
459.9101425
20
185.6991537
40
3.6020551
50
7.9864714
51
20.794961
0
ARC
8
bottom_labelLayer
10
461.0785855
20
186.146741
40
2.3508264
50
20.7071265
51
40.0217442
0
ARC
8
bottom_labelLayer
10
461.3349185
20
186.3144555
40
2.0469966
50
41.040815
51
73.1792698
0
ARC
8
bottom_labelLayer
10
460.9640109
20
185.1926395
40
3.2282915
50
72.6395588
51
86.2568116
0
ARC
8
bottom_labelLayer
10
460.8451905
20
183.9104919
40
4.5155957
50
85.8144564
51
90.0685631
0
ARC
8
bottom_labelLayer
10
460.8015328
20
183.4206395
40
5.0055912
50
89.5621262
51
101.2961714
0
ARC
8
bottom_labelLayer
10
460.4245267
20
185.2254939
40
3.1618939
50
101.0032182
51
121.7840557
0
ARC
8
bottom_labelLayer
10
460.1379124
20
185.7371824
40
2.5761033
50
122.3597321
51
140.2883936
0
ARC
8
bottom_labelLayer
10
460.6535635
20
185.3590899
40
3.2145823
50
140.9765189
51
161.1699563
0
ARC
8
bottom_labelLayer
10
462.5961537
20
184.6677652
40
5.2764094
50
160.8731749
51
172.5272558
0
ARC
8
bottom_labelLayer
10
465.842163
20
184.2194646
40
8.5531826
50
172.3776394
51
180.1829645
0
ARC
8
bottom_labelLayer
10
468.1165053
20
184.1721902
40
10.8274996
50
179.8943709
51
180.0000634
0
ARC
8
bottom_labelLayer
10
449.6049475
20
185.386338
40
5.738827
50
359.6948306
51
8.1471464
0
ARC
8
bottom_labelLayer
10
451.7187363
20
185.6991537
40
3.6020551
50
7.9864714
51
20.794961
0
ARC
8
bottom_labelLayer
10
452.8871793
20
186.146741
40
2.3508264
50
20.7071265
51
40.0217442
0
ARC
8
bottom_labelLayer
10
453.148843
20
186.3181401
40
2.0405568
50
41.0610636
51
72.8993765
0
ARC
8
bottom_labelLayer
10
452.7709057
20
185.192977
40
3.227252
50
72.3601236
51
85.9561587
0
ARC
8
bottom_labelLayer
10
452.6429682
20
183.8707356
40
4.5553533
50
85.5237991
51
90.079319
0
ARC
8
bottom_labelLayer
10
452.5993326
20
183.5946328
40
4.8315958
50
89.5573242
51
101.4832207
0
ARC
8
bottom_labelLayer
10
452.2284923
20
185.3321033
40
3.0551273
50
101.15465
51
123.0655549
0
ARC
8
bottom_labelLayer
10
451.9764096
20
185.771219
40
2.5497493
50
123.7020334
51
142.3022232
0
ARC
8
bottom_labelLayer
10
452.5668943
20
185.3706266
40
3.2622277
50
143.076996
51
161.3913819
0
ARC
8
bottom_labelLayer
10
454.94707
20
184.5300041
40
5.7863325
50
161.0234575
51
171.4469212
0
ARC
8
bottom_labelLayer
10
458.8873935
20
183.9127628
40
9.7746638
50
171.3041906
51
178.3501659
0
ARC
8
bottom_labelLayer
10
462.6533344
20
183.7445639
40
13.5440178
50
178.0975982
51
180.025295
0
ARC
8
bottom_labelLayer
10
452.4518147
20
186.148253
40
3.8232078
50
117.1209502
51
149.5423758
0
ARC
8
bottom_labelLayer
10
452.8420065
20
185.4547372
40
4.6184507
50
93.8343264
51
117.507214
0
ARC
8
bottom_labelLayer
10
452.9497771
20
184.5002172
40
5.5782122
50
89.9661966
51
94.2831787
0
ARC
8
bottom_labelLayer
10
453.0143486
20
183.7097503
40
6.3689728
50
77.5572325
51
90.5512927
0
ARC
8
bottom_labelLayer
10
453.6053207
20
186.2516322
40
3.7595768
50
52.7026985
51
78.005389
0
ARC
8
bottom_labelLayer
10
453.8158704
20
186.6433664
40
3.321104
50
22.2097981
51
51.4970546
0
ARC
8
bottom_labelLayer
10
460.5083374
20
185.8791171
40
4.0617227
50
119.4041794
51
150.1828776
0
ARC
8
bottom_labelLayer
10
460.9588053
20
185.1940839
40
4.8799962
50
118.2583504
51
120.062965
0
ARC
8
bottom_labelLayer
10
460.9575191
20
185.1440164
40
4.9235505
50
95.8635224
51
117.9693158
0
ARC
8
bottom_labelLayer
10
461.1241488
20
183.9391599
40
6.1392743
50
89.9196748
51
96.261756
0
ARC
8
bottom_labelLayer
10
461.1776455
20
183.3165646
40
6.7620126
50
79.936093
51
90.3803632
0
ARC
8
bottom_labelLayer
10
461.6282093
20
185.7567629
40
4.2806609
50
62.9723209
51
80.1665129
0
ARC
8
bottom_labelLayer
10
462.0992134
20
186.7230817
40
3.2059021
50
44.228992
51
62.6229026
0
ARC
8
bottom_labelLayer
10
461.9591258
20
186.6611955
40
3.3498757
50
19.5612034
51
43.3161219
0
ARC
8
bottom_labelLayer
10
459.9246043
20
185.8970262
40
5.5229646
50
7.5041831
51
19.9645449
0
ARC
8
bottom_labelLayer
10
456.5579939
20
185.4242541
40
8.9225317
50
359.7107459
51
7.6907169
0
ENDSEC
0
EOF